EBGaramondVF-DisplayCompressed_Regular.ufo
<glyph name="exclam" format="1">
  <advance width="197"/>
  <unicode hex="0021"/>
  <outline>
    <contour>
      <point x="97" y="205" type="curve" smooth="yes"/>
      <point x="102" y="205"/>
      <point x="105" y="213"/>
      <point x="106" y="224" type="curve" smooth="yes"/>
      <point x="127" y="357"/>
      <point x="145" y="531"/>
      <point x="145" y="594" type="curve" smooth="yes"/>
      <point x="145" y="623"/>
      <point x="127" y="649"/>
      <point x="100" y="649" type="curve" smooth="yes"/>
      <point x="73" y="649"/>
      <point x="53" y="623"/>
      <point x="53" y="594" type="curve" smooth="yes"/>
      <point x="53" y="531"/>
      <point x="67" y="358"/>
      <point x="88" y="224" type="curve" smooth="yes"/>
      <point x="89" y="210"/>
      <point x="91" y="205"/>
    </contour>
    <contour>
      <point x="99" y="-14" type="curve" smooth="yes"/>
      <point x="132" y="-14"/>
      <point x="159" y="13"/>
      <point x="159" y="46" type="curve" smooth="yes"/>
      <point x="159" y="79"/>
      <point x="132" y="106"/>
      <point x="99" y="106" type="curve" smooth="yes"/>
      <point x="66" y="106"/>
      <point x="39" y="79"/>
      <point x="39" y="46" type="curve" smooth="yes"/>
      <point x="39" y="13"/>
      <point x="66" y="-14"/>
    </contour>
  </outline>
</glyph>
<glyph name="numbersign" format="1">
  <advance width="279"/>
  <unicode hex="0023"/>
  <outline>
    <contour>
      <point x="41" y="-79" type="curve" smooth="yes"/>
      <point x="43" y="-79"/>
      <point x="56" y="-77"/>
      <point x="56" y="-68" type="curve" smooth="yes"/>
      <point x="81" y="116" type="line"/>
      <point x="146" y="120" type="line"/>
      <point x="122" y="-55" type="line"/>
      <point x="121" y="-61" type="line" smooth="yes"/>
      <point x="121" y="-65"/>
      <point x="122" y="-68"/>
      <point x="123" y="-68" type="curve" smooth="yes"/>
      <point x="125" y="-68"/>
      <point x="145" y="-66"/>
      <point x="145" y="-57" type="curve" smooth="yes"/>
      <point x="170" y="123" type="line"/>
      <point x="209" y="126" type="line" smooth="yes"/>
      <point x="221" y="127"/>
      <point x="226" y="164"/>
      <point x="226" y="174" type="curve" smooth="yes"/>
      <point x="226" y="181"/>
      <point x="223" y="186"/>
      <point x="219" y="186" type="curve"/>
      <point x="178" y="183" type="line"/>
      <point x="197" y="321" type="line"/>
      <point x="235" y="324" type="line" smooth="yes"/>
      <point x="248" y="325"/>
      <point x="253" y="363"/>
      <point x="253" y="373" type="curve" smooth="yes"/>
      <point x="253" y="380"/>
      <point x="249" y="384"/>
      <point x="245" y="384" type="curve"/>
      <point x="205" y="381" type="line"/>
      <point x="229" y="556" type="line"/>
      <point x="229" y="559"/>
      <point x="230" y="560"/>
      <point x="230" y="562" type="curve" smooth="yes"/>
      <point x="230" y="566"/>
      <point x="212" y="570"/>
      <point x="211" y="570" type="curve" smooth="yes"/>
      <point x="209" y="570"/>
      <point x="207" y="568"/>
      <point x="205" y="557" type="curve" smooth="yes"/>
      <point x="181" y="377" type="line"/>
      <point x="116" y="374" type="line"/>
      <point x="139" y="542" type="line"/>
      <point x="139" y="546"/>
      <point x="140" y="549"/>
      <point x="140" y="551" type="curve" smooth="yes"/>
      <point x="140" y="555"/>
      <point x="135" y="559"/>
      <point x="133" y="559" type="curve" smooth="yes"/>
      <point x="132" y="559"/>
      <point x="120" y="556"/>
      <point x="119" y="546" type="curve" smooth="yes"/>
      <point x="95" y="371" type="line"/>
      <point x="49" y="368" type="line" smooth="yes"/>
      <point x="37" y="367"/>
      <point x="36" y="330"/>
      <point x="36" y="320" type="curve" smooth="yes"/>
      <point x="36" y="313"/>
      <point x="40" y="308"/>
      <point x="44" y="308" type="curve"/>
      <point x="87" y="311" type="line"/>
      <point x="68" y="173" type="line"/>
      <point x="23" y="170" type="line" smooth="yes"/>
      <point x="11" y="169"/>
      <point x="10" y="132"/>
      <point x="10" y="122" type="curve" smooth="yes"/>
      <point x="10" y="115"/>
      <point x="14" y="110"/>
      <point x="17" y="110" type="curve"/>
      <point x="61" y="113" type="line"/>
      <point x="36" y="-64" type="line"/>
      <point x="35" y="-72" type="line" smooth="yes"/>
      <point x="35" y="-76"/>
      <point x="39" y="-79"/>
    </contour>
    <contour>
      <point x="90" y="177" type="line"/>
      <point x="108" y="315" type="line"/>
      <point x="172" y="318" type="line"/>
      <point x="155" y="180" type="line"/>
    </contour>
  </outline>
</glyph>
<glyph name="dollar" format="1">
  <advance width="280"/>
  <unicode hex="0024"/>
  <outline>
    <contour>
      <point x="110" y="-72" type="curve" smooth="yes"/>
      <point x="115" y="-71"/>
      <point x="122" y="-67"/>
      <point x="123" y="-60" type="curve" smooth="yes"/>
      <point x="128" y="2" type="line" smooth="yes"/>
      <point x="128" y="7"/>
      <point x="131" y="8"/>
      <point x="136" y="9" type="curve" smooth="yes"/>
      <point x="199" y="16"/>
      <point x="255" y="80"/>
      <point x="255" y="166" type="curve" smooth="yes"/>
      <point x="255" y="224"/>
      <point x="240" y="261"/>
      <point x="171" y="324" type="curve"/>
      <point x="165" y="328"/>
      <point x="165" y="332"/>
      <point x="166" y="339" type="curve" smooth="yes"/>
      <point x="182" y="503" type="line"/>
      <point x="182" y="505"/>
      <point x="183" y="508"/>
      <point x="186" y="508" type="curve" smooth="yes"/>
      <point x="200" y="517"/>
      <point x="214" y="470"/>
      <point x="220" y="441" type="curve" smooth="yes"/>
      <point x="221" y="436"/>
      <point x="223" y="427"/>
      <point x="235" y="427" type="curve" smooth="yes"/>
      <point x="244" y="427"/>
      <point x="250" y="435"/>
      <point x="250" y="443" type="curve" smooth="yes"/>
      <point x="250" y="473"/>
      <point x="245" y="500"/>
      <point x="238" y="519" type="curve" smooth="yes"/>
      <point x="235" y="524"/>
      <point x="232" y="530"/>
      <point x="226" y="535" type="curve" smooth="yes"/>
      <point x="220" y="539"/>
      <point x="204" y="548"/>
      <point x="191" y="549" type="curve" smooth="yes"/>
      <point x="188" y="551"/>
      <point x="187" y="552"/>
      <point x="187" y="555" type="curve" smooth="yes"/>
      <point x="187" y="563"/>
      <point x="193" y="623"/>
      <point x="193" y="630" type="curve"/>
      <point x="192" y="636"/>
      <point x="189" y="640"/>
      <point x="185" y="640" type="curve" smooth="yes"/>
      <point x="177" y="640"/>
      <point x="171" y="638"/>
      <point x="170" y="626" type="curve" smooth="yes"/>
      <point x="166" y="567" type="line" smooth="yes"/>
      <point x="166" y="564"/>
      <point x="164" y="562"/>
      <point x="160" y="561" type="curve" smooth="yes"/>
      <point x="75" y="560"/>
      <point x="35" y="493"/>
      <point x="35" y="428" type="curve" smooth="yes"/>
      <point x="35" y="369"/>
      <point x="71" y="314"/>
      <point x="120" y="266" type="curve" smooth="yes"/>
      <point x="127" y="260"/>
      <point x="131" y="252"/>
      <point x="129" y="241" type="curve" smooth="yes"/>
      <point x="111" y="53" type="line" smooth="yes"/>
      <point x="111" y="49"/>
      <point x="104" y="47"/>
      <point x="102" y="51" type="curve"/>
      <point x="87" y="68"/>
      <point x="62" y="94"/>
      <point x="53" y="155" type="curve" smooth="yes"/>
      <point x="51" y="160"/>
      <point x="47" y="168"/>
      <point x="38" y="168" type="curve" smooth="yes"/>
      <point x="31" y="168"/>
      <point x="24" y="160"/>
      <point x="24" y="153" type="curve"/>
      <point x="25" y="129"/>
      <point x="26" y="84"/>
      <point x="30" y="62" type="curve" smooth="yes"/>
      <point x="31" y="55"/>
      <point x="34" y="50"/>
      <point x="37" y="46" type="curve" smooth="yes"/>
      <point x="50" y="30"/>
      <point x="78" y="14"/>
      <point x="98" y="12" type="curve" smooth="yes"/>
      <point x="101" y="12"/>
      <point x="106" y="9"/>
      <point x="106" y="4" type="curve"/>
      <point x="100" y="-59" type="line" smooth="yes"/>
      <point x="99" y="-66"/>
      <point x="105" y="-72"/>
    </contour>
    <contour>
      <point x="139" y="28" type="curve"/>
      <point x="135" y="28"/>
      <point x="132" y="30"/>
      <point x="132" y="35" type="curve"/>
      <point x="148" y="192" type="line" smooth="yes"/>
      <point x="148" y="195"/>
      <point x="153" y="200"/>
      <point x="154" y="196" type="curve"/>
      <point x="174" y="178"/>
      <point x="184" y="158"/>
      <point x="184" y="135" type="curve" smooth="yes"/>
      <point x="184" y="83"/>
      <point x="167" y="26"/>
    </contour>
    <contour>
      <point x="136" y="373" type="curve"/>
      <point x="113" y="391"/>
      <point x="96" y="420"/>
      <point x="96" y="443" type="curve" smooth="yes"/>
      <point x="96" y="500"/>
      <point x="123" y="546"/>
      <point x="155" y="544" type="curve"/>
      <point x="160" y="544"/>
      <point x="162" y="542"/>
      <point x="162" y="537" type="curve"/>
      <point x="145" y="375" type="line"/>
      <point x="145" y="368"/>
      <point x="140" y="367"/>
    </contour>
  </outline>
</glyph>
<glyph name="ampersand" format="1">
  <advance width="457"/>
  <unicode hex="0026"/>
  <outline>
    <contour>
      <point x="127" y="-14" type="curve" smooth="yes"/>
      <point x="179" y="-14"/>
      <point x="204" y="44"/>
      <point x="239" y="111" type="curve"/>
      <point x="243" y="117" type="line"/>
      <point x="252" y="99" type="line" smooth="yes"/>
      <point x="286" y="22"/>
      <point x="302" y="-14"/>
      <point x="349" y="-14" type="curve" smooth="yes"/>
      <point x="382" y="-14"/>
      <point x="429" y="40"/>
      <point x="429" y="57" type="curve" smooth="yes"/>
      <point x="429" y="62"/>
      <point x="430" y="65"/>
      <point x="427" y="65" type="curve" smooth="yes"/>
      <point x="425" y="65"/>
      <point x="422" y="61"/>
      <point x="417" y="56" type="curve" smooth="yes"/>
      <point x="411" y="45"/>
      <point x="398" y="36"/>
      <point x="376" y="36" type="curve" smooth="yes"/>
      <point x="348" y="36"/>
      <point x="320" y="79"/>
      <point x="293" y="141" type="curve" smooth="yes"/>
      <point x="279" y="173" type="line"/>
      <point x="279" y="173"/>
      <point x="376" y="342"/>
      <point x="383" y="353" type="curve" smooth="yes"/>
      <point x="395" y="372"/>
      <point x="415" y="384"/>
      <point x="431" y="386" type="curve"/>
      <point x="436" y="387"/>
      <point x="445" y="394"/>
      <point x="445" y="399" type="curve" smooth="yes"/>
      <point x="445" y="402"/>
      <point x="440" y="406"/>
      <point x="439" y="406" type="curve" smooth="yes"/>
      <point x="425" y="406"/>
      <point x="386" y="400"/>
      <point x="370" y="400" type="curve" smooth="yes"/>
      <point x="361" y="400"/>
      <point x="319" y="404"/>
      <point x="317" y="404" type="curve" smooth="yes"/>
      <point x="314" y="404"/>
      <point x="304" y="403"/>
      <point x="304" y="396" type="curve" smooth="yes"/>
      <point x="304" y="392"/>
      <point x="309" y="389"/>
      <point x="317" y="387" type="curve"/>
      <point x="340" y="383"/>
      <point x="351" y="377"/>
      <point x="350" y="358" type="curve" smooth="yes"/>
      <point x="349" y="339"/>
      <point x="310" y="264"/>
      <point x="284" y="213" type="curve" smooth="yes"/>
      <point x="274" y="194" type="line"/>
      <point x="264" y="213" type="line" smooth="yes"/>
      <point x="238" y="269"/>
      <point x="228" y="292"/>
      <point x="199" y="346" type="curve" smooth="yes"/>
      <point x="192" y="360" type="line"/>
      <point x="203" y="367" type="line" smooth="yes"/>
      <point x="243" y="394"/>
      <point x="272" y="429"/>
      <point x="272" y="489" type="curve" smooth="yes"/>
      <point x="272" y="535"/>
      <point x="247" y="599"/>
      <point x="179" y="599" type="curve" smooth="yes"/>
      <point x="129" y="599"/>
      <point x="78" y="554"/>
      <point x="78" y="484" type="curve" smooth="yes"/>
      <point x="78" y="425"/>
      <point x="111" y="392"/>
      <point x="123" y="370" type="curve"/>
      <point x="138" y="347" type="line"/>
      <point x="125" y="338" type="line" smooth="yes"/>
      <point x="61" y="293"/>
      <point x="19" y="235"/>
      <point x="19" y="127" type="curve" smooth="yes"/>
      <point x="19" y="45"/>
      <point x="63" y="-14"/>
    </contour>
    <contour>
      <point x="146" y="50" type="curve" smooth="yes"/>
      <point x="115" y="50"/>
      <point x="95" y="99"/>
      <point x="95" y="160" type="curve" smooth="yes"/>
      <point x="95" y="219"/>
      <point x="96" y="284"/>
      <point x="137" y="318" type="curve" smooth="yes"/>
      <point x="145" y="324" type="line"/>
      <point x="154" y="311" type="line" smooth="yes"/>
      <point x="188" y="250"/>
      <point x="206" y="208"/>
      <point x="229" y="158" type="curve" smooth="yes"/>
      <point x="237" y="141" type="line"/>
      <point x="232" y="132" type="line" smooth="yes"/>
      <point x="198" y="82"/>
      <point x="174" y="50"/>
    </contour>
    <contour>
      <point x="186" y="375" type="line"/>
      <point x="177" y="391" type="line" smooth="yes"/>
      <point x="148" y="445"/>
      <point x="136" y="468"/>
      <point x="136" y="509" type="curve" smooth="yes"/>
      <point x="136" y="546"/>
      <point x="156" y="584"/>
      <point x="174" y="584" type="curve" smooth="yes"/>
      <point x="196" y="584"/>
      <point x="209" y="545"/>
      <point x="209" y="488" type="curve" smooth="yes"/>
      <point x="209" y="452"/>
      <point x="208" y="400"/>
      <point x="192" y="382" type="curve" smooth="yes"/>
    </contour>
  </outline>
</glyph>
<glyph name="asterisk" format="1">
  <advance width="209"/>
  <unicode hex="002A"/>
  <outline>
    <contour>
      <point x="113" y="372" type="curve" smooth="yes"/>
      <point x="118" y="372"/>
      <point x="124" y="381"/>
      <point x="124" y="394" type="curve"/>
      <point x="126" y="431"/>
      <point x="127" y="459"/>
      <point x="127" y="487" type="curve"/>
      <point x="142" y="478"/>
      <point x="155" y="464"/>
      <point x="168" y="458" type="curve" smooth="yes"/>
      <point x="173" y="455"/>
      <point x="189" y="457"/>
      <point x="189" y="465" type="curve" smooth="yes"/>
      <point x="189" y="469"/>
      <point x="186" y="476"/>
      <point x="183" y="479" type="curve"/>
      <point x="162" y="500"/>
      <point x="152" y="510"/>
      <point x="137" y="525" type="curve"/>
      <point x="175" y="586" type="line"/>
      <point x="178" y="591"/>
      <point x="180" y="597"/>
      <point x="180" y="603" type="curve" smooth="yes"/>
      <point x="180" y="609"/>
      <point x="176" y="613"/>
      <point x="173" y="613" type="curve" smooth="yes"/>
      <point x="171" y="613"/>
      <point x="168" y="611"/>
      <point x="165" y="609" type="curve"/>
      <point x="148" y="592"/>
      <point x="135" y="576"/>
      <point x="123" y="560" type="curve"/>
      <point x="110" y="652" type="line" smooth="yes"/>
      <point x="108" y="662"/>
      <point x="105" y="670"/>
      <point x="99" y="670" type="curve" smooth="yes"/>
      <point x="94" y="670"/>
      <point x="88" y="662"/>
      <point x="88" y="648" type="curve" smooth="yes"/>
      <point x="86" y="613"/>
      <point x="85" y="583"/>
      <point x="85" y="555" type="curve"/>
      <point x="70" y="566"/>
      <point x="55" y="575"/>
      <point x="37" y="586" type="curve"/>
      <point x="33" y="588"/>
      <point x="21" y="591"/>
      <point x="21" y="580" type="curve" smooth="yes"/>
      <point x="21" y="573"/>
      <point x="29" y="566"/>
      <point x="33" y="563" type="curve"/>
      <point x="49" y="544"/>
      <point x="62" y="530"/>
      <point x="75" y="517" type="curve"/>
      <point x="37" y="458" type="line"/>
      <point x="34" y="454"/>
      <point x="32" y="448"/>
      <point x="32" y="442" type="curve" smooth="yes"/>
      <point x="32" y="437"/>
      <point x="35" y="432"/>
      <point x="39" y="432" type="curve" smooth="yes"/>
      <point x="42" y="432"/>
      <point x="43" y="433"/>
      <point x="46" y="437" type="curve"/>
      <point x="63" y="453"/>
      <point x="75" y="468"/>
      <point x="89" y="482" type="curve"/>
      <point x="102" y="390" type="line" smooth="yes"/>
      <point x="105" y="376"/>
      <point x="111" y="372"/>
    </contour>
  </outline>
</glyph>
<glyph name="plus" format="1">
  <advance width="328"/>
  <unicode hex="002B"/>
  <outline>
    <contour>
      <point x="154" y="102" type="curve" smooth="yes"/>
      <point x="158" y="102"/>
      <point x="178" y="104"/>
      <point x="178" y="117" type="curve" smooth="yes"/>
      <point x="178" y="218" type="line" smooth="yes"/>
      <point x="178" y="219"/>
      <point x="178" y="220"/>
      <point x="180" y="220" type="curve" smooth="yes"/>
      <point x="258" y="220" type="line" smooth="yes"/>
      <point x="277" y="220"/>
      <point x="289" y="238"/>
      <point x="289" y="247" type="curve" smooth="yes"/>
      <point x="289" y="250"/>
      <point x="283" y="252"/>
      <point x="276" y="252" type="curve" smooth="yes"/>
      <point x="179" y="252" type="line" smooth="yes"/>
      <point x="178" y="252"/>
      <point x="178" y="253"/>
      <point x="178" y="255" type="curve" smooth="yes"/>
      <point x="178" y="357" type="line" smooth="yes"/>
      <point x="178" y="361"/>
      <point x="174" y="364"/>
      <point x="171" y="364" type="curve" smooth="yes"/>
      <point x="168" y="364"/>
      <point x="148" y="359"/>
      <point x="148" y="345" type="curve" smooth="yes"/>
      <point x="148" y="256" type="line" smooth="yes"/>
      <point x="148" y="253"/>
      <point x="148" y="252"/>
      <point x="145" y="252" type="curve" smooth="yes"/>
      <point x="63" y="252" type="line" smooth="yes"/>
      <point x="45" y="252"/>
      <point x="39" y="231"/>
      <point x="39" y="226" type="curve" smooth="yes"/>
      <point x="39" y="223"/>
      <point x="46" y="220"/>
      <point x="53" y="220" type="curve" smooth="yes"/>
      <point x="146" y="220" type="line" smooth="yes"/>
      <point x="147" y="220"/>
      <point x="148" y="219"/>
      <point x="148" y="217" type="curve" smooth="yes"/>
      <point x="148" y="111" type="line" smooth="yes"/>
      <point x="148" y="106"/>
      <point x="151" y="102"/>
    </contour>
  </outline>
</glyph>
<glyph name="hyphen" format="1">
  <advance width="153"/>
  <unicode hex="002D"/>
  <outline>
    <contour>
      <point x="21" y="235" type="curve"/>
      <point x="54" y="239"/>
      <point x="88" y="241"/>
      <point x="125" y="243" type="curve" smooth="yes"/>
      <point x="133" y="244"/>
      <point x="136" y="259"/>
      <point x="136" y="271" type="curve" smooth="yes"/>
      <point x="136" y="273"/>
      <point x="134" y="274"/>
      <point x="131" y="274" type="curve"/>
      <point x="96" y="271"/>
      <point x="61" y="268"/>
      <point x="26" y="265" type="curve"/>
      <point x="21" y="265"/>
      <point x="17" y="250"/>
      <point x="17" y="238" type="curve" smooth="yes"/>
      <point x="17" y="236"/>
      <point x="17" y="235"/>
    </contour>
  </outline>
</glyph>
<glyph name="zero" format="1">
  <advance width="321"/>
  <unicode hex="0030"/>
  <outline>
    <contour>
      <point x="157" y="-14" type="curve" smooth="yes"/>
      <point x="259" y="-14"/>
      <point x="301" y="134"/>
      <point x="301" y="279" type="curve" smooth="yes"/>
      <point x="301" y="420"/>
      <point x="257" y="559"/>
      <point x="164" y="559" type="curve" smooth="yes"/>
      <point x="63" y="559"/>
      <point x="21" y="414"/>
      <point x="21" y="267" type="curve" smooth="yes"/>
      <point x="21" y="124"/>
      <point x="65" y="-14"/>
    </contour>
    <contour>
      <point x="166" y="2" type="curve" smooth="yes"/>
      <point x="124" y="2"/>
      <point x="104" y="130"/>
      <point x="104" y="284" type="curve" smooth="yes"/>
      <point x="104" y="436"/>
      <point x="117" y="541"/>
      <point x="154" y="541" type="curve" smooth="yes"/>
      <point x="196" y="541"/>
      <point x="218" y="417"/>
      <point x="218" y="263" type="curve" smooth="yes"/>
      <point x="218" y="110"/>
      <point x="203" y="2"/>
    </contour>
  </outline>
</glyph>
<glyph name="one" format="1">
  <advance width="321"/>
  <unicode hex="0031"/>
  <outline>
    <contour>
      <point x="58" y="-3" type="curve" smooth="yes"/>
      <point x="88" y="-3"/>
      <point x="128" y="2"/>
      <point x="158" y="2" type="curve" smooth="yes"/>
      <point x="187" y="2"/>
      <point x="226" y="-3"/>
      <point x="257" y="-3" type="curve" smooth="yes"/>
      <point x="262" y="-3"/>
      <point x="265" y="1"/>
      <point x="265" y="4" type="curve" smooth="yes"/>
      <point x="265" y="7"/>
      <point x="262" y="11"/>
      <point x="256" y="13" type="curve" smooth="yes"/>
      <point x="210" y="23"/>
      <point x="198" y="26"/>
      <point x="198" y="84" type="curve" smooth="yes"/>
      <point x="198" y="486" type="line" smooth="yes"/>
      <point x="198" y="514"/>
      <point x="199" y="537"/>
      <point x="200" y="557" type="curve"/>
      <point x="200" y="562"/>
      <point x="194" y="566"/>
      <point x="189" y="566" type="curve" smooth="yes"/>
      <point x="185" y="566"/>
      <point x="179" y="564"/>
      <point x="168" y="544" type="curve" smooth="yes"/>
      <point x="158" y="511"/>
      <point x="123" y="497"/>
      <point x="76" y="496" type="curve" smooth="yes"/>
      <point x="64" y="495"/>
      <point x="58" y="492"/>
      <point x="58" y="485" type="curve" smooth="yes"/>
      <point x="58" y="478"/>
      <point x="66" y="475"/>
      <point x="76" y="474" type="curve" smooth="yes"/>
      <point x="122" y="471"/>
      <point x="118" y="463"/>
      <point x="118" y="421" type="curve" smooth="yes"/>
      <point x="118" y="90" type="line" smooth="yes"/>
      <point x="118" y="28"/>
      <point x="99" y="25"/>
      <point x="58" y="13" type="curve" smooth="yes"/>
      <point x="54" y="12"/>
      <point x="50" y="7"/>
      <point x="50" y="5" type="curve" smooth="yes"/>
      <point x="50" y="1"/>
      <point x="53" y="-3"/>
    </contour>
  </outline>
</glyph>
<glyph name="two" format="1">
  <advance width="321"/>
  <unicode hex="0032"/>
  <outline>
    <contour>
      <point x="268" y="-3" type="curve" smooth="yes"/>
      <point x="271" y="-3"/>
      <point x="278" y="0"/>
      <point x="280" y="21" type="curve" smooth="yes"/>
      <point x="286" y="71"/>
      <point x="297" y="129"/>
      <point x="297" y="139" type="curve" smooth="yes"/>
      <point x="297" y="144"/>
      <point x="296" y="151"/>
      <point x="290" y="151" type="curve" smooth="yes"/>
      <point x="287" y="151"/>
      <point x="285" y="151"/>
      <point x="281" y="134" type="curve" smooth="yes"/>
      <point x="273" y="85"/>
      <point x="262" y="66"/>
      <point x="231" y="63" type="curve" smooth="yes"/>
      <point x="198" y="61"/>
      <point x="158" y="61"/>
      <point x="137" y="61" type="curve" smooth="yes"/>
      <point x="117" y="61"/>
      <point x="108" y="60"/>
      <point x="96" y="63" type="curve" smooth="yes"/>
      <point x="92" y="64"/>
      <point x="89" y="66"/>
      <point x="89" y="71" type="curve" smooth="yes"/>
      <point x="131" y="129"/>
      <point x="93" y="98"/>
      <point x="117" y="130" type="curve" smooth="yes"/>
      <point x="177" y="199"/>
      <point x="262" y="321"/>
      <point x="262" y="439" type="curve" smooth="yes"/>
      <point x="262" y="501"/>
      <point x="227" y="559"/>
      <point x="153" y="559" type="curve" smooth="yes"/>
      <point x="75" y="559"/>
      <point x="56" y="457"/>
      <point x="43" y="412" type="curve" smooth="yes"/>
      <point x="41" y="400"/>
      <point x="44" y="400"/>
      <point x="46" y="400" type="curve" smooth="yes"/>
      <point x="49" y="400"/>
      <point x="51" y="411"/>
      <point x="54" y="419" type="curve"/>
      <point x="73" y="466"/>
      <point x="97" y="496"/>
      <point x="126" y="496" type="curve" smooth="yes"/>
      <point x="173" y="496"/>
      <point x="185" y="458"/>
      <point x="185" y="393" type="curve" smooth="yes"/>
      <point x="185" y="313"/>
      <point x="159" y="232"/>
      <point x="114" y="164" type="curve" smooth="yes"/>
      <point x="35" y="25" type="line" smooth="yes"/>
      <point x="32" y="19"/>
      <point x="30" y="18"/>
      <point x="30" y="13" type="curve" smooth="yes"/>
      <point x="30" y="8"/>
      <point x="39" y="-2"/>
      <point x="42" y="-2" type="curve" smooth="yes"/>
      <point x="53" y="-2"/>
      <point x="166" y="2"/>
      <point x="193" y="2" type="curve" smooth="yes"/>
      <point x="221" y="3"/>
      <point x="256" y="-3"/>
    </contour>
  </outline>
</glyph>
<glyph name="three" format="1">
  <advance width="321"/>
  <unicode hex="0033"/>
  <outline>
    <contour>
      <point x="109" y="-38" type="curve" smooth="yes"/>
      <point x="197" y="-38"/>
      <point x="283" y="43"/>
      <point x="283" y="177" type="curve" smooth="yes"/>
      <point x="283" y="254"/>
      <point x="236" y="320"/>
      <point x="180" y="320" type="curve" smooth="yes"/>
      <point x="176" y="320"/>
      <point x="176" y="324"/>
      <point x="179" y="326" type="curve"/>
      <point x="230" y="365"/>
      <point x="252" y="414"/>
      <point x="252" y="457" type="curve" smooth="yes"/>
      <point x="252" y="518"/>
      <point x="211" y="559"/>
      <point x="162" y="559" type="curve" smooth="yes"/>
      <point x="81" y="559"/>
      <point x="43" y="470"/>
      <point x="43" y="431" type="curve" smooth="yes"/>
      <point x="43" y="423"/>
      <point x="47" y="419"/>
      <point x="51" y="419" type="curve" smooth="yes"/>
      <point x="57" y="419"/>
      <point x="66" y="503"/>
      <point x="122" y="503" type="curve" smooth="yes"/>
      <point x="156" y="503"/>
      <point x="169" y="465"/>
      <point x="169" y="417" type="curve" smooth="yes"/>
      <point x="169" y="346"/>
      <point x="134" y="303"/>
      <point x="111" y="289" type="curve" smooth="yes"/>
      <point x="104" y="283"/>
      <point x="95" y="274"/>
      <point x="96" y="262" type="curve" smooth="yes"/>
      <point x="96" y="256"/>
      <point x="98" y="253"/>
      <point x="104" y="258" type="curve" smooth="yes"/>
      <point x="114" y="269"/>
      <point x="129" y="275"/>
      <point x="136" y="275" type="curve" smooth="yes"/>
      <point x="175" y="275"/>
      <point x="199" y="204"/>
      <point x="199" y="136" type="curve" smooth="yes"/>
      <point x="199" y="54"/>
      <point x="172" y="-12"/>
      <point x="121" y="-12" type="curve" smooth="yes"/>
      <point x="101" y="-12"/>
      <point x="94" y="10"/>
      <point x="83" y="26" type="curve" smooth="yes"/>
      <point x="75" y="38"/>
      <point x="66" y="49"/>
      <point x="55" y="49" type="curve" smooth="yes"/>
      <point x="46" y="51"/>
      <point x="27" y="24"/>
      <point x="27" y="10" type="curve" smooth="yes"/>
      <point x="27" y="-8"/>
      <point x="78" y="-38"/>
    </contour>
  </outline>
</glyph>
<glyph name="four" format="1">
  <advance width="321"/>
  <unicode hex="0034"/>
  <outline>
    <contour>
      <point x="119" y="-3" type="curve" smooth="yes"/>
      <point x="149" y="-3"/>
      <point x="179" y="2"/>
      <point x="207" y="2" type="curve" smooth="yes"/>
      <point x="247" y="2"/>
      <point x="262" y="-5"/>
      <point x="287" y="-5" type="curve" smooth="yes"/>
      <point x="295" y="-5"/>
      <point x="298" y="1"/>
      <point x="298" y="4" type="curve" smooth="yes"/>
      <point x="298" y="8"/>
      <point x="293" y="11"/>
      <point x="288" y="12" type="curve" smooth="yes"/>
      <point x="261" y="15"/>
      <point x="247" y="28"/>
      <point x="247" y="61" type="curve" smooth="yes"/>
      <point x="247" y="160" type="line" smooth="yes"/>
      <point x="247" y="162"/>
      <point x="249" y="164"/>
      <point x="251" y="166" type="curve"/>
      <point x="254" y="167"/>
      <point x="258" y="168"/>
      <point x="264" y="168" type="curve" smooth="yes"/>
      <point x="271" y="168"/>
      <point x="279" y="167"/>
      <point x="285" y="167" type="curve" smooth="yes"/>
      <point x="286" y="167"/>
      <point x="294" y="174"/>
      <point x="294" y="190" type="curve" smooth="yes"/>
      <point x="294" y="197"/>
      <point x="292" y="201"/>
      <point x="289" y="201" type="curve"/>
      <point x="282" y="201"/>
      <point x="276" y="200"/>
      <point x="270" y="200" type="curve" smooth="yes"/>
      <point x="264" y="200"/>
      <point x="258" y="200"/>
      <point x="252" y="200" type="curve"/>
      <point x="250" y="200"/>
      <point x="248" y="203"/>
      <point x="248" y="206" type="curve" smooth="yes"/>
      <point x="248" y="268" type="line" smooth="yes"/>
      <point x="248" y="310"/>
      <point x="248" y="332"/>
      <point x="241" y="332" type="curve" smooth="yes"/>
      <point x="238" y="332"/>
      <point x="182" y="330"/>
      <point x="171" y="319" type="curve"/>
      <point x="167" y="315"/>
      <point x="167" y="311"/>
      <point x="167" y="297" type="curve" smooth="yes"/>
      <point x="167" y="209" type="line" smooth="yes"/>
      <point x="167" y="205"/>
      <point x="162" y="201"/>
      <point x="160" y="201" type="curve" smooth="yes"/>
      <point x="62" y="201" type="line" smooth="yes"/>
      <point x="60" y="201"/>
      <point x="60" y="207"/>
      <point x="62" y="210" type="curve" smooth="yes"/>
      <point x="218" y="558" type="line"/>
      <point x="224" y="564"/>
      <point x="221" y="569"/>
      <point x="217" y="569" type="curve" smooth="yes"/>
      <point x="206" y="569" type="line" smooth="yes"/>
      <point x="203" y="569"/>
      <point x="200" y="558"/>
      <point x="194" y="546" type="curve" smooth="yes"/>
      <point x="49" y="211" type="line" smooth="yes"/>
      <point x="40" y="194"/>
      <point x="36" y="189"/>
      <point x="32" y="170" type="curve"/>
      <point x="32" y="169"/>
      <point x="32" y="168"/>
      <point x="32" y="167" type="curve" smooth="yes"/>
      <point x="32" y="163"/>
      <point x="34" y="157"/>
      <point x="37" y="157" type="curve" smooth="yes"/>
      <point x="77" y="156"/>
      <point x="119" y="164"/>
      <point x="159" y="164" type="curve" smooth="yes"/>
      <point x="159" y="164"/>
      <point x="167" y="161"/>
      <point x="167" y="155" type="curve" smooth="yes"/>
      <point x="167" y="59" type="line" smooth="yes"/>
      <point x="167" y="31"/>
      <point x="155" y="15"/>
      <point x="119" y="13" type="curve" smooth="yes"/>
      <point x="115" y="13"/>
      <point x="110" y="10"/>
      <point x="110" y="5" type="curve" smooth="yes"/>
      <point x="110" y="0"/>
      <point x="116" y="-3"/>
    </contour>
  </outline>
</glyph>
<glyph name="five" format="1">
  <advance width="321"/>
  <unicode hex="0035"/>
  <outline>
    <contour>
      <point x="81" y="-38" type="curve" smooth="yes"/>
      <point x="123" y="-38"/>
      <point x="162" y="-22"/>
      <point x="193" y="5" type="curve" smooth="yes"/>
      <point x="237" y="43"/>
      <point x="265" y="104"/>
      <point x="265" y="170" type="curve" smooth="yes"/>
      <point x="265" y="242"/>
      <point x="241" y="285"/>
      <point x="197" y="320" type="curve" smooth="yes"/>
      <point x="169" y="341"/>
      <point x="134" y="358"/>
      <point x="91" y="377" type="curve" smooth="yes"/>
      <point x="83" y="380"/>
      <point x="82" y="386"/>
      <point x="82" y="394" type="curve"/>
      <point x="83" y="408"/>
      <point x="98" y="452"/>
      <point x="111" y="455" type="curve" smooth="yes"/>
      <point x="127" y="459"/>
      <point x="183" y="465"/>
      <point x="212" y="472" type="curve" smooth="yes"/>
      <point x="221" y="474"/>
      <point x="227" y="484"/>
      <point x="232" y="503" type="curve" smooth="yes"/>
      <point x="235" y="514"/>
      <point x="239" y="525"/>
      <point x="242" y="536" type="curve" smooth="yes"/>
      <point x="245" y="545"/>
      <point x="241" y="553"/>
      <point x="230" y="552" type="curve" smooth="yes"/>
      <point x="189" y="549"/>
      <point x="152" y="541"/>
      <point x="118" y="527" type="curve" smooth="yes"/>
      <point x="107" y="523"/>
      <point x="98" y="513"/>
      <point x="93" y="495" type="curve" smooth="yes"/>
      <point x="81" y="456"/>
      <point x="63" y="385"/>
      <point x="63" y="352" type="curve" smooth="yes"/>
      <point x="63" y="336"/>
      <point x="68" y="316"/>
      <point x="76" y="305" type="curve"/>
      <point x="158" y="268"/>
      <point x="187" y="232"/>
      <point x="187" y="152" type="curve" smooth="yes"/>
      <point x="187" y="67"/>
      <point x="174" y="-1"/>
      <point x="79" y="-24" type="curve" smooth="yes"/>
      <point x="69" y="-26"/>
      <point x="61" y="-27"/>
      <point x="61" y="-31" type="curve" smooth="yes"/>
      <point x="61" y="-35"/>
      <point x="72" y="-38"/>
    </contour>
  </outline>
</glyph>
<glyph name="six" format="1">
  <advance width="321"/>
  <unicode hex="0036"/>
  <outline>
    <contour>
      <point x="178" y="-16" type="curve" smooth="yes"/>
      <point x="237" y="-16"/>
      <point x="302" y="57"/>
      <point x="302" y="168" type="curve" smooth="yes"/>
      <point x="302" y="233"/>
      <point x="264" y="279"/>
      <point x="222" y="279" type="curve" smooth="yes"/>
      <point x="205" y="279"/>
      <point x="189" y="272"/>
      <point x="165" y="254" type="curve" smooth="yes"/>
      <point x="157" y="248"/>
      <point x="146" y="239"/>
      <point x="142" y="233" type="curve" smooth="yes"/>
      <point x="135" y="224"/>
      <point x="141" y="217"/>
      <point x="150" y="224" type="curve" smooth="yes"/>
      <point x="161" y="235"/>
      <point x="178" y="245"/>
      <point x="185" y="245" type="curve" smooth="yes"/>
      <point x="212" y="245"/>
      <point x="224" y="190"/>
      <point x="224" y="124" type="curve" smooth="yes"/>
      <point x="224" y="41"/>
      <point x="203" y="3"/>
      <point x="174" y="4" type="curve" smooth="yes"/>
      <point x="151" y="5"/>
      <point x="120" y="60"/>
      <point x="119" y="161" type="curve" smooth="yes"/>
      <point x="117" y="267"/>
      <point x="140" y="379"/>
      <point x="191" y="448" type="curve" smooth="yes"/>
      <point x="212" y="497"/>
      <point x="242" y="528"/>
      <point x="272" y="556" type="curve" smooth="yes"/>
      <point x="276" y="559"/>
      <point x="284" y="563"/>
      <point x="283" y="569" type="curve" smooth="yes"/>
      <point x="283" y="572"/>
      <point x="280" y="577"/>
      <point x="265" y="570" type="curve" smooth="yes"/>
      <point x="229" y="549"/>
      <point x="191" y="506"/>
      <point x="158" y="468" type="curve" smooth="yes"/>
      <point x="81" y="404"/>
      <point x="33" y="301"/>
      <point x="33" y="171" type="curve" smooth="yes"/>
      <point x="33" y="46"/>
      <point x="105" y="-16"/>
    </contour>
  </outline>
</glyph>
<glyph name="seven" format="1">
  <advance width="321"/>
  <unicode hex="0037"/>
  <outline>
    <contour>
      <point x="91" y="-32" type="curve" smooth="yes"/>
      <point x="95" y="-32"/>
      <point x="106" y="-20"/>
      <point x="109" y="-8" type="curve" smooth="yes"/>
      <point x="274" y="473" type="line" smooth="yes"/>
      <point x="279" y="488"/>
      <point x="295" y="525"/>
      <point x="295" y="539" type="curve" smooth="yes"/>
      <point x="295" y="544"/>
      <point x="294" y="551"/>
      <point x="292" y="551" type="curve" smooth="yes"/>
      <point x="281" y="551"/>
      <point x="219" y="546"/>
      <point x="165" y="546" type="curve" smooth="yes"/>
      <point x="140" y="546"/>
      <point x="127" y="547"/>
      <point x="111" y="547" type="curve" smooth="yes"/>
      <point x="88" y="547"/>
      <point x="67" y="555"/>
      <point x="64" y="555" type="curve" smooth="yes"/>
      <point x="63" y="555"/>
      <point x="59" y="553"/>
      <point x="59" y="545" type="curve" smooth="yes"/>
      <point x="59" y="523"/>
      <point x="54" y="472"/>
      <point x="50" y="446" type="curve"/>
      <point x="49" y="442"/>
      <point x="48" y="433"/>
      <point x="48" y="427" type="curve" smooth="yes"/>
      <point x="48" y="421"/>
      <point x="48" y="414"/>
      <point x="52" y="414" type="curve" smooth="yes"/>
      <point x="57" y="414"/>
      <point x="61" y="420"/>
      <point x="65" y="436" type="curve" smooth="yes"/>
      <point x="72" y="470"/>
      <point x="84" y="480"/>
      <point x="95" y="480" type="curve" smooth="yes"/>
      <point x="275" y="480" type="line"/>
      <point x="263" y="508" type="line"/>
      <point x="97" y="27" type="line" smooth="yes"/>
      <point x="92" y="13"/>
      <point x="77" y="-17"/>
      <point x="77" y="-20" type="curve" smooth="yes"/>
      <point x="77" y="-27"/>
      <point x="81" y="-32"/>
    </contour>
  </outline>
</glyph>
<glyph name="eight" format="1">
  <advance width="321"/>
  <unicode hex="0038"/>
  <outline>
    <contour>
      <point x="154" y="-14" type="curve" smooth="yes"/>
      <point x="227" y="-14"/>
      <point x="300" y="53"/>
      <point x="300" y="146" type="curve" smooth="yes"/>
      <point x="300" y="216"/>
      <point x="263" y="255"/>
      <point x="209" y="305" type="curve" smooth="yes"/>
      <point x="202" y="312"/>
      <point x="202" y="314"/>
      <point x="214" y="324" type="curve" smooth="yes"/>
      <point x="228" y="337"/>
      <point x="235" y="341"/>
      <point x="246" y="354" type="curve" smooth="yes"/>
      <point x="265" y="373"/>
      <point x="286" y="399"/>
      <point x="286" y="439" type="curve" smooth="yes"/>
      <point x="286" y="512"/>
      <point x="227" y="559"/>
      <point x="167" y="559" type="curve" smooth="yes"/>
      <point x="102" y="559"/>
      <point x="34" y="503"/>
      <point x="34" y="430" type="curve" smooth="yes"/>
      <point x="34" y="358"/>
      <point x="68" y="314"/>
      <point x="114" y="272" type="curve" smooth="yes"/>
      <point x="121" y="266"/>
      <point x="125" y="265"/>
      <point x="117" y="260" type="curve" smooth="yes"/>
      <point x="78" y="237"/>
      <point x="22" y="202"/>
      <point x="22" y="124" type="curve" smooth="yes"/>
      <point x="22" y="42"/>
      <point x="84" y="-14"/>
    </contour>
    <contour>
      <point x="163" y="4" type="curve" smooth="yes"/>
      <point x="124" y="4"/>
      <point x="102" y="68"/>
      <point x="102" y="132" type="curve" smooth="yes"/>
      <point x="102" y="189"/>
      <point x="106" y="209"/>
      <point x="130" y="240" type="curve" smooth="yes"/>
      <point x="133" y="244"/>
      <point x="136" y="246"/>
      <point x="137" y="246" type="curve" smooth="yes"/>
      <point x="141" y="246"/>
      <point x="143" y="242"/>
      <point x="149" y="236" type="curve"/>
      <point x="183" y="204"/>
      <point x="220" y="158"/>
      <point x="220" y="102" type="curve" smooth="yes"/>
      <point x="220" y="49"/>
      <point x="196" y="4"/>
    </contour>
    <contour>
      <point x="189" y="338" type="curve"/>
      <point x="183" y="333"/>
      <point x="179" y="334"/>
      <point x="175" y="338" type="curve"/>
      <point x="132" y="379"/>
      <point x="110" y="386"/>
      <point x="110" y="456" type="curve" smooth="yes"/>
      <point x="110" y="504"/>
      <point x="139" y="543"/>
      <point x="163" y="543" type="curve" smooth="yes"/>
      <point x="194" y="543"/>
      <point x="212" y="500"/>
      <point x="212" y="448" type="curve" smooth="yes"/>
      <point x="212" y="397"/>
      <point x="209" y="370"/>
    </contour>
  </outline>
</glyph>
<glyph name="less" format="1">
  <advance width="353"/>
  <unicode hex="003C"/>
  <outline>
    <contour>
      <point x="309" y="103" type="line" smooth="yes"/>
      <point x="314" y="101"/>
      <point x="323" y="101"/>
      <point x="323" y="109" type="curve" smooth="yes"/>
      <point x="323" y="115"/>
      <point x="320" y="138"/>
      <point x="307" y="141" type="curve" smooth="yes"/>
      <point x="82" y="230" type="line"/>
      <point x="79" y="231"/>
      <point x="79" y="232"/>
      <point x="81" y="232" type="curve"/>
      <point x="303" y="334" type="line" smooth="yes"/>
      <point x="317" y="340"/>
      <point x="324" y="360"/>
      <point x="324" y="368" type="curve" smooth="yes"/>
      <point x="324" y="372"/>
      <point x="322" y="374"/>
      <point x="318" y="374" type="curve" smooth="yes"/>
      <point x="317" y="374"/>
      <point x="315" y="372"/>
      <point x="313" y="372" type="curve" smooth="yes"/>
      <point x="51" y="255" type="line" smooth="yes"/>
      <point x="37" y="250"/>
      <point x="29" y="231"/>
      <point x="29" y="225" type="curve" smooth="yes"/>
      <point x="29" y="221"/>
      <point x="44" y="211"/>
      <point x="56" y="207" type="curve" smooth="yes"/>
    </contour>
  </outline>
</glyph>
<glyph name="equal" format="1">
  <advance width="323"/>
  <unicode hex="003D"/>
  <outline>
    <contour>
      <point x="42" y="315" type="curve" smooth="yes"/>
      <point x="265" y="315" type="line" smooth="yes"/>
      <point x="285" y="315"/>
      <point x="296" y="333"/>
      <point x="296" y="343" type="curve" smooth="yes"/>
      <point x="296" y="346"/>
      <point x="290" y="347"/>
      <point x="283" y="347" type="curve" smooth="yes"/>
      <point x="52" y="347" type="line" smooth="yes"/>
      <point x="34" y="347"/>
      <point x="28" y="326"/>
      <point x="28" y="321" type="curve" smooth="yes"/>
      <point x="28" y="318"/>
      <point x="35" y="315"/>
    </contour>
    <contour>
      <point x="42" y="143" type="curve" smooth="yes"/>
      <point x="265" y="143" type="line" smooth="yes"/>
      <point x="285" y="143"/>
      <point x="296" y="163"/>
      <point x="296" y="171" type="curve" smooth="yes"/>
      <point x="296" y="174"/>
      <point x="290" y="176"/>
      <point x="283" y="176" type="curve" smooth="yes"/>
      <point x="52" y="176" type="line" smooth="yes"/>
      <point x="34" y="176"/>
      <point x="28" y="154"/>
      <point x="28" y="149" type="curve" smooth="yes"/>
      <point x="28" y="146"/>
      <point x="35" y="143"/>
    </contour>
  </outline>
</glyph>
<glyph name="question" format="1">
  <advance width="246"/>
  <unicode hex="003F"/>
  <outline>
    <contour>
      <point x="90" y="181" type="curve" smooth="yes"/>
      <point x="93" y="181"/>
      <point x="96" y="195"/>
      <point x="98" y="204" type="curve" smooth="yes"/>
      <point x="107" y="248"/>
      <point x="115" y="275"/>
      <point x="141" y="300" type="curve" smooth="yes"/>
      <point x="155" y="311"/>
      <point x="162" y="319"/>
      <point x="178" y="331" type="curve" smooth="yes"/>
      <point x="193" y="343"/>
      <point x="204" y="369"/>
      <point x="204" y="418" type="curve" smooth="yes"/>
      <point x="204" y="469"/>
      <point x="178" y="552"/>
      <point x="143" y="608" type="curve" smooth="yes"/>
      <point x="119" y="641"/>
      <point x="94" y="661"/>
      <point x="72" y="661" type="curve" smooth="yes"/>
      <point x="58" y="661"/>
      <point x="42" y="646"/>
      <point x="42" y="623" type="curve" smooth="yes"/>
      <point x="42" y="591"/>
      <point x="53" y="569"/>
      <point x="68" y="569" type="curve" smooth="yes"/>
      <point x="74" y="569"/>
      <point x="79" y="570"/>
      <point x="82" y="571" type="curve" smooth="yes"/>
      <point x="87" y="572"/>
      <point x="91" y="573"/>
      <point x="96" y="573" type="curve" smooth="yes"/>
      <point x="152" y="572"/>
      <point x="177" y="534"/>
      <point x="177" y="488" type="curve" smooth="yes"/>
      <point x="177" y="457"/>
      <point x="160" y="421"/>
      <point x="129" y="395" type="curve" smooth="yes"/>
      <point x="78" y="350"/>
      <point x="58" y="326"/>
      <point x="58" y="295" type="curve" smooth="yes"/>
      <point x="58" y="250"/>
      <point x="72" y="230"/>
      <point x="77" y="209" type="curve" smooth="yes"/>
      <point x="81" y="193"/>
      <point x="85" y="181"/>
    </contour>
    <contour>
      <point x="109" y="-14" type="curve" smooth="yes"/>
      <point x="142" y="-14"/>
      <point x="169" y="13"/>
      <point x="169" y="46" type="curve" smooth="yes"/>
      <point x="169" y="79"/>
      <point x="142" y="106"/>
      <point x="109" y="106" type="curve" smooth="yes"/>
      <point x="76" y="106"/>
      <point x="49" y="79"/>
      <point x="49" y="46" type="curve" smooth="yes"/>
      <point x="49" y="13"/>
      <point x="76" y="-14"/>
    </contour>
  </outline>
</glyph>
<glyph name="at" format="1">
  <advance width="448"/>
  <unicode hex="0040"/>
  <outline>
    <contour>
      <point x="220" y="-144" type="curve" smooth="yes"/>
      <point x="285" y="-144"/>
      <point x="368" y="-59"/>
      <point x="377" y="-19" type="curve" smooth="yes"/>
      <point x="380" y="-10"/>
      <point x="377" y="-8"/>
      <point x="372" y="-8" type="curve" smooth="yes"/>
      <point x="371" y="-8"/>
      <point x="367" y="-13"/>
      <point x="363" y="-20" type="curve" smooth="yes"/>
      <point x="314" y="-89"/>
      <point x="260" y="-122"/>
      <point x="226" y="-122" type="curve" smooth="yes"/>
      <point x="145" y="-122"/>
      <point x="60" y="-20"/>
      <point x="60" y="205" type="curve" smooth="yes"/>
      <point x="60" y="413"/>
      <point x="144" y="534"/>
      <point x="235" y="534" type="curve" smooth="yes"/>
      <point x="340" y="534"/>
      <point x="382" y="418"/>
      <point x="382" y="253" type="curve" smooth="yes"/>
      <point x="382" y="151"/>
      <point x="350" y="83"/>
      <point x="310" y="83" type="curve" smooth="yes"/>
      <point x="302" y="83"/>
      <point x="295" y="97"/>
      <point x="295" y="113" type="curve" smooth="yes"/>
      <point x="295" y="123"/>
      <point x="294" y="134"/>
      <point x="295" y="143" type="curve"/>
      <point x="308" y="298" type="line" smooth="yes"/>
      <point x="309" y="316"/>
      <point x="316" y="360"/>
      <point x="321" y="386" type="curve"/>
      <point x="322" y="390"/>
      <point x="311" y="393"/>
      <point x="309" y="393" type="curve" smooth="yes"/>
      <point x="307" y="393"/>
      <point x="304" y="372"/>
      <point x="290" y="372" type="curve" smooth="yes"/>
      <point x="284" y="372"/>
      <point x="277" y="378"/>
      <point x="269" y="382" type="curve" smooth="yes"/>
      <point x="262" y="386"/>
      <point x="250" y="389"/>
      <point x="240" y="389" type="curve" smooth="yes"/>
      <point x="176" y="389"/>
      <point x="117" y="304"/>
      <point x="117" y="171" type="curve" smooth="yes"/>
      <point x="117" y="94"/>
      <point x="147" y="51"/>
      <point x="186" y="51" type="curve" smooth="yes"/>
      <point x="224" y="51"/>
      <point x="242" y="90"/>
      <point x="248" y="90" type="curve" smooth="yes"/>
      <point x="258" y="90"/>
      <point x="261" y="51"/>
      <point x="299" y="51" type="curve" smooth="yes"/>
      <point x="347" y="51"/>
      <point x="407" y="123"/>
      <point x="407" y="261" type="curve" smooth="yes"/>
      <point x="407" y="436"/>
      <point x="346" y="557"/>
      <point x="247" y="557" type="curve" smooth="yes"/>
      <point x="133" y="557"/>
      <point x="36" y="434"/>
      <point x="36" y="198" type="curve" smooth="yes"/>
      <point x="36" y="-15"/>
      <point x="110" y="-144"/>
    </contour>
    <contour>
      <point x="211" y="74" type="curve" smooth="yes"/>
      <point x="197" y="74"/>
      <point x="184" y="100"/>
      <point x="185" y="189" type="curve" smooth="yes"/>
      <point x="188" y="308"/>
      <point x="212" y="370"/>
      <point x="232" y="370" type="curve" smooth="yes"/>
      <point x="248" y="370"/>
      <point x="258" y="348"/>
      <point x="258" y="303" type="curve" smooth="yes"/>
      <point x="258" y="298"/>
      <point x="258" y="293"/>
      <point x="258" y="288" type="curve"/>
      <point x="246" y="160" type="line" smooth="yes"/>
      <point x="243" y="123"/>
      <point x="238" y="111"/>
      <point x="234" y="100" type="curve" smooth="yes"/>
      <point x="227" y="84"/>
      <point x="220" y="74"/>
    </contour>
  </outline>
</glyph>
<glyph name="A" format="1">
  <advance width="430"/>
  <unicode hex="0041"/>
  <outline>
    <contour>
      <point x="11" y="-5" type="curve" smooth="yes"/>
      <point x="24" y="-5"/>
      <point x="64" y="-2"/>
      <point x="92" y="-2" type="curve" smooth="yes"/>
      <point x="76" y="-2"/>
      <point x="101" y="-3"/>
      <point x="107" y="-3" type="curve" smooth="yes"/>
      <point x="115" y="-3"/>
      <point x="120" y="-1"/>
      <point x="120" y="3" type="curve" smooth="yes"/>
      <point x="120" y="8"/>
      <point x="114" y="11"/>
      <point x="108" y="14" type="curve" smooth="yes"/>
      <point x="90" y="19"/>
      <point x="80" y="31"/>
      <point x="80" y="54" type="curve" smooth="yes"/>
      <point x="80" y="83"/>
      <point x="115" y="191"/>
      <point x="119" y="212" type="curve" smooth="yes"/>
      <point x="121" y="225"/>
      <point x="125" y="228"/>
      <point x="128" y="228" type="curve" smooth="yes"/>
      <point x="249" y="228" type="line" smooth="yes"/>
      <point x="258" y="228"/>
      <point x="261" y="227"/>
      <point x="262" y="219" type="curve" smooth="yes"/>
      <point x="268" y="177"/>
      <point x="286" y="85"/>
      <point x="286" y="61" type="curve" smooth="yes"/>
      <point x="286" y="39"/>
      <point x="277" y="22"/>
      <point x="255" y="16" type="curve" smooth="yes"/>
      <point x="244" y="14"/>
      <point x="234" y="10"/>
      <point x="234" y="5" type="curve" smooth="yes"/>
      <point x="234" y="0"/>
      <point x="243" y="-2"/>
      <point x="253" y="-2" type="curve" smooth="yes"/>
      <point x="269" y="-2"/>
      <point x="296" y="-1"/>
      <point x="325" y="-1" type="curve" smooth="yes"/>
      <point x="354" y="-1"/>
      <point x="398" y="-5"/>
      <point x="416" y="-5" type="curve" smooth="yes"/>
      <point x="428" y="-5"/>
      <point x="435" y="-4"/>
      <point x="435" y="1" type="curve" smooth="yes"/>
      <point x="435" y="6"/>
      <point x="428" y="11"/>
      <point x="419" y="14" type="curve" smooth="yes"/>
      <point x="396" y="19"/>
      <point x="376" y="34"/>
      <point x="358" y="114" type="curve" smooth="yes"/>
      <point x="340" y="199"/>
      <point x="298" y="409"/>
      <point x="263" y="589" type="curve" smooth="yes"/>
      <point x="262" y="596"/>
      <point x="260" y="605"/>
      <point x="255" y="610" type="curve"/>
      <point x="253" y="612"/>
      <point x="250" y="611"/>
      <point x="249" y="610" type="curve"/>
      <point x="244" y="603"/>
      <point x="237" y="587"/>
      <point x="219" y="580" type="curve" smooth="yes"/>
      <point x="203" y="573"/>
      <point x="190" y="570"/>
      <point x="175" y="567" type="curve"/>
      <point x="173" y="550"/>
      <point x="170" y="534"/>
      <point x="166" y="517" type="curve" smooth="yes"/>
      <point x="129" y="352"/>
      <point x="101" y="237"/>
      <point x="67" y="97" type="curve" smooth="yes"/>
      <point x="47" y="32"/>
      <point x="32" y="21"/>
      <point x="16" y="17" type="curve" smooth="yes"/>
      <point x="4" y="14"/>
      <point x="-2" y="9"/>
      <point x="-2" y="2" type="curve" smooth="yes"/>
      <point x="-2" y="-2"/>
      <point x="3" y="-5"/>
    </contour>
    <contour>
      <point x="140" y="247" type="line" smooth="yes"/>
      <point x="133" y="247"/>
      <point x="128" y="247"/>
      <point x="128" y="253" type="curve" smooth="yes"/>
      <point x="128" y="255"/>
      <point x="129" y="258"/>
      <point x="129" y="260" type="curve"/>
      <point x="192" y="509" type="line" smooth="yes"/>
      <point x="195" y="519"/>
      <point x="196" y="524"/>
      <point x="197" y="524" type="curve" smooth="yes"/>
      <point x="199" y="524"/>
      <point x="200" y="519"/>
      <point x="202" y="508" type="curve" smooth="yes"/>
      <point x="254" y="260" type="line"/>
      <point x="254" y="257"/>
      <point x="255" y="253"/>
      <point x="255" y="251" type="curve" smooth="yes"/>
      <point x="255" y="247"/>
      <point x="253" y="247"/>
      <point x="248" y="247" type="curve" smooth="yes"/>
    </contour>
  </outline>
</glyph>
<glyph name="B" format="1">
  <advance width="375"/>
  <unicode hex="0042"/>
  <outline>
    <contour>
      <point x="27" y="-3" type="curve" smooth="yes"/>
      <point x="65" y="-3"/>
      <point x="79" y="2"/>
      <point x="115" y="2" type="curve" smooth="yes"/>
      <point x="144" y="2"/>
      <point x="173" y="-2"/>
      <point x="186" y="-2" type="curve" smooth="yes"/>
      <point x="232" y="-2"/>
      <point x="263" y="10"/>
      <point x="288" y="28" type="curve" smooth="yes"/>
      <point x="313" y="47"/>
      <point x="351" y="75"/>
      <point x="351" y="172" type="curve" smooth="yes"/>
      <point x="351" y="256"/>
      <point x="304" y="299"/>
      <point x="220" y="314" type="curve" smooth="yes"/>
      <point x="216" y="314"/>
      <point x="216" y="318"/>
      <point x="220" y="320" type="curve" smooth="yes"/>
      <point x="242" y="323"/>
      <point x="274" y="337"/>
      <point x="293" y="355" type="curve" smooth="yes"/>
      <point x="316" y="381"/>
      <point x="327" y="410"/>
      <point x="327" y="446" type="curve" smooth="yes"/>
      <point x="327" y="528"/>
      <point x="275" y="577"/>
      <point x="187" y="577" type="curve" smooth="yes"/>
      <point x="153" y="577"/>
      <point x="131" y="573"/>
      <point x="103" y="573" type="curve" smooth="yes"/>
      <point x="75" y="573"/>
      <point x="69" y="574"/>
      <point x="33" y="574" type="curve" smooth="yes"/>
      <point x="24" y="574"/>
      <point x="17" y="573"/>
      <point x="17" y="569" type="curve" smooth="yes"/>
      <point x="17" y="565"/>
      <point x="22" y="560"/>
      <point x="36" y="560" type="curve" smooth="yes"/>
      <point x="65" y="558"/>
      <point x="72" y="547"/>
      <point x="72" y="509" type="curve" smooth="yes"/>
      <point x="72" y="77" type="line" smooth="yes"/>
      <point x="72" y="32"/>
      <point x="63" y="19"/>
      <point x="30" y="14" type="curve" smooth="yes"/>
      <point x="17" y="12"/>
      <point x="11" y="9"/>
      <point x="11" y="4" type="curve" smooth="yes"/>
      <point x="11" y="-1"/>
      <point x="17" y="-3"/>
    </contour>
    <contour>
      <point x="185" y="18" type="curve" smooth="yes"/>
      <point x="163" y="18"/>
      <point x="150" y="36"/>
      <point x="150" y="90" type="curve" smooth="yes"/>
      <point x="150" y="268" type="line" smooth="yes"/>
      <point x="150" y="284"/>
      <point x="157" y="307"/>
      <point x="175" y="307" type="curve" smooth="yes"/>
      <point x="202" y="307"/>
      <point x="223" y="299"/>
      <point x="238" y="281" type="curve" smooth="yes"/>
      <point x="256" y="261"/>
      <point x="259" y="225"/>
      <point x="259" y="161" type="curve" smooth="yes"/>
      <point x="259" y="58"/>
      <point x="225" y="18"/>
    </contour>
    <contour>
      <point x="170" y="323" type="curve" smooth="yes"/>
      <point x="163" y="323"/>
      <point x="150" y="326"/>
      <point x="150" y="360" type="curve" smooth="yes"/>
      <point x="150" y="512" type="line" smooth="yes"/>
      <point x="150" y="545"/>
      <point x="155" y="561"/>
      <point x="179" y="561" type="curve" smooth="yes"/>
      <point x="225" y="561"/>
      <point x="241" y="524"/>
      <point x="241" y="437" type="curve" smooth="yes"/>
      <point x="241" y="386"/>
      <point x="239" y="358"/>
      <point x="226" y="344" type="curve" smooth="yes"/>
      <point x="217" y="326"/>
      <point x="199" y="323"/>
    </contour>
  </outline>
</glyph>
<glyph name="C" format="1">
  <advance width="400"/>
  <unicode hex="0043"/>
  <outline>
    <contour>
      <point x="233" y="-13" type="curve" smooth="yes"/>
      <point x="270" y="-13"/>
      <point x="311" y="-4"/>
      <point x="338" y="16" type="curve" smooth="yes"/>
      <point x="349" y="23"/>
      <point x="350" y="24"/>
      <point x="356" y="43" type="curve" smooth="yes"/>
      <point x="362" y="72"/>
      <point x="371" y="124"/>
      <point x="371" y="140" type="curve" smooth="yes"/>
      <point x="371" y="157"/>
      <point x="348" y="159"/>
      <point x="344" y="140" type="curve" smooth="yes"/>
      <point x="318" y="45"/>
      <point x="295" y="6"/>
      <point x="246" y="6" type="curve" smooth="yes"/>
      <point x="174" y="6"/>
      <point x="126" y="110"/>
      <point x="126" y="307" type="curve" smooth="yes"/>
      <point x="126" y="442"/>
      <point x="165" y="567"/>
      <point x="243" y="567" type="curve" smooth="yes"/>
      <point x="283" y="567"/>
      <point x="299" y="548"/>
      <point x="310" y="526" type="curve" smooth="yes"/>
      <point x="324" y="494"/>
      <point x="329" y="457"/>
      <point x="338" y="414" type="curve" smooth="yes"/>
      <point x="342" y="396"/>
      <point x="367" y="402"/>
      <point x="367" y="417" type="curve" smooth="yes"/>
      <point x="365" y="464"/>
      <point x="362" y="496"/>
      <point x="359" y="526" type="curve" smooth="yes"/>
      <point x="357" y="548"/>
      <point x="350" y="560"/>
      <point x="337" y="569" type="curve" smooth="yes"/>
      <point x="314" y="579"/>
      <point x="289" y="588"/>
      <point x="248" y="588" type="curve" smooth="yes"/>
      <point x="119" y="588"/>
      <point x="25" y="460"/>
      <point x="25" y="286" type="curve" smooth="yes"/>
      <point x="25" y="102"/>
      <point x="116" y="-13"/>
    </contour>
  </outline>
</glyph>
<glyph name="D" format="1">
  <advance width="414"/>
  <unicode hex="0044"/>
  <outline>
    <contour>
      <point x="203" y="-7" type="curve" smooth="yes"/>
      <point x="306" y="-7"/>
      <point x="391" y="132"/>
      <point x="391" y="302" type="curve" smooth="yes"/>
      <point x="391" y="458"/>
      <point x="332" y="584"/>
      <point x="185" y="584" type="curve" smooth="yes"/>
      <point x="170" y="584"/>
      <point x="116" y="576"/>
      <point x="92" y="576" type="curve" smooth="yes"/>
      <point x="66" y="576"/>
      <point x="59" y="578"/>
      <point x="29" y="578" type="curve" smooth="yes"/>
      <point x="20" y="578"/>
      <point x="13" y="575"/>
      <point x="13" y="570" type="curve" smooth="yes"/>
      <point x="13" y="564"/>
      <point x="17" y="562"/>
      <point x="28" y="560" type="curve" smooth="yes"/>
      <point x="57" y="555"/>
      <point x="58" y="544"/>
      <point x="58" y="502" type="curve" smooth="yes"/>
      <point x="58" y="92" type="line" smooth="yes"/>
      <point x="58" y="30"/>
      <point x="54" y="19"/>
      <point x="28" y="13" type="curve" smooth="yes"/>
      <point x="17" y="10"/>
      <point x="13" y="10"/>
      <point x="13" y="3" type="curve" smooth="yes"/>
      <point x="13" y="-3"/>
      <point x="20" y="-5"/>
      <point x="29" y="-5" type="curve" smooth="yes"/>
      <point x="61" y="-5"/>
      <point x="67" y="0"/>
      <point x="88" y="0" type="curve" smooth="yes"/>
      <point x="131" y="0"/>
      <point x="191" y="-7"/>
    </contour>
    <contour>
      <point x="196" y="14" type="curve" smooth="yes"/>
      <point x="167" y="14"/>
      <point x="138" y="27"/>
      <point x="138" y="112" type="curve" smooth="yes"/>
      <point x="138" y="502" type="line" smooth="yes"/>
      <point x="138" y="565"/>
      <point x="156" y="566"/>
      <point x="190" y="566" type="curve" smooth="yes"/>
      <point x="239" y="566"/>
      <point x="295" y="514"/>
      <point x="295" y="288" type="curve" smooth="yes"/>
      <point x="295" y="93"/>
      <point x="254" y="14"/>
    </contour>
  </outline>
</glyph>
<glyph name="E" format="1">
  <advance width="336"/>
  <unicode hex="0045"/>
  <outline>
    <contour>
      <point x="31" y="-5" type="curve" smooth="yes"/>
      <point x="65" y="-5"/>
      <point x="74" y="1"/>
      <point x="103" y="1" type="curve" smooth="yes"/>
      <point x="167" y="1"/>
      <point x="221" y="-5"/>
      <point x="302" y="-5" type="curve" smooth="yes"/>
      <point x="307" y="-5"/>
      <point x="308" y="3"/>
      <point x="310" y="12" type="curve" smooth="yes"/>
      <point x="315" y="39"/>
      <point x="327" y="110"/>
      <point x="327" y="128" type="curve" smooth="yes"/>
      <point x="327" y="136"/>
      <point x="324" y="142"/>
      <point x="318" y="142" type="curve" smooth="yes"/>
      <point x="313" y="142"/>
      <point x="308" y="138"/>
      <point x="305" y="127" type="curve" smooth="yes"/>
      <point x="292" y="81"/>
      <point x="285" y="54"/>
      <point x="274" y="38" type="curve" smooth="yes"/>
      <point x="263" y="23"/>
      <point x="248" y="18"/>
      <point x="226" y="18" type="curve" smooth="yes"/>
      <point x="190" y="18" type="line" smooth="yes"/>
      <point x="165" y="18"/>
      <point x="153" y="34"/>
      <point x="153" y="85" type="curve" smooth="yes"/>
      <point x="153" y="260" type="line" smooth="yes"/>
      <point x="153" y="283"/>
      <point x="160" y="286"/>
      <point x="172" y="286" type="curve" smooth="yes"/>
      <point x="219" y="286" type="line" smooth="yes"/>
      <point x="232" y="286"/>
      <point x="246" y="265"/>
      <point x="253" y="234" type="curve" smooth="yes"/>
      <point x="258" y="209"/>
      <point x="259" y="202"/>
      <point x="266" y="202" type="curve" smooth="yes"/>
      <point x="274" y="202"/>
      <point x="274" y="210"/>
      <point x="274" y="219" type="curve" smooth="yes"/>
      <point x="274" y="227"/>
      <point x="272" y="276"/>
      <point x="272" y="296" type="curve" smooth="yes"/>
      <point x="272" y="312"/>
      <point x="275" y="357"/>
      <point x="275" y="366" type="curve" smooth="yes"/>
      <point x="275" y="376"/>
      <point x="269" y="382"/>
      <point x="263" y="382" type="curve" smooth="yes"/>
      <point x="258" y="382"/>
      <point x="256" y="378"/>
      <point x="254" y="360" type="curve" smooth="yes"/>
      <point x="249" y="323"/>
      <point x="233" y="304"/>
      <point x="214" y="304" type="curve" smooth="yes"/>
      <point x="163" y="304" type="line" smooth="yes"/>
      <point x="157" y="304"/>
      <point x="153" y="314"/>
      <point x="153" y="326" type="curve" smooth="yes"/>
      <point x="153" y="531" type="line" smooth="yes"/>
      <point x="153" y="548"/>
      <point x="159" y="557"/>
      <point x="175" y="557" type="curve" smooth="yes"/>
      <point x="246" y="557" type="line" smooth="yes"/>
      <point x="256" y="557"/>
      <point x="264" y="550"/>
      <point x="271" y="523" type="curve" smooth="yes"/>
      <point x="274" y="511"/>
      <point x="283" y="487"/>
      <point x="289" y="463" type="curve" smooth="yes"/>
      <point x="292" y="453"/>
      <point x="298" y="451"/>
      <point x="301" y="451" type="curve" smooth="yes"/>
      <point x="304" y="451"/>
      <point x="309" y="454"/>
      <point x="309" y="466" type="curve" smooth="yes"/>
      <point x="309" y="493"/>
      <point x="305" y="531"/>
      <point x="301" y="565" type="curve"/>
      <point x="300" y="575"/>
      <point x="296" y="578"/>
      <point x="291" y="578" type="curve" smooth="yes"/>
      <point x="288" y="578"/>
      <point x="262" y="577"/>
      <point x="229" y="576" type="curve" smooth="yes"/>
      <point x="200" y="575"/>
      <point x="163" y="575"/>
      <point x="131" y="575" type="curve" smooth="yes"/>
      <point x="93" y="575"/>
      <point x="76" y="578"/>
      <point x="35" y="578" type="curve" smooth="yes"/>
      <point x="25" y="578"/>
      <point x="18" y="576"/>
      <point x="18" y="571" type="curve" smooth="yes"/>
      <point x="18" y="565"/>
      <point x="24" y="561"/>
      <point x="36" y="558" type="curve" smooth="yes"/>
      <point x="64" y="553"/>
      <point x="73" y="542"/>
      <point x="73" y="512" type="curve" smooth="yes"/>
      <point x="73" y="78" type="line" smooth="yes"/>
      <point x="73" y="33"/>
      <point x="67" y="20"/>
      <point x="32" y="14" type="curve" smooth="yes"/>
      <point x="20" y="12"/>
      <point x="15" y="8"/>
      <point x="15" y="2" type="curve" smooth="yes"/>
      <point x="15" y="-3"/>
      <point x="21" y="-5"/>
    </contour>
  </outline>
</glyph>
<glyph name="F" format="1">
  <advance width="314"/>
  <unicode hex="0046"/>
  <outline>
    <contour>
      <point x="30" y="-5" type="curve" smooth="yes"/>
      <point x="68" y="-5"/>
      <point x="84" y="0"/>
      <point x="118" y="2" type="curve" smooth="yes"/>
      <point x="143" y="0"/>
      <point x="148" y="-5"/>
      <point x="186" y="-5" type="curve" smooth="yes"/>
      <point x="197" y="-5"/>
      <point x="205" y="-3"/>
      <point x="205" y="2" type="curve" smooth="yes"/>
      <point x="205" y="8"/>
      <point x="200" y="12"/>
      <point x="187" y="14" type="curve" smooth="yes"/>
      <point x="160" y="20"/>
      <point x="152" y="37"/>
      <point x="151" y="71" type="curve" smooth="yes"/>
      <point x="150" y="151"/>
      <point x="150" y="207"/>
      <point x="150" y="253" type="curve" smooth="yes"/>
      <point x="150" y="270"/>
      <point x="155" y="277"/>
      <point x="162" y="278" type="curve" smooth="yes"/>
      <point x="174" y="280"/>
      <point x="182" y="280"/>
      <point x="195" y="280" type="curve" smooth="yes"/>
      <point x="203" y="280"/>
      <point x="221" y="279"/>
      <point x="229" y="279" type="curve" smooth="yes"/>
      <point x="241" y="279"/>
      <point x="244" y="269"/>
      <point x="251" y="234" type="curve" smooth="yes"/>
      <point x="254" y="219"/>
      <point x="258" y="209"/>
      <point x="265" y="209" type="curve" smooth="yes"/>
      <point x="269" y="209"/>
      <point x="273" y="217"/>
      <point x="273" y="226" type="curve"/>
      <point x="272" y="255"/>
      <point x="272" y="274"/>
      <point x="272" y="294" type="curve" smooth="yes"/>
      <point x="272" y="310"/>
      <point x="272" y="326"/>
      <point x="273" y="349" type="curve" smooth="yes"/>
      <point x="273" y="360"/>
      <point x="271" y="365"/>
      <point x="264" y="365" type="curve" smooth="yes"/>
      <point x="259" y="365"/>
      <point x="253" y="357"/>
      <point x="251" y="345" type="curve" smooth="yes"/>
      <point x="245" y="317"/>
      <point x="240" y="300"/>
      <point x="223" y="300" type="curve" smooth="yes"/>
      <point x="201" y="300"/>
      <point x="178" y="297"/>
      <point x="155" y="297" type="curve" smooth="yes"/>
      <point x="150" y="297"/>
      <point x="150" y="308"/>
      <point x="150" y="319" type="curve"/>
      <point x="149" y="343"/>
      <point x="149" y="358"/>
      <point x="149" y="392" type="curve" smooth="yes"/>
      <point x="149" y="427"/>
      <point x="149" y="482"/>
      <point x="150" y="507" type="curve" smooth="yes"/>
      <point x="150" y="533"/>
      <point x="151" y="557"/>
      <point x="168" y="557" type="curve" smooth="yes"/>
      <point x="235" y="557" type="line" smooth="yes"/>
      <point x="254" y="557"/>
      <point x="265" y="549"/>
      <point x="273" y="525" type="curve" smooth="yes"/>
      <point x="277" y="513"/>
      <point x="281" y="494"/>
      <point x="286" y="468" type="curve" smooth="yes"/>
      <point x="287" y="460"/>
      <point x="293" y="454"/>
      <point x="297" y="454" type="curve" smooth="yes"/>
      <point x="300" y="454"/>
      <point x="306" y="460"/>
      <point x="306" y="475" type="curve" smooth="yes"/>
      <point x="306" y="489"/>
      <point x="304" y="553"/>
      <point x="303" y="576" type="curve" smooth="yes"/>
      <point x="303" y="583"/>
      <point x="297" y="585"/>
      <point x="294" y="585" type="curve" smooth="yes"/>
      <point x="281" y="585"/>
      <point x="258" y="575"/>
      <point x="234" y="575" type="curve"/>
      <point x="206" y="575"/>
      <point x="176" y="575"/>
      <point x="149" y="575" type="curve" smooth="yes"/>
      <point x="102" y="575"/>
      <point x="82" y="578"/>
      <point x="34" y="578" type="curve" smooth="yes"/>
      <point x="25" y="578"/>
      <point x="17" y="576"/>
      <point x="17" y="571" type="curve" smooth="yes"/>
      <point x="17" y="565"/>
      <point x="23" y="561"/>
      <point x="36" y="558" type="curve" smooth="yes"/>
      <point x="63" y="553"/>
      <point x="70" y="534"/>
      <point x="70" y="490" type="curve" smooth="yes"/>
      <point x="70" y="70" type="line" smooth="yes"/>
      <point x="70" y="32"/>
      <point x="60" y="20"/>
      <point x="32" y="14" type="curve" smooth="yes"/>
      <point x="20" y="12"/>
      <point x="15" y="8"/>
      <point x="15" y="2" type="curve" smooth="yes"/>
      <point x="15" y="-3"/>
      <point x="21" y="-5"/>
    </contour>
  </outline>
</glyph>
<glyph name="G" format="1">
  <advance width="426"/>
  <unicode hex="0047"/>
  <outline>
    <contour>
      <point x="230" y="-12" type="curve" smooth="yes"/>
      <point x="305" y="-12"/>
      <point x="358" y="45"/>
      <point x="370" y="48" type="curve" smooth="yes"/>
      <point x="378" y="51"/>
      <point x="378" y="60"/>
      <point x="378" y="65" type="curve" smooth="yes"/>
      <point x="378" y="68"/>
      <point x="373" y="73"/>
      <point x="371" y="79" type="curve"/>
      <point x="369" y="84"/>
      <point x="367" y="87"/>
      <point x="367" y="93" type="curve" smooth="yes"/>
      <point x="367" y="117" type="line" smooth="yes"/>
      <point x="367" y="139"/>
      <point x="370" y="167"/>
      <point x="368" y="187" type="curve" smooth="yes"/>
      <point x="366" y="218"/>
      <point x="374" y="234"/>
      <point x="390" y="235" type="curve"/>
      <point x="398" y="239"/>
      <point x="405" y="245"/>
      <point x="405" y="249" type="curve" smooth="yes"/>
      <point x="405" y="254"/>
      <point x="396" y="256"/>
      <point x="392" y="256" type="curve" smooth="yes"/>
      <point x="368" y="256"/>
      <point x="355" y="252"/>
      <point x="331" y="252" type="curve" smooth="yes"/>
      <point x="293" y="252"/>
      <point x="278" y="256"/>
      <point x="248" y="256" type="curve" smooth="yes"/>
      <point x="241" y="256"/>
      <point x="233" y="254"/>
      <point x="233" y="248" type="curve" smooth="yes"/>
      <point x="233" y="243"/>
      <point x="239" y="239"/>
      <point x="247" y="238" type="curve" smooth="yes"/>
      <point x="273" y="234"/>
      <point x="276" y="236"/>
      <point x="286" y="237" type="curve" smooth="yes"/>
      <point x="297" y="230"/>
      <point x="301" y="213"/>
      <point x="301" y="182" type="curve" smooth="yes"/>
      <point x="301" y="149"/>
      <point x="301" y="134"/>
      <point x="301" y="119" type="curve" smooth="yes"/>
      <point x="301" y="86"/>
      <point x="294" y="61"/>
      <point x="286" y="46" type="curve" smooth="yes"/>
      <point x="275" y="33"/>
      <point x="257" y="10"/>
      <point x="235" y="10" type="curve" smooth="yes"/>
      <point x="170" y="10"/>
      <point x="126" y="116"/>
      <point x="126" y="286" type="curve" smooth="yes"/>
      <point x="126" y="430"/>
      <point x="174" y="561"/>
      <point x="245" y="561" type="curve" smooth="yes"/>
      <point x="280" y="561"/>
      <point x="302" y="531"/>
      <point x="318" y="510" type="curve" smooth="yes"/>
      <point x="328" y="491"/>
      <point x="332" y="464"/>
      <point x="335" y="438" type="curve"/>
      <point x="337" y="423"/>
      <point x="344" y="404"/>
      <point x="358" y="404" type="curve" smooth="yes"/>
      <point x="365" y="404"/>
      <point x="372" y="416"/>
      <point x="372" y="428" type="curve" smooth="yes"/>
      <point x="372" y="451"/>
      <point x="367" y="510"/>
      <point x="366" y="544" type="curve" smooth="yes"/>
      <point x="365" y="550"/>
      <point x="364" y="552"/>
      <point x="360" y="555" type="curve" smooth="yes"/>
      <point x="343" y="566"/>
      <point x="291" y="584"/>
      <point x="242" y="584" type="curve" smooth="yes"/>
      <point x="126" y="584"/>
      <point x="27" y="448"/>
      <point x="27" y="274" type="curve" smooth="yes"/>
      <point x="27" y="112"/>
      <point x="122" y="-12"/>
    </contour>
  </outline>
</glyph>
<glyph name="H" format="1">
  <advance width="427"/>
  <unicode hex="0048"/>
  <outline>
    <contour>
      <point x="32" y="-5" type="curve" smooth="yes"/>
      <point x="66" y="-5"/>
      <point x="75" y="-2"/>
      <point x="101" y="-2" type="curve" smooth="yes"/>
      <point x="129" y="-2"/>
      <point x="140" y="-5"/>
      <point x="174" y="-5" type="curve" smooth="yes"/>
      <point x="184" y="-5"/>
      <point x="191" y="-2"/>
      <point x="191" y="3" type="curve" smooth="yes"/>
      <point x="191" y="7"/>
      <point x="187" y="9"/>
      <point x="176" y="13" type="curve" smooth="yes"/>
      <point x="154" y="17"/>
      <point x="139" y="22"/>
      <point x="139" y="60" type="curve" smooth="yes"/>
      <point x="139" y="269" type="line" smooth="yes"/>
      <point x="139" y="275"/>
      <point x="140" y="277"/>
      <point x="144" y="277" type="curve" smooth="yes"/>
      <point x="284" y="277" type="line" smooth="yes"/>
      <point x="287" y="277"/>
      <point x="289" y="274"/>
      <point x="289" y="269" type="curve" smooth="yes"/>
      <point x="289" y="62" type="line" smooth="yes"/>
      <point x="289" y="30"/>
      <point x="275" y="17"/>
      <point x="253" y="13" type="curve" smooth="yes"/>
      <point x="242" y="9"/>
      <point x="238" y="7"/>
      <point x="238" y="3" type="curve" smooth="yes"/>
      <point x="238" y="-2"/>
      <point x="245" y="-5"/>
      <point x="256" y="-5" type="curve" smooth="yes"/>
      <point x="289" y="-5"/>
      <point x="299" y="-2"/>
      <point x="327" y="-2" type="curve" smooth="yes"/>
      <point x="353" y="-2"/>
      <point x="361" y="-5"/>
      <point x="394" y="-5" type="curve" smooth="yes"/>
      <point x="405" y="-5"/>
      <point x="412" y="-2"/>
      <point x="412" y="3" type="curve" smooth="yes"/>
      <point x="412" y="7"/>
      <point x="408" y="9"/>
      <point x="397" y="13" type="curve" smooth="yes"/>
      <point x="374" y="17"/>
      <point x="369" y="19"/>
      <point x="369" y="56" type="curve" smooth="yes"/>
      <point x="369" y="515" type="line" smooth="yes"/>
      <point x="369" y="552"/>
      <point x="373" y="555"/>
      <point x="394" y="558" type="curve" smooth="yes"/>
      <point x="405" y="561"/>
      <point x="410" y="564"/>
      <point x="410" y="569" type="curve" smooth="yes"/>
      <point x="410" y="574"/>
      <point x="404" y="577"/>
      <point x="391" y="577" type="curve" smooth="yes"/>
      <point x="356" y="577"/>
      <point x="352" y="575"/>
      <point x="329" y="575" type="curve" smooth="yes"/>
      <point x="303" y="575"/>
      <point x="294" y="577"/>
      <point x="260" y="577" type="curve" smooth="yes"/>
      <point x="248" y="577"/>
      <point x="242" y="574"/>
      <point x="242" y="569" type="curve" smooth="yes"/>
      <point x="242" y="564"/>
      <point x="246" y="561"/>
      <point x="257" y="558" type="curve" smooth="yes"/>
      <point x="280" y="554"/>
      <point x="289" y="547"/>
      <point x="289" y="515" type="curve" smooth="yes"/>
      <point x="289" y="305" type="line" smooth="yes"/>
      <point x="289" y="300"/>
      <point x="287" y="297"/>
      <point x="283" y="297" type="curve" smooth="yes"/>
      <point x="147" y="297" type="line" smooth="yes"/>
      <point x="143" y="297"/>
      <point x="139" y="299"/>
      <point x="139" y="306" type="curve" smooth="yes"/>
      <point x="139" y="516" type="line" smooth="yes"/>
      <point x="139" y="539"/>
      <point x="147" y="554"/>
      <point x="171" y="558" type="curve" smooth="yes"/>
      <point x="182" y="561"/>
      <point x="186" y="564"/>
      <point x="186" y="569" type="curve" smooth="yes"/>
      <point x="186" y="574"/>
      <point x="180" y="577"/>
      <point x="167" y="577" type="curve" smooth="yes"/>
      <point x="134" y="577"/>
      <point x="126" y="575"/>
      <point x="101" y="575" type="curve" smooth="yes"/>
      <point x="77" y="575"/>
      <point x="71" y="577"/>
      <point x="36" y="577" type="curve" smooth="yes"/>
      <point x="23" y="577"/>
      <point x="18" y="574"/>
      <point x="18" y="569" type="curve" smooth="yes"/>
      <point x="18" y="564"/>
      <point x="23" y="561"/>
      <point x="34" y="558" type="curve" smooth="yes"/>
      <point x="55" y="555"/>
      <point x="59" y="547"/>
      <point x="59" y="516" type="curve" smooth="yes"/>
      <point x="59" y="56" type="line" smooth="yes"/>
      <point x="59" y="23"/>
      <point x="53" y="17"/>
      <point x="30" y="13" type="curve" smooth="yes"/>
      <point x="19" y="9"/>
      <point x="15" y="7"/>
      <point x="15" y="3" type="curve" smooth="yes"/>
      <point x="15" y="-2"/>
      <point x="22" y="-5"/>
    </contour>
  </outline>
</glyph>
<glyph name="I" format="1">
  <advance width="202"/>
  <unicode hex="0049"/>
  <outline>
    <contour>
      <point x="21" y="-5" type="curve" smooth="yes"/>
      <point x="45" y="-5"/>
      <point x="56" y="-2"/>
      <point x="104" y="-2" type="curve" smooth="yes"/>
      <point x="143" y="-2"/>
      <point x="152" y="-5"/>
      <point x="180" y="-5" type="curve" smooth="yes"/>
      <point x="188" y="-5"/>
      <point x="195" y="-3"/>
      <point x="195" y="2" type="curve" smooth="yes"/>
      <point x="195" y="7"/>
      <point x="189" y="10"/>
      <point x="178" y="13" type="curve" smooth="yes"/>
      <point x="152" y="18"/>
      <point x="138" y="28"/>
      <point x="138" y="57" type="curve" smooth="yes"/>
      <point x="138" y="512" type="line" smooth="yes"/>
      <point x="138" y="542"/>
      <point x="148" y="552"/>
      <point x="174" y="558" type="curve" smooth="yes"/>
      <point x="185" y="561"/>
      <point x="191" y="565"/>
      <point x="191" y="571" type="curve" smooth="yes"/>
      <point x="191" y="576"/>
      <point x="184" y="578"/>
      <point x="176" y="578" type="curve" smooth="yes"/>
      <point x="148" y="578"/>
      <point x="142" y="576"/>
      <point x="104" y="576" type="curve" smooth="yes"/>
      <point x="58" y="576"/>
      <point x="50" y="578"/>
      <point x="25" y="578" type="curve" smooth="yes"/>
      <point x="17" y="578"/>
      <point x="12" y="576"/>
      <point x="12" y="571" type="curve" smooth="yes"/>
      <point x="12" y="565"/>
      <point x="17" y="561"/>
      <point x="27" y="558" type="curve" smooth="yes"/>
      <point x="50" y="552"/>
      <point x="58" y="542"/>
      <point x="58" y="512" type="curve" smooth="yes"/>
      <point x="58" y="57" type="line" smooth="yes"/>
      <point x="58" y="28"/>
      <point x="45" y="18"/>
      <point x="22" y="13" type="curve" smooth="yes"/>
      <point x="12" y="10"/>
      <point x="7" y="7"/>
      <point x="7" y="2" type="curve" smooth="yes"/>
      <point x="7" y="-3"/>
      <point x="13" y="-5"/>
    </contour>
  </outline>
</glyph>
<glyph name="J" format="1">
  <advance width="235"/>
  <unicode hex="004A"/>
  <outline>
    <contour>
      <point x="45" y="-200" type="curve" smooth="yes"/>
      <point x="71" y="-200"/>
      <point x="91" y="-178"/>
      <point x="109" y="-146" type="curve" smooth="yes"/>
      <point x="130" y="-108"/>
      <point x="162" y="-37"/>
      <point x="162" y="47" type="curve" smooth="yes"/>
      <point x="162" y="510" type="line" smooth="yes"/>
      <point x="162" y="540"/>
      <point x="174" y="551"/>
      <point x="202" y="556" type="curve" smooth="yes"/>
      <point x="214" y="559"/>
      <point x="219" y="563"/>
      <point x="219" y="569" type="curve" smooth="yes"/>
      <point x="219" y="574"/>
      <point x="213" y="576"/>
      <point x="204" y="576" type="curve" smooth="yes"/>
      <point x="165" y="576"/>
      <point x="158" y="574"/>
      <point x="128" y="574" type="curve" smooth="yes"/>
      <point x="94" y="574"/>
      <point x="82" y="576"/>
      <point x="43" y="576" type="curve" smooth="yes"/>
      <point x="35" y="576"/>
      <point x="27" y="574"/>
      <point x="27" y="569" type="curve" smooth="yes"/>
      <point x="27" y="563"/>
      <point x="34" y="559"/>
      <point x="46" y="556" type="curve" smooth="yes"/>
      <point x="73" y="551"/>
      <point x="82" y="540"/>
      <point x="82" y="510" type="curve" smooth="yes"/>
      <point x="82" y="-1" type="line" smooth="yes"/>
      <point x="82" y="-107"/>
      <point x="73" y="-173"/>
      <point x="47" y="-173" type="curve" smooth="yes"/>
      <point x="38" y="-173"/>
      <point x="31" y="-164"/>
      <point x="22" y="-136" type="curve" smooth="yes"/>
      <point x="14" y="-113"/>
      <point x="6" y="-104"/>
      <point x="-10" y="-104" type="curve" smooth="yes"/>
      <point x="-25" y="-104"/>
      <point x="-42" y="-127"/>
      <point x="-42" y="-151" type="curve" smooth="yes"/>
      <point x="-42" y="-182"/>
      <point x="-12" y="-200"/>
    </contour>
  </outline>
</glyph>
<glyph name="K" format="1">
  <advance width="416"/>
  <unicode hex="004B"/>
  <outline>
    <contour>
      <point x="37" y="-5" type="curve" smooth="yes"/>
      <point x="72" y="-5"/>
      <point x="80" y="2"/>
      <point x="111" y="2" type="curve" smooth="yes"/>
      <point x="136" y="2"/>
      <point x="145" y="-5"/>
      <point x="176" y="-5" type="curve" smooth="yes"/>
      <point x="186" y="-5"/>
      <point x="192" y="-3"/>
      <point x="192" y="1" type="curve" smooth="yes"/>
      <point x="192" y="7"/>
      <point x="188" y="10"/>
      <point x="177" y="12" type="curve" smooth="yes"/>
      <point x="154" y="17"/>
      <point x="145" y="27"/>
      <point x="145" y="65" type="curve" smooth="yes"/>
      <point x="144" y="172"/>
      <point x="144" y="192"/>
      <point x="144" y="242" type="curve" smooth="yes"/>
      <point x="144" y="249"/>
      <point x="143" y="263"/>
      <point x="146" y="263" type="curve" smooth="yes"/>
      <point x="149" y="263"/>
      <point x="154" y="256"/>
      <point x="159" y="248" type="curve"/>
      <point x="267" y="51" type="line" smooth="yes"/>
      <point x="273" y="43"/>
      <point x="281" y="35"/>
      <point x="280" y="29" type="curve" smooth="yes"/>
      <point x="279" y="22"/>
      <point x="270" y="18"/>
      <point x="254" y="16" type="curve"/>
      <point x="244" y="13"/>
      <point x="240" y="11"/>
      <point x="240" y="6" type="curve" smooth="yes"/>
      <point x="240" y="1"/>
      <point x="246" y="-1"/>
      <point x="255" y="-1" type="curve" smooth="yes"/>
      <point x="280" y="-1"/>
      <point x="300" y="0"/>
      <point x="314" y="0" type="curve" smooth="yes"/>
      <point x="344" y="0"/>
      <point x="376" y="-5"/>
      <point x="409" y="-5" type="curve" smooth="yes"/>
      <point x="418" y="-5"/>
      <point x="425" y="-3"/>
      <point x="425" y="2" type="curve" smooth="yes"/>
      <point x="425" y="7"/>
      <point x="419" y="11"/>
      <point x="409" y="13" type="curve" smooth="yes"/>
      <point x="402" y="17"/>
      <point x="387" y="28"/>
      <point x="360" y="71" type="curve" smooth="yes"/>
      <point x="203" y="343" type="line" smooth="yes"/>
      <point x="199" y="349"/>
      <point x="198" y="357"/>
      <point x="202" y="361" type="curve"/>
      <point x="233" y="422"/>
      <point x="272" y="461"/>
      <point x="304" y="511" type="curve" smooth="yes"/>
      <point x="330" y="544"/>
      <point x="334" y="556"/>
      <point x="382" y="561" type="curve" smooth="yes"/>
      <point x="393" y="563"/>
      <point x="399" y="567"/>
      <point x="399" y="573" type="curve" smooth="yes"/>
      <point x="399" y="577"/>
      <point x="394" y="580"/>
      <point x="387" y="580" type="curve" smooth="yes"/>
      <point x="380" y="580"/>
      <point x="329" y="576"/>
      <point x="298" y="576" type="curve" smooth="yes"/>
      <point x="262" y="576" type="line" smooth="yes"/>
      <point x="253" y="576"/>
      <point x="246" y="574"/>
      <point x="246" y="569" type="curve" smooth="yes"/>
      <point x="246" y="564"/>
      <point x="250" y="559"/>
      <point x="263" y="557" type="curve" smooth="yes"/>
      <point x="286" y="556"/>
      <point x="294" y="551"/>
      <point x="294" y="542" type="curve" smooth="yes"/>
      <point x="294" y="534"/>
      <point x="286" y="523"/>
      <point x="270" y="508" type="curve" smooth="yes"/>
      <point x="165" y="344" type="line"/>
      <point x="157" y="335"/>
      <point x="151" y="328"/>
      <point x="147" y="328" type="curve" smooth="yes"/>
      <point x="144" y="328"/>
      <point x="144" y="342"/>
      <point x="144" y="347" type="curve" smooth="yes"/>
      <point x="144" y="515" type="line" smooth="yes"/>
      <point x="144" y="537"/>
      <point x="145" y="552"/>
      <point x="171" y="558" type="curve" smooth="yes"/>
      <point x="183" y="561"/>
      <point x="188" y="567"/>
      <point x="188" y="571" type="curve" smooth="yes"/>
      <point x="188" y="576"/>
      <point x="180" y="578"/>
      <point x="170" y="578" type="curve" smooth="yes"/>
      <point x="136" y="578"/>
      <point x="134" y="576"/>
      <point x="109" y="576" type="curve" smooth="yes"/>
      <point x="82" y="576"/>
      <point x="72" y="578"/>
      <point x="38" y="578" type="curve" smooth="yes"/>
      <point x="27" y="578"/>
      <point x="18" y="576"/>
      <point x="18" y="571" type="curve" smooth="yes"/>
      <point x="18" y="565"/>
      <point x="23" y="560"/>
      <point x="34" y="559" type="curve" smooth="yes"/>
      <point x="61" y="555"/>
      <point x="64" y="543"/>
      <point x="64" y="510" type="curve" smooth="yes"/>
      <point x="64" y="60" type="line" smooth="yes"/>
      <point x="64" y="28"/>
      <point x="57" y="17"/>
      <point x="34" y="12" type="curve" smooth="yes"/>
      <point x="23" y="10"/>
      <point x="18" y="7"/>
      <point x="18" y="1" type="curve" smooth="yes"/>
      <point x="18" y="-3"/>
      <point x="27" y="-5"/>
    </contour>
  </outline>
</glyph>
<glyph name="L" format="1">
  <advance width="341"/>
  <unicode hex="004C"/>
  <outline>
    <contour>
      <point x="30" y="-5" type="curve"/>
      <point x="30" y="-5"/>
      <point x="76" y="0"/>
      <point x="104" y="0" type="curve" smooth="yes"/>
      <point x="159" y="0"/>
      <point x="239" y="-5"/>
      <point x="313" y="-5" type="curve" smooth="yes"/>
      <point x="318" y="-5"/>
      <point x="320" y="3"/>
      <point x="321" y="12" type="curve" smooth="yes"/>
      <point x="325" y="54"/>
      <point x="328" y="87"/>
      <point x="336" y="139" type="curve"/>
      <point x="336" y="140"/>
      <point x="336" y="142"/>
      <point x="336" y="144" type="curve" smooth="yes"/>
      <point x="336" y="154"/>
      <point x="331" y="162"/>
      <point x="326" y="162" type="curve" smooth="yes"/>
      <point x="320" y="162"/>
      <point x="318" y="156"/>
      <point x="310" y="128" type="curve" smooth="yes"/>
      <point x="300" y="87"/>
      <point x="297" y="74"/>
      <point x="288" y="53" type="curve" smooth="yes"/>
      <point x="276" y="34"/>
      <point x="262" y="18"/>
      <point x="243" y="18" type="curve" smooth="yes"/>
      <point x="194" y="18" type="line" smooth="yes"/>
      <point x="157" y="18"/>
      <point x="151" y="38"/>
      <point x="151" y="79" type="curve" smooth="yes"/>
      <point x="151" y="520" type="line" smooth="yes"/>
      <point x="151" y="551"/>
      <point x="168" y="554"/>
      <point x="200" y="559" type="curve" smooth="yes"/>
      <point x="213" y="562"/>
      <point x="219" y="566"/>
      <point x="219" y="571" type="curve" smooth="yes"/>
      <point x="219" y="576"/>
      <point x="210" y="578"/>
      <point x="199" y="578" type="curve" smooth="yes"/>
      <point x="162" y="578"/>
      <point x="147" y="575"/>
      <point x="115" y="575" type="curve" smooth="yes"/>
      <point x="85" y="575"/>
      <point x="75" y="578"/>
      <point x="38" y="578" type="curve" smooth="yes"/>
      <point x="28" y="578"/>
      <point x="20" y="576"/>
      <point x="20" y="571" type="curve" smooth="yes"/>
      <point x="20" y="566"/>
      <point x="25" y="562"/>
      <point x="37" y="560" type="curve" smooth="yes"/>
      <point x="65" y="554"/>
      <point x="71" y="553"/>
      <point x="71" y="514" type="curve" smooth="yes"/>
      <point x="71" y="65" type="line" smooth="yes"/>
      <point x="71" y="31"/>
      <point x="66" y="20"/>
      <point x="26" y="13" type="curve"/>
      <point x="25" y="12"/>
      <point x="15" y="10"/>
      <point x="15" y="2" type="curve" smooth="yes"/>
      <point x="15" y="-2"/>
      <point x="20" y="-5"/>
    </contour>
  </outline>
</glyph>
<glyph name="M" format="1">
  <advance width="513"/>
  <unicode hex="004D"/>
  <outline>
    <contour>
      <point x="28" y="-5" type="curve" smooth="yes"/>
      <point x="61" y="-5"/>
      <point x="63" y="0"/>
      <point x="85" y="0" type="curve" smooth="yes"/>
      <point x="109" y="0"/>
      <point x="111" y="-5"/>
      <point x="146" y="-5" type="curve" smooth="yes"/>
      <point x="156" y="-5"/>
      <point x="164" y="-3"/>
      <point x="164" y="2" type="curve" smooth="yes"/>
      <point x="164" y="8"/>
      <point x="158" y="11"/>
      <point x="146" y="14" type="curve" smooth="yes"/>
      <point x="112" y="19"/>
      <point x="100" y="38"/>
      <point x="100" y="80" type="curve" smooth="yes"/>
      <point x="100" y="209"/>
      <point x="111" y="307"/>
      <point x="108" y="382" type="curve" smooth="yes"/>
      <point x="108" y="389"/>
      <point x="114" y="389"/>
      <point x="115" y="382" type="curve" smooth="yes"/>
      <point x="152" y="232"/>
      <point x="189" y="127"/>
      <point x="218" y="-4" type="curve" smooth="yes"/>
      <point x="220" y="-13"/>
      <point x="229" y="-11"/>
      <point x="232" y="-5" type="curve" smooth="yes"/>
      <point x="337" y="328" type="line" smooth="yes"/>
      <point x="341" y="340"/>
      <point x="346" y="342"/>
      <point x="347" y="328" type="curve"/>
      <point x="350" y="245"/>
      <point x="355" y="180"/>
      <point x="356" y="59" type="curve" smooth="yes"/>
      <point x="357" y="29"/>
      <point x="350" y="17"/>
      <point x="329" y="14" type="curve" smooth="yes"/>
      <point x="316" y="11"/>
      <point x="310" y="8"/>
      <point x="310" y="2" type="curve" smooth="yes"/>
      <point x="310" y="-3"/>
      <point x="319" y="-5"/>
      <point x="330" y="-5" type="curve" smooth="yes"/>
      <point x="367" y="-5"/>
      <point x="373" y="0"/>
      <point x="401" y="0" type="curve" smooth="yes"/>
      <point x="432" y="0"/>
      <point x="443" y="-5"/>
      <point x="479" y="-5" type="curve" smooth="yes"/>
      <point x="491" y="-5"/>
      <point x="499" y="-3"/>
      <point x="499" y="2" type="curve" smooth="yes"/>
      <point x="499" y="8"/>
      <point x="494" y="11"/>
      <point x="481" y="14" type="curve" smooth="yes"/>
      <point x="453" y="19"/>
      <point x="441" y="33"/>
      <point x="440" y="58" type="curve" smooth="yes"/>
      <point x="435" y="222"/>
      <point x="427" y="337"/>
      <point x="427" y="514" type="curve" smooth="yes"/>
      <point x="427" y="537"/>
      <point x="430" y="546"/>
      <point x="441" y="550" type="curve" smooth="yes"/>
      <point x="451" y="554"/>
      <point x="463" y="560"/>
      <point x="473" y="563" type="curve" smooth="yes"/>
      <point x="484" y="569"/>
      <point x="487" y="570"/>
      <point x="487" y="576" type="curve" smooth="yes"/>
      <point x="487" y="581"/>
      <point x="477" y="582"/>
      <point x="474" y="582" type="curve" smooth="yes"/>
      <point x="459" y="582"/>
      <point x="425" y="574"/>
      <point x="400" y="574" type="curve" smooth="yes"/>
      <point x="376" y="574" type="line" smooth="yes"/>
      <point x="373" y="574"/>
      <point x="370" y="569"/>
      <point x="369" y="561" type="curve" smooth="yes"/>
      <point x="367" y="538"/>
      <point x="362" y="500"/>
      <point x="357" y="475" type="curve"/>
      <point x="266" y="218" type="line" smooth="yes"/>
      <point x="263" y="209"/>
      <point x="261" y="212"/>
      <point x="258" y="221" type="curve" smooth="yes"/>
      <point x="182" y="482" type="line" smooth="yes"/>
      <point x="177" y="511"/>
      <point x="174" y="530"/>
      <point x="171" y="557" type="curve" smooth="yes"/>
      <point x="170" y="567"/>
      <point x="166" y="573"/>
      <point x="161" y="573" type="curve" smooth="yes"/>
      <point x="146" y="573"/>
      <point x="56" y="581"/>
      <point x="42" y="581" type="curve" smooth="yes"/>
      <point x="30" y="581"/>
      <point x="22" y="580"/>
      <point x="22" y="574" type="curve" smooth="yes"/>
      <point x="22" y="570"/>
      <point x="27" y="565"/>
      <point x="34" y="563" type="curve" smooth="yes"/>
      <point x="59" y="559"/>
      <point x="72" y="556"/>
      <point x="78" y="544" type="curve" smooth="yes"/>
      <point x="83" y="536"/>
      <point x="84" y="526"/>
      <point x="84" y="513" type="curve" smooth="yes"/>
      <point x="84" y="502"/>
      <point x="84" y="489"/>
      <point x="84" y="475" type="curve" smooth="yes"/>
      <point x="84" y="384"/>
      <point x="80" y="249"/>
      <point x="68" y="78" type="curve" smooth="yes"/>
      <point x="63" y="33"/>
      <point x="58" y="19"/>
      <point x="27" y="13" type="curve" smooth="yes"/>
      <point x="15" y="10"/>
      <point x="9" y="8"/>
      <point x="9" y="2" type="curve" smooth="yes"/>
      <point x="9" y="-3"/>
      <point x="17" y="-5"/>
    </contour>
  </outline>
</glyph>
<glyph name="N" format="1">
  <advance width="431"/>
  <unicode hex="004E"/>
  <outline>
    <contour>
      <point x="367" y="-17" type="curve" smooth="yes"/>
      <point x="373" y="-17"/>
      <point x="380" y="-13"/>
      <point x="380" y="8" type="curve" smooth="yes"/>
      <point x="380" y="21"/>
      <point x="377" y="57"/>
      <point x="377" y="105" type="curve" smooth="yes"/>
      <point x="375" y="278"/>
      <point x="376" y="367"/>
      <point x="378" y="483" type="curve" smooth="yes"/>
      <point x="378" y="529"/>
      <point x="391" y="554"/>
      <point x="408" y="562" type="curve" smooth="yes"/>
      <point x="420" y="568"/>
      <point x="426" y="569"/>
      <point x="426" y="574" type="curve" smooth="yes"/>
      <point x="426" y="579"/>
      <point x="419" y="581"/>
      <point x="410" y="581" type="curve" smooth="yes"/>
      <point x="379" y="581"/>
      <point x="378" y="574"/>
      <point x="372" y="574" type="curve" smooth="yes"/>
      <point x="335" y="574"/>
      <point x="339" y="581"/>
      <point x="294" y="581" type="curve" smooth="yes"/>
      <point x="284" y="581"/>
      <point x="283" y="579"/>
      <point x="283" y="574" type="curve" smooth="yes"/>
      <point x="283" y="568"/>
      <point x="286" y="565"/>
      <point x="302" y="561" type="curve" smooth="yes"/>
      <point x="352" y="552"/>
      <point x="352" y="530"/>
      <point x="352" y="485" type="curve"/>
      <point x="352" y="395"/>
      <point x="353" y="325"/>
      <point x="353" y="209" type="curve"/>
      <point x="353" y="194"/>
      <point x="350" y="188"/>
      <point x="347" y="188" type="curve" smooth="yes"/>
      <point x="343" y="188"/>
      <point x="337" y="200"/>
      <point x="334" y="205" type="curve" smooth="yes"/>
      <point x="324" y="225"/>
      <point x="139" y="537"/>
      <point x="130" y="561" type="curve"/>
      <point x="125" y="570"/>
      <point x="120" y="577"/>
      <point x="114" y="577" type="curve" smooth="yes"/>
      <point x="74" y="577"/>
      <point x="63" y="581"/>
      <point x="20" y="582" type="curve" smooth="yes"/>
      <point x="16" y="582"/>
      <point x="6" y="581"/>
      <point x="6" y="575" type="curve" smooth="yes"/>
      <point x="6" y="567"/>
      <point x="13" y="562"/>
      <point x="20" y="561" type="curve" smooth="yes"/>
      <point x="54" y="553"/>
      <point x="73" y="524"/>
      <point x="73" y="471" type="curve" smooth="yes"/>
      <point x="73" y="297"/>
      <point x="68" y="168"/>
      <point x="66" y="82" type="curve" smooth="yes"/>
      <point x="64" y="39"/>
      <point x="56" y="22"/>
      <point x="34" y="14" type="curve" smooth="yes"/>
      <point x="22" y="9"/>
      <point x="16" y="7"/>
      <point x="16" y="2" type="curve" smooth="yes"/>
      <point x="16" y="-3"/>
      <point x="23" y="-5"/>
      <point x="32" y="-5" type="curve" smooth="yes"/>
      <point x="65" y="-5"/>
      <point x="67" y="0"/>
      <point x="87" y="0" type="curve" smooth="yes"/>
      <point x="108" y="0"/>
      <point x="110" y="-5"/>
      <point x="140" y="-5" type="curve" smooth="yes"/>
      <point x="150" y="-5"/>
      <point x="157" y="-3"/>
      <point x="157" y="2" type="curve" smooth="yes"/>
      <point x="157" y="7"/>
      <point x="150" y="13"/>
      <point x="133" y="15" type="curve" smooth="yes"/>
      <point x="98" y="22"/>
      <point x="86" y="43"/>
      <point x="86" y="76" type="curve" smooth="yes"/>
      <point x="86" y="200"/>
      <point x="95" y="283"/>
      <point x="94" y="364" type="curve" smooth="yes"/>
      <point x="94" y="373"/>
      <point x="97" y="385"/>
      <point x="100" y="385" type="curve" smooth="yes"/>
      <point x="104" y="385"/>
      <point x="109" y="381"/>
      <point x="115" y="370" type="curve" smooth="yes"/>
      <point x="129" y="344"/>
      <point x="303" y="58"/>
      <point x="314" y="36" type="curve" smooth="yes"/>
      <point x="338" y="-13"/>
      <point x="360" y="-17"/>
    </contour>
  </outline>
</glyph>
<glyph name="O" format="1">
  <advance width="420"/>
  <unicode hex="004F"/>
  <outline>
    <contour>
      <point x="208" y="-14" type="curve" smooth="yes"/>
      <point x="330" y="-14"/>
      <point x="395" y="88"/>
      <point x="395" y="296" type="curve" smooth="yes"/>
      <point x="395" y="520"/>
      <point x="310" y="589"/>
      <point x="213" y="589" type="curve" smooth="yes"/>
      <point x="90" y="589"/>
      <point x="25" y="487"/>
      <point x="25" y="279" type="curve" smooth="yes"/>
      <point x="25" y="55"/>
      <point x="110" y="-14"/>
    </contour>
    <contour>
      <point x="214" y="7" type="curve" smooth="yes"/>
      <point x="148" y="7"/>
      <point x="122" y="102"/>
      <point x="122" y="325" type="curve" smooth="yes"/>
      <point x="122" y="520"/>
      <point x="147" y="566"/>
      <point x="206" y="566" type="curve" smooth="yes"/>
      <point x="272" y="566"/>
      <point x="298" y="473"/>
      <point x="298" y="251" type="curve" smooth="yes"/>
      <point x="298" y="56"/>
      <point x="274" y="7"/>
    </contour>
  </outline>
</glyph>
<glyph name="P" format="1">
  <advance width="330"/>
  <unicode hex="0050"/>
  <outline>
    <contour>
      <point x="29" y="-5" type="curve" smooth="yes"/>
      <point x="66" y="-5"/>
      <point x="76" y="2"/>
      <point x="110" y="2" type="curve" smooth="yes"/>
      <point x="131" y="2"/>
      <point x="141" y="-5"/>
      <point x="178" y="-5" type="curve" smooth="yes"/>
      <point x="186" y="-5"/>
      <point x="193" y="-2"/>
      <point x="193" y="2" type="curve" smooth="yes"/>
      <point x="193" y="8"/>
      <point x="187" y="12"/>
      <point x="175" y="14" type="curve" smooth="yes"/>
      <point x="139" y="19"/>
      <point x="140" y="38"/>
      <point x="140" y="100" type="curve" smooth="yes"/>
      <point x="140" y="516" type="line" smooth="yes"/>
      <point x="140" y="548"/>
      <point x="146" y="561"/>
      <point x="163" y="561" type="curve" smooth="yes"/>
      <point x="202" y="561"/>
      <point x="236" y="523"/>
      <point x="236" y="415" type="curve" smooth="yes"/>
      <point x="236" y="304"/>
      <point x="218" y="240"/>
      <point x="180" y="240" type="curve" smooth="yes"/>
      <point x="177" y="240"/>
      <point x="172" y="242"/>
      <point x="167" y="242" type="curve" smooth="yes"/>
      <point x="164" y="242"/>
      <point x="159" y="242"/>
      <point x="159" y="235" type="curve" smooth="yes"/>
      <point x="159" y="232"/>
      <point x="167" y="223"/>
      <point x="191" y="223" type="curve" smooth="yes"/>
      <point x="279" y="223"/>
      <point x="320" y="315"/>
      <point x="320" y="424" type="curve" smooth="yes"/>
      <point x="320" y="524"/>
      <point x="262" y="582"/>
      <point x="174" y="582" type="curve" smooth="yes"/>
      <point x="158" y="582"/>
      <point x="133" y="576"/>
      <point x="107" y="576" type="curve" smooth="yes"/>
      <point x="78" y="576"/>
      <point x="76" y="577"/>
      <point x="37" y="577" type="curve" smooth="yes"/>
      <point x="26" y="577"/>
      <point x="18" y="575"/>
      <point x="15" y="571" type="curve" smooth="yes"/>
      <point x="15" y="566"/>
      <point x="20" y="562"/>
      <point x="31" y="560" type="curve" smooth="yes"/>
      <point x="58" y="555"/>
      <point x="59" y="538"/>
      <point x="59" y="478" type="curve" smooth="yes"/>
      <point x="59" y="89" type="line" smooth="yes"/>
      <point x="59" y="28"/>
      <point x="57" y="16"/>
      <point x="25" y="13" type="curve" smooth="yes"/>
      <point x="15" y="11"/>
      <point x="10" y="8"/>
      <point x="10" y="2" type="curve" smooth="yes"/>
      <point x="10" y="-2"/>
      <point x="18" y="-5"/>
    </contour>
  </outline>
</glyph>
<glyph name="Q" format="1">
  <advance width="420"/>
  <unicode hex="0051"/>
  <outline>
    <contour>
      <point x="394" y="-248" type="curve" smooth="yes"/>
      <point x="417" y="-248"/>
      <point x="446" y="-238"/>
      <point x="468" y="-221" type="curve" smooth="yes"/>
      <point x="480" y="-212"/>
      <point x="486" y="-201"/>
      <point x="486" y="-189" type="curve" smooth="yes"/>
      <point x="486" y="-183"/>
      <point x="483" y="-181"/>
      <point x="479" y="-181" type="curve" smooth="yes"/>
      <point x="475" y="-181"/>
      <point x="470" y="-183"/>
      <point x="466" y="-185" type="curve"/>
      <point x="459" y="-189"/>
      <point x="444" y="-192"/>
      <point x="428" y="-192" type="curve" smooth="yes"/>
      <point x="389" y="-192"/>
      <point x="369" y="-175"/>
      <point x="335" y="-127" type="curve" smooth="yes"/>
      <point x="310" y="-91"/>
      <point x="292" y="-59"/>
      <point x="273" y="-17" type="curve"/>
      <point x="271" y="-14"/>
      <point x="271" y="-11"/>
      <point x="271" y="-8" type="curve" smooth="yes"/>
      <point x="271" y="-6"/>
      <point x="271" y="-3"/>
      <point x="275" y="-1" type="curve" smooth="yes"/>
      <point x="354" y="34"/>
      <point x="395" y="133"/>
      <point x="395" y="296" type="curve" smooth="yes"/>
      <point x="395" y="520"/>
      <point x="310" y="589"/>
      <point x="213" y="589" type="curve" smooth="yes"/>
      <point x="90" y="589"/>
      <point x="25" y="487"/>
      <point x="25" y="279" type="curve" smooth="yes"/>
      <point x="25" y="125"/>
      <point x="69" y="41"/>
      <point x="133" y="6" type="curve" smooth="yes"/>
      <point x="157" y="-11"/>
      <point x="175" y="-33"/>
      <point x="192" y="-56" type="curve" smooth="yes"/>
      <point x="218" y="-89"/>
      <point x="231" y="-115"/>
      <point x="257" y="-151" type="curve" smooth="yes"/>
      <point x="299" y="-214"/>
      <point x="331" y="-248"/>
    </contour>
    <contour>
      <point x="214" y="7" type="curve" smooth="yes"/>
      <point x="148" y="7"/>
      <point x="122" y="102"/>
      <point x="122" y="325" type="curve" smooth="yes"/>
      <point x="122" y="520"/>
      <point x="147" y="566"/>
      <point x="206" y="566" type="curve" smooth="yes"/>
      <point x="272" y="566"/>
      <point x="298" y="473"/>
      <point x="298" y="251" type="curve" smooth="yes"/>
      <point x="298" y="56"/>
      <point x="274" y="7"/>
    </contour>
  </outline>
</glyph>
<glyph name="R" format="1">
  <advance width="410"/>
  <unicode hex="0052"/>
  <outline>
    <contour>
      <point x="361" y="-21" type="curve" smooth="yes"/>
      <point x="373" y="-21"/>
      <point x="419" y="-17"/>
      <point x="419" y="0" type="curve" smooth="yes"/>
      <point x="419" y="5"/>
      <point x="417" y="6"/>
      <point x="412" y="6" type="curve" smooth="yes"/>
      <point x="397" y="6"/>
      <point x="391" y="14"/>
      <point x="373" y="39" type="curve" smooth="yes"/>
      <point x="315" y="118"/>
      <point x="279" y="199"/>
      <point x="246" y="276" type="curve" smooth="yes"/>
      <point x="243" y="282"/>
      <point x="243" y="287"/>
      <point x="246" y="289" type="curve"/>
      <point x="273" y="314"/>
      <point x="311" y="355"/>
      <point x="311" y="434" type="curve" smooth="yes"/>
      <point x="311" y="537"/>
      <point x="255" y="579"/>
      <point x="189" y="579" type="curve" smooth="yes"/>
      <point x="160" y="579"/>
      <point x="123" y="574"/>
      <point x="102" y="574" type="curve" smooth="yes"/>
      <point x="80" y="574"/>
      <point x="64" y="575"/>
      <point x="30" y="575" type="curve" smooth="yes"/>
      <point x="22" y="575"/>
      <point x="17" y="573"/>
      <point x="17" y="568" type="curve" smooth="yes"/>
      <point x="17" y="562"/>
      <point x="21" y="557"/>
      <point x="31" y="555" type="curve" smooth="yes"/>
      <point x="56" y="552"/>
      <point x="59" y="543"/>
      <point x="59" y="474" type="curve" smooth="yes"/>
      <point x="59" y="75" type="line" smooth="yes"/>
      <point x="59" y="31"/>
      <point x="55" y="20"/>
      <point x="26" y="14" type="curve" smooth="yes"/>
      <point x="16" y="11"/>
      <point x="12" y="8"/>
      <point x="12" y="2" type="curve" smooth="yes"/>
      <point x="12" y="-3"/>
      <point x="17" y="-5"/>
      <point x="25" y="-5" type="curve" smooth="yes"/>
      <point x="57" y="-5"/>
      <point x="85" y="2"/>
      <point x="113" y="2" type="curve" smooth="yes"/>
      <point x="144" y="2"/>
      <point x="148" y="-5"/>
      <point x="177" y="-5" type="curve" smooth="yes"/>
      <point x="185" y="-5"/>
      <point x="191" y="-3"/>
      <point x="191" y="2" type="curve" smooth="yes"/>
      <point x="191" y="8"/>
      <point x="186" y="11"/>
      <point x="174" y="14" type="curve" smooth="yes"/>
      <point x="145" y="19"/>
      <point x="139" y="38"/>
      <point x="139" y="78" type="curve" smooth="yes"/>
      <point x="139" y="247" type="line" smooth="yes"/>
      <point x="139" y="259"/>
      <point x="140" y="268"/>
      <point x="145" y="267" type="curve" smooth="yes"/>
      <point x="153" y="265"/>
      <point x="166" y="260"/>
      <point x="178" y="246" type="curve" smooth="yes"/>
      <point x="186" y="237"/>
      <point x="192" y="226"/>
      <point x="199" y="209" type="curve" smooth="yes"/>
      <point x="232" y="115"/>
      <point x="243" y="89"/>
      <point x="263" y="40" type="curve" smooth="yes"/>
      <point x="285" y="-11"/>
      <point x="323" y="-21"/>
    </contour>
    <contour>
      <point x="160" y="281" type="curve" smooth="yes"/>
      <point x="147" y="281"/>
      <point x="139" y="283"/>
      <point x="139" y="318" type="curve" smooth="yes"/>
      <point x="139" y="391"/>
      <point x="139" y="442"/>
      <point x="139" y="473" type="curve" smooth="yes"/>
      <point x="140" y="536"/>
      <point x="144" y="557"/>
      <point x="161" y="557" type="curve" smooth="yes"/>
      <point x="213" y="557"/>
      <point x="221" y="494"/>
      <point x="221" y="419" type="curve" smooth="yes"/>
      <point x="221" y="338"/>
      <point x="217" y="281"/>
    </contour>
  </outline>
</glyph>
<glyph name="S" format="1">
  <advance width="276"/>
  <unicode hex="0053"/>
  <outline>
    <contour>
      <point x="122" y="-16" type="curve" smooth="yes"/>
      <point x="195" y="-16"/>
      <point x="251" y="52"/>
      <point x="251" y="158" type="curve" smooth="yes"/>
      <point x="251" y="224"/>
      <point x="222" y="264"/>
      <point x="176" y="320" type="curve" smooth="yes"/>
      <point x="132" y="372"/>
      <point x="95" y="410"/>
      <point x="95" y="463" type="curve" smooth="yes"/>
      <point x="95" y="530"/>
      <point x="106" y="568"/>
      <point x="145" y="568" type="curve" smooth="yes"/>
      <point x="177" y="568"/>
      <point x="197" y="551"/>
      <point x="215" y="444" type="curve" smooth="yes"/>
      <point x="216" y="439"/>
      <point x="222" y="432"/>
      <point x="233" y="432" type="curve" smooth="yes"/>
      <point x="241" y="432"/>
      <point x="247" y="439"/>
      <point x="247" y="446" type="curve" smooth="yes"/>
      <point x="247" y="479"/>
      <point x="240" y="523"/>
      <point x="234" y="544" type="curve" smooth="yes"/>
      <point x="230" y="554"/>
      <point x="225" y="563"/>
      <point x="216" y="569" type="curve" smooth="yes"/>
      <point x="204" y="578"/>
      <point x="180" y="589"/>
      <point x="154" y="589" type="curve" smooth="yes"/>
      <point x="72" y="589"/>
      <point x="35" y="519"/>
      <point x="35" y="444" type="curve" smooth="yes"/>
      <point x="35" y="368"/>
      <point x="66" y="335"/>
      <point x="113" y="276" type="curve" smooth="yes"/>
      <point x="162" y="213"/>
      <point x="180" y="168"/>
      <point x="180" y="122" type="curve" smooth="yes"/>
      <point x="180" y="36"/>
      <point x="166" y="4"/>
      <point x="128" y="4" type="curve" smooth="yes"/>
      <point x="96" y="4"/>
      <point x="73" y="35"/>
      <point x="56" y="160" type="curve" smooth="yes"/>
      <point x="55" y="166"/>
      <point x="46" y="173"/>
      <point x="41" y="173" type="curve" smooth="yes"/>
      <point x="34" y="173"/>
      <point x="24" y="166"/>
      <point x="24" y="156" type="curve"/>
      <point x="24" y="127"/>
      <point x="26" y="76"/>
      <point x="30" y="48" type="curve" smooth="yes"/>
      <point x="31" y="39"/>
      <point x="34" y="32"/>
      <point x="37" y="27" type="curve"/>
      <point x="58" y="-1"/>
      <point x="92" y="-16"/>
    </contour>
  </outline>
</glyph>
<glyph name="T" format="1">
  <advance width="378"/>
  <unicode hex="0054"/>
  <outline>
    <contour>
      <point x="112" y="-5" type="curve" smooth="yes"/>
      <point x="149" y="-5"/>
      <point x="165" y="-2"/>
      <point x="198" y="-2" type="curve" smooth="yes"/>
      <point x="229" y="-2"/>
      <point x="241" y="-5"/>
      <point x="276" y="-5" type="curve" smooth="yes"/>
      <point x="288" y="-5"/>
      <point x="296" y="-3"/>
      <point x="296" y="2" type="curve" smooth="yes"/>
      <point x="296" y="7"/>
      <point x="290" y="10"/>
      <point x="278" y="13" type="curve" smooth="yes"/>
      <point x="250" y="19"/>
      <point x="234" y="31"/>
      <point x="234" y="73" type="curve" smooth="yes"/>
      <point x="234" y="463" type="line" smooth="yes"/>
      <point x="234" y="548"/>
      <point x="237" y="552"/>
      <point x="262" y="552" type="curve" smooth="yes"/>
      <point x="305" y="552" type="line" smooth="yes"/>
      <point x="335" y="552"/>
      <point x="345" y="531"/>
      <point x="349" y="498" type="curve" smooth="yes"/>
      <point x="352" y="466"/>
      <point x="355" y="450"/>
      <point x="361" y="450" type="curve" smooth="yes"/>
      <point x="367" y="450"/>
      <point x="374" y="464"/>
      <point x="374" y="482" type="curve" smooth="yes"/>
      <point x="374" y="494" type="line" smooth="yes"/>
      <point x="374" y="512"/>
      <point x="377" y="537"/>
      <point x="378" y="553" type="curve" smooth="yes"/>
      <point x="378" y="559"/>
      <point x="380" y="574"/>
      <point x="380" y="581" type="curve" smooth="yes"/>
      <point x="380" y="595"/>
      <point x="377" y="604"/>
      <point x="373" y="604" type="curve" smooth="yes"/>
      <point x="365" y="604"/>
      <point x="358" y="592"/>
      <point x="350" y="584" type="curve" smooth="yes"/>
      <point x="340" y="573"/>
      <point x="327" y="569"/>
      <point x="305" y="569" type="curve" smooth="yes"/>
      <point x="89" y="569" type="line" smooth="yes"/>
      <point x="77" y="569"/>
      <point x="63" y="575"/>
      <point x="60" y="589" type="curve" smooth="yes"/>
      <point x="54" y="610"/>
      <point x="49" y="621"/>
      <point x="45" y="621" type="curve" smooth="yes"/>
      <point x="42" y="621"/>
      <point x="33" y="620"/>
      <point x="32" y="598" type="curve" smooth="yes"/>
      <point x="29" y="556"/>
      <point x="23" y="531"/>
      <point x="14" y="493" type="curve" smooth="yes"/>
      <point x="13" y="487"/>
      <point x="12" y="479"/>
      <point x="12" y="473" type="curve" smooth="yes"/>
      <point x="12" y="466"/>
      <point x="19" y="460"/>
      <point x="21" y="460" type="curve" smooth="yes"/>
      <point x="29" y="460"/>
      <point x="38" y="474"/>
      <point x="48" y="506" type="curve" smooth="yes"/>
      <point x="58" y="536"/>
      <point x="71" y="552"/>
      <point x="85" y="552" type="curve" smooth="yes"/>
      <point x="116" y="552" type="line" smooth="yes"/>
      <point x="127" y="552"/>
      <point x="135" y="551"/>
      <point x="141" y="547" type="curve" smooth="yes"/>
      <point x="151" y="541"/>
      <point x="154" y="522"/>
      <point x="154" y="470" type="curve" smooth="yes"/>
      <point x="154" y="73" type="line" smooth="yes"/>
      <point x="154" y="31"/>
      <point x="139" y="19"/>
      <point x="111" y="13" type="curve" smooth="yes"/>
      <point x="99" y="10"/>
      <point x="93" y="7"/>
      <point x="93" y="2" type="curve" smooth="yes"/>
      <point x="93" y="-3"/>
      <point x="101" y="-5"/>
    </contour>
  </outline>
</glyph>
<glyph name="U" format="1">
  <advance width="406"/>
  <unicode hex="0055"/>
  <outline>
    <contour>
      <point x="198" y="-14" type="curve" smooth="yes"/>
      <point x="286" y="-14"/>
      <point x="335" y="70"/>
      <point x="341" y="202" type="curve" smooth="yes"/>
      <point x="343" y="313"/>
      <point x="342" y="379"/>
      <point x="346" y="495" type="curve" smooth="yes"/>
      <point x="349" y="537"/>
      <point x="356" y="553"/>
      <point x="380" y="559" type="curve" smooth="yes"/>
      <point x="396" y="563"/>
      <point x="403" y="566"/>
      <point x="403" y="572" type="curve" smooth="yes"/>
      <point x="403" y="576"/>
      <point x="395" y="578"/>
      <point x="383" y="578" type="curve" smooth="yes"/>
      <point x="369" y="578"/>
      <point x="351" y="575"/>
      <point x="331" y="575" type="curve" smooth="yes"/>
      <point x="312" y="575"/>
      <point x="301" y="576"/>
      <point x="282" y="577" type="curve" smooth="yes"/>
      <point x="271" y="577"/>
      <point x="264" y="575"/>
      <point x="264" y="570" type="curve" smooth="yes"/>
      <point x="264" y="565"/>
      <point x="277" y="561"/>
      <point x="287" y="557" type="curve" smooth="yes"/>
      <point x="307" y="550"/>
      <point x="315" y="519"/>
      <point x="316" y="469" type="curve" smooth="yes"/>
      <point x="317" y="385"/>
      <point x="317" y="293"/>
      <point x="317" y="194" type="curve" smooth="yes"/>
      <point x="317" y="100"/>
      <point x="289" y="36"/>
      <point x="227" y="36" type="curve" smooth="yes"/>
      <point x="171" y="36"/>
      <point x="132" y="80"/>
      <point x="132" y="178" type="curve" smooth="yes"/>
      <point x="132" y="497" type="line" smooth="yes"/>
      <point x="132" y="539"/>
      <point x="140" y="555"/>
      <point x="155" y="559" type="curve" smooth="yes"/>
      <point x="167" y="563"/>
      <point x="173" y="565"/>
      <point x="173" y="571" type="curve" smooth="yes"/>
      <point x="173" y="576"/>
      <point x="167" y="578"/>
      <point x="158" y="578" type="curve" smooth="yes"/>
      <point x="141" y="577"/>
      <point x="120" y="575"/>
      <point x="96" y="575" type="curve" smooth="yes"/>
      <point x="68" y="575"/>
      <point x="46" y="578"/>
      <point x="24" y="578" type="curve" smooth="yes"/>
      <point x="15" y="578"/>
      <point x="9" y="576"/>
      <point x="9" y="572" type="curve" smooth="yes"/>
      <point x="9" y="566"/>
      <point x="14" y="562"/>
      <point x="27" y="558" type="curve" smooth="yes"/>
      <point x="50" y="554"/>
      <point x="52" y="542"/>
      <point x="52" y="492" type="curve" smooth="yes"/>
      <point x="52" y="195" type="line" smooth="yes"/>
      <point x="52" y="70"/>
      <point x="101" y="-14"/>
    </contour>
  </outline>
</glyph>
<glyph name="V" format="1">
  <advance width="373"/>
  <unicode hex="0056"/>
  <outline>
    <contour>
      <point x="171" y="-12" type="curve" smooth="yes"/>
      <point x="175" y="-12"/>
      <point x="178" y="-9"/>
      <point x="179" y="-6" type="curve" smooth="yes"/>
      <point x="186" y="15"/>
      <point x="198" y="58"/>
      <point x="200" y="67" type="curve" smooth="yes"/>
      <point x="322" y="491" type="line" smooth="yes"/>
      <point x="333" y="526"/>
      <point x="332" y="553"/>
      <point x="365" y="560" type="curve" smooth="yes"/>
      <point x="377" y="562"/>
      <point x="382" y="566"/>
      <point x="382" y="571" type="curve" smooth="yes"/>
      <point x="382" y="576"/>
      <point x="377" y="577"/>
      <point x="369" y="577" type="curve" smooth="yes"/>
      <point x="356" y="577"/>
      <point x="324" y="574"/>
      <point x="306" y="574" type="curve" smooth="yes"/>
      <point x="288" y="574"/>
      <point x="264" y="575"/>
      <point x="251" y="575" type="curve" smooth="yes"/>
      <point x="243" y="575"/>
      <point x="238" y="574"/>
      <point x="238" y="569" type="curve" smooth="yes"/>
      <point x="238" y="564"/>
      <point x="243" y="560"/>
      <point x="263" y="558" type="curve" smooth="yes"/>
      <point x="317" y="550"/>
      <point x="317" y="544"/>
      <point x="285" y="453" type="curve" smooth="yes"/>
      <point x="211" y="205" type="line" smooth="yes"/>
      <point x="209" y="198"/>
      <point x="206" y="201"/>
      <point x="205" y="205" type="curve" smooth="yes"/>
      <point x="139" y="467" type="line"/>
      <point x="133" y="480"/>
      <point x="128" y="497"/>
      <point x="128" y="520" type="curve" smooth="yes"/>
      <point x="128" y="543"/>
      <point x="144" y="556"/>
      <point x="162" y="559" type="curve" smooth="yes"/>
      <point x="177" y="561"/>
      <point x="183" y="566"/>
      <point x="183" y="571" type="curve" smooth="yes"/>
      <point x="183" y="576"/>
      <point x="176" y="578"/>
      <point x="167" y="578" type="curve" smooth="yes"/>
      <point x="156" y="578"/>
      <point x="105" y="575"/>
      <point x="83" y="575" type="curve" smooth="yes"/>
      <point x="58" y="575"/>
      <point x="33" y="578"/>
      <point x="16" y="578" type="curve" smooth="yes"/>
      <point x="6" y="578"/>
      <point x="0" y="576"/>
      <point x="0" y="572" type="curve" smooth="yes"/>
      <point x="0" y="566"/>
      <point x="6" y="562"/>
      <point x="15" y="559" type="curve" smooth="yes"/>
      <point x="29" y="553"/>
      <point x="37" y="522"/>
      <point x="46" y="486" type="curve" smooth="yes"/>
      <point x="147" y="47" type="line" smooth="yes"/>
      <point x="151" y="31"/>
      <point x="161" y="6"/>
      <point x="164" y="-6" type="curve" smooth="yes"/>
      <point x="166" y="-10"/>
      <point x="170" y="-12"/>
    </contour>
  </outline>
</glyph>
<glyph name="W" format="1">
  <advance width="582"/>
  <unicode hex="0057"/>
  <outline>
    <contour>
      <point x="206" y="-14" type="curve" smooth="yes"/>
      <point x="216" y="-14"/>
      <point x="226" y="-2"/>
      <point x="229" y="13" type="curve" smooth="yes"/>
      <point x="254" y="114"/>
      <point x="275" y="158"/>
      <point x="296" y="257" type="curve" smooth="yes"/>
      <point x="299" y="269"/>
      <point x="300" y="271"/>
      <point x="301" y="263" type="curve"/>
      <point x="327" y="162"/>
      <point x="340" y="108"/>
      <point x="366" y="10" type="curve" smooth="yes"/>
      <point x="369" y="-4"/>
      <point x="388" y="-10"/>
      <point x="394" y="-10" type="curve" smooth="yes"/>
      <point x="405" y="-10"/>
      <point x="421" y="-2"/>
      <point x="424" y="13" type="curve" smooth="yes"/>
      <point x="534" y="493" type="line"/>
      <point x="541" y="527"/>
      <point x="553" y="553"/>
      <point x="572" y="558" type="curve" smooth="yes"/>
      <point x="582" y="562"/>
      <point x="586" y="565"/>
      <point x="586" y="569" type="curve" smooth="yes"/>
      <point x="586" y="574"/>
      <point x="579" y="576"/>
      <point x="569" y="576" type="curve" smooth="yes"/>
      <point x="553" y="576"/>
      <point x="542" y="574"/>
      <point x="521" y="574" type="curve" smooth="yes"/>
      <point x="508" y="574"/>
      <point x="499" y="574"/>
      <point x="485" y="574" type="curve" smooth="yes"/>
      <point x="479" y="574"/>
      <point x="474" y="573"/>
      <point x="474" y="569" type="curve" smooth="yes"/>
      <point x="474" y="563"/>
      <point x="482" y="560"/>
      <point x="487" y="558" type="curve" smooth="yes"/>
      <point x="507" y="554"/>
      <point x="511" y="545"/>
      <point x="512" y="521" type="curve" smooth="yes"/>
      <point x="512" y="514"/>
      <point x="513" y="503"/>
      <point x="511" y="494" type="curve"/>
      <point x="476" y="314"/>
      <point x="443" y="219"/>
      <point x="427" y="141" type="curve"/>
      <point x="425" y="133"/>
      <point x="422" y="130"/>
      <point x="421" y="136" type="curve" smooth="yes"/>
      <point x="361" y="334" type="line"/>
      <point x="360" y="340"/>
      <point x="362" y="359"/>
      <point x="365" y="368" type="curve" smooth="yes"/>
      <point x="375" y="405"/>
      <point x="394" y="486"/>
      <point x="398" y="503" type="curve" smooth="yes"/>
      <point x="409" y="539"/>
      <point x="409" y="551"/>
      <point x="434" y="557" type="curve" smooth="yes"/>
      <point x="445" y="559"/>
      <point x="450" y="563"/>
      <point x="450" y="569" type="curve" smooth="yes"/>
      <point x="450" y="574"/>
      <point x="443" y="576"/>
      <point x="434" y="576" type="curve" smooth="yes"/>
      <point x="421" y="576"/>
      <point x="413" y="573"/>
      <point x="400" y="573" type="curve" smooth="yes"/>
      <point x="389" y="573"/>
      <point x="382" y="575"/>
      <point x="367" y="575" type="curve" smooth="yes"/>
      <point x="357" y="575"/>
      <point x="351" y="574"/>
      <point x="351" y="566" type="curve" smooth="yes"/>
      <point x="351" y="554"/>
      <point x="384" y="558"/>
      <point x="384" y="533" type="curve" smooth="yes"/>
      <point x="384" y="528"/>
      <point x="382" y="521"/>
      <point x="380" y="515" type="curve"/>
      <point x="377" y="500"/>
      <point x="358" y="448"/>
      <point x="353" y="416" type="curve" smooth="yes"/>
      <point x="351" y="401"/>
      <point x="348" y="402"/>
      <point x="345" y="415" type="curve" smooth="yes"/>
      <point x="340" y="432"/>
      <point x="322" y="494"/>
      <point x="313" y="529" type="curve" smooth="yes"/>
      <point x="313" y="532"/>
      <point x="312" y="535"/>
      <point x="312" y="537" type="curve" smooth="yes"/>
      <point x="312" y="558"/>
      <point x="340" y="559"/>
      <point x="340" y="568" type="curve" smooth="yes"/>
      <point x="340" y="573"/>
      <point x="331" y="575"/>
      <point x="317" y="575" type="curve" smooth="yes"/>
      <point x="309" y="575"/>
      <point x="288" y="573"/>
      <point x="266" y="573" type="curve" smooth="yes"/>
      <point x="239" y="573"/>
      <point x="220" y="576"/>
      <point x="192" y="576" type="curve" smooth="yes"/>
      <point x="185" y="576"/>
      <point x="180" y="574"/>
      <point x="180" y="569" type="curve" smooth="yes"/>
      <point x="180" y="564"/>
      <point x="184" y="559"/>
      <point x="194" y="556" type="curve" smooth="yes"/>
      <point x="227" y="552"/>
      <point x="227" y="534"/>
      <point x="234" y="506" type="curve" smooth="yes"/>
      <point x="281" y="346" type="line" smooth="yes"/>
      <point x="284" y="335"/>
      <point x="286" y="328"/>
      <point x="286" y="322" type="curve" smooth="yes"/>
      <point x="286" y="316"/>
      <point x="285" y="310"/>
      <point x="282" y="302" type="curve" smooth="yes"/>
      <point x="242" y="128" type="line"/>
      <point x="239" y="118"/>
      <point x="238" y="115"/>
      <point x="234" y="129" type="curve" smooth="yes"/>
      <point x="196" y="260"/>
      <point x="173" y="338"/>
      <point x="131" y="501" type="curve"/>
      <point x="128" y="509"/>
      <point x="126" y="523"/>
      <point x="126" y="533" type="curve" smooth="yes"/>
      <point x="126" y="544"/>
      <point x="128" y="553"/>
      <point x="140" y="555" type="curve" smooth="yes"/>
      <point x="159" y="559"/>
      <point x="166" y="561"/>
      <point x="166" y="567" type="curve" smooth="yes"/>
      <point x="166" y="573"/>
      <point x="160" y="575"/>
      <point x="151" y="575" type="curve" smooth="yes"/>
      <point x="136" y="575"/>
      <point x="109" y="573"/>
      <point x="82" y="573" type="curve" smooth="yes"/>
      <point x="57" y="573"/>
      <point x="38" y="576"/>
      <point x="11" y="576" type="curve" smooth="yes"/>
      <point x="5" y="576"/>
      <point x="0" y="574"/>
      <point x="0" y="569" type="curve" smooth="yes"/>
      <point x="0" y="564"/>
      <point x="4" y="561"/>
      <point x="13" y="557" type="curve" smooth="yes"/>
      <point x="25" y="551"/>
      <point x="35" y="542"/>
      <point x="40" y="520" type="curve"/>
      <point x="177" y="11" type="line" smooth="yes"/>
      <point x="182" y="-6"/>
      <point x="193" y="-14"/>
    </contour>
  </outline>
</glyph>
<glyph name="X" format="1">
  <advance width="423"/>
  <unicode hex="0058"/>
  <outline>
    <contour>
      <point x="12" y="-4" type="curve" smooth="yes"/>
      <point x="31" y="-4"/>
      <point x="65" y="0"/>
      <point x="90" y="0" type="curve" smooth="yes"/>
      <point x="109" y="0"/>
      <point x="138" y="0"/>
      <point x="148" y="0" type="curve" smooth="yes"/>
      <point x="157" y="0"/>
      <point x="164" y="1"/>
      <point x="164" y="6" type="curve" smooth="yes"/>
      <point x="164" y="12"/>
      <point x="159" y="15"/>
      <point x="146" y="19" type="curve"/>
      <point x="114" y="25"/>
      <point x="100" y="29"/>
      <point x="100" y="45" type="curve" smooth="yes"/>
      <point x="100" y="52"/>
      <point x="104" y="62"/>
      <point x="112" y="76" type="curve" smooth="yes"/>
      <point x="190" y="223" type="line" smooth="yes"/>
      <point x="195" y="231"/>
      <point x="198" y="232"/>
      <point x="204" y="218" type="curve" smooth="yes"/>
      <point x="258" y="92" type="line"/>
      <point x="265" y="79"/>
      <point x="268" y="68"/>
      <point x="268" y="59" type="curve" smooth="yes"/>
      <point x="268" y="39"/>
      <point x="266" y="26"/>
      <point x="241" y="20" type="curve" smooth="yes"/>
      <point x="233" y="17"/>
      <point x="222" y="13"/>
      <point x="222" y="7" type="curve" smooth="yes"/>
      <point x="222" y="2"/>
      <point x="229" y="1"/>
      <point x="241" y="1" type="curve" smooth="yes"/>
      <point x="256" y="1"/>
      <point x="282" y="2"/>
      <point x="309" y="2" type="curve" smooth="yes"/>
      <point x="339" y="2"/>
      <point x="382" y="-4"/>
      <point x="401" y="-4" type="curve" smooth="yes"/>
      <point x="411" y="-4"/>
      <point x="419" y="-2"/>
      <point x="419" y="3" type="curve" smooth="yes"/>
      <point x="419" y="9"/>
      <point x="413" y="12"/>
      <point x="401" y="16" type="curve" smooth="yes"/>
      <point x="389" y="20"/>
      <point x="366" y="52"/>
      <point x="351" y="89" type="curve" smooth="yes"/>
      <point x="257" y="293" type="line"/>
      <point x="252" y="306"/>
      <point x="255" y="311"/>
      <point x="263" y="330" type="curve" smooth="yes"/>
      <point x="330" y="478" type="line" smooth="yes"/>
      <point x="354" y="532"/>
      <point x="373" y="554"/>
      <point x="399" y="559" type="curve" smooth="yes"/>
      <point x="412" y="563"/>
      <point x="417" y="566"/>
      <point x="417" y="572" type="curve" smooth="yes"/>
      <point x="417" y="577"/>
      <point x="411" y="579"/>
      <point x="399" y="579" type="curve" smooth="yes"/>
      <point x="384" y="579"/>
      <point x="353" y="575"/>
      <point x="329" y="575" type="curve" smooth="yes"/>
      <point x="311" y="575"/>
      <point x="295" y="575"/>
      <point x="280" y="575" type="curve" smooth="yes"/>
      <point x="269" y="575"/>
      <point x="263" y="574"/>
      <point x="263" y="569" type="curve" smooth="yes"/>
      <point x="263" y="563"/>
      <point x="273" y="557"/>
      <point x="281" y="556" type="curve" smooth="yes"/>
      <point x="308" y="555"/>
      <point x="317" y="541"/>
      <point x="317" y="528" type="curve" smooth="yes"/>
      <point x="317" y="516"/>
      <point x="309" y="502"/>
      <point x="300" y="482" type="curve" smooth="yes"/>
      <point x="251" y="355" type="line" smooth="yes"/>
      <point x="245" y="341"/>
      <point x="240" y="338"/>
      <point x="232" y="356" type="curve" smooth="yes"/>
      <point x="170" y="482" type="line" smooth="yes"/>
      <point x="158" y="509"/>
      <point x="153" y="524"/>
      <point x="153" y="536" type="curve" smooth="yes"/>
      <point x="153" y="549"/>
      <point x="168" y="555"/>
      <point x="185" y="559" type="curve" smooth="yes"/>
      <point x="195" y="563"/>
      <point x="199" y="566"/>
      <point x="199" y="571" type="curve" smooth="yes"/>
      <point x="199" y="576"/>
      <point x="191" y="578"/>
      <point x="181" y="578" type="curve" smooth="yes"/>
      <point x="169" y="578"/>
      <point x="145" y="577"/>
      <point x="119" y="577" type="curve" smooth="yes"/>
      <point x="87" y="577"/>
      <point x="49" y="580"/>
      <point x="27" y="580" type="curve" smooth="yes"/>
      <point x="16" y="580"/>
      <point x="9" y="578"/>
      <point x="9" y="573" type="curve" smooth="yes"/>
      <point x="9" y="568"/>
      <point x="16" y="564"/>
      <point x="27" y="560" type="curve" smooth="yes"/>
      <point x="41" y="553"/>
      <point x="53" y="538"/>
      <point x="88" y="473" type="curve" smooth="yes"/>
      <point x="174" y="298" type="line" smooth="yes"/>
      <point x="188" y="273"/>
      <point x="180" y="258"/>
      <point x="171" y="239" type="curve"/>
      <point x="97" y="99" type="line" smooth="yes"/>
      <point x="72" y="53"/>
      <point x="34" y="24"/>
      <point x="20" y="19" type="curve" smooth="yes"/>
      <point x="2" y="13"/>
      <point x="-3" y="8"/>
      <point x="-3" y="2" type="curve" smooth="yes"/>
      <point x="-3" y="-3"/>
      <point x="3" y="-4"/>
    </contour>
  </outline>
</glyph>
<glyph name="Y" format="1">
  <advance width="356"/>
  <unicode hex="0059"/>
  <outline>
    <contour>
      <point x="111" y="-5" type="curve" smooth="yes"/>
      <point x="144" y="-5"/>
      <point x="159" y="-2"/>
      <point x="189" y="-2" type="curve" smooth="yes"/>
      <point x="218" y="-2"/>
      <point x="229" y="-5"/>
      <point x="263" y="-5" type="curve" smooth="yes"/>
      <point x="273" y="-5"/>
      <point x="280" y="-3"/>
      <point x="280" y="1" type="curve" smooth="yes"/>
      <point x="280" y="6"/>
      <point x="275" y="9"/>
      <point x="264" y="11" type="curve" smooth="yes"/>
      <point x="238" y="16"/>
      <point x="223" y="33"/>
      <point x="223" y="66" type="curve" smooth="yes"/>
      <point x="223" y="243" type="line" smooth="yes"/>
      <point x="223" y="278"/>
      <point x="223" y="285"/>
      <point x="235" y="323" type="curve" smooth="yes"/>
      <point x="258" y="385"/>
      <point x="274" y="414"/>
      <point x="295" y="482" type="curve" smooth="yes"/>
      <point x="313" y="531"/>
      <point x="325" y="551"/>
      <point x="346" y="557" type="curve" smooth="yes"/>
      <point x="359" y="562"/>
      <point x="374" y="566"/>
      <point x="374" y="571" type="curve" smooth="yes"/>
      <point x="374" y="576"/>
      <point x="366" y="578"/>
      <point x="356" y="578" type="curve" smooth="yes"/>
      <point x="342" y="578"/>
      <point x="317" y="576"/>
      <point x="292" y="576" type="curve" smooth="yes"/>
      <point x="274" y="576"/>
      <point x="262" y="577"/>
      <point x="242" y="577" type="curve" smooth="yes"/>
      <point x="233" y="577"/>
      <point x="225" y="575"/>
      <point x="225" y="570" type="curve" smooth="yes"/>
      <point x="225" y="566"/>
      <point x="234" y="561"/>
      <point x="240" y="560" type="curve" smooth="yes"/>
      <point x="267" y="558"/>
      <point x="276" y="548"/>
      <point x="275" y="526" type="curve" smooth="yes"/>
      <point x="275" y="517"/>
      <point x="273" y="505"/>
      <point x="269" y="490" type="curve" smooth="yes"/>
      <point x="257" y="458"/>
      <point x="230" y="390"/>
      <point x="221" y="368" type="curve" smooth="yes"/>
      <point x="212" y="343"/>
      <point x="208" y="324"/>
      <point x="204" y="324" type="curve" smooth="yes"/>
      <point x="201" y="324"/>
      <point x="196" y="336"/>
      <point x="189" y="358" type="curve" smooth="yes"/>
      <point x="133" y="514" type="line" smooth="yes"/>
      <point x="131" y="524"/>
      <point x="126" y="533"/>
      <point x="126" y="541" type="curve" smooth="yes"/>
      <point x="126" y="552"/>
      <point x="137" y="557"/>
      <point x="155" y="559" type="curve" smooth="yes"/>
      <point x="166" y="562"/>
      <point x="172" y="565"/>
      <point x="172" y="570" type="curve" smooth="yes"/>
      <point x="172" y="575"/>
      <point x="164" y="576"/>
      <point x="152" y="576" type="curve" smooth="yes"/>
      <point x="138" y="576"/>
      <point x="120" y="575"/>
      <point x="99" y="575" type="curve" smooth="yes"/>
      <point x="68" y="575"/>
      <point x="40" y="577"/>
      <point x="20" y="577" type="curve" smooth="yes"/>
      <point x="9" y="577"/>
      <point x="0" y="575"/>
      <point x="0" y="571" type="curve" smooth="yes"/>
      <point x="0" y="565"/>
      <point x="6" y="565"/>
      <point x="20" y="558" type="curve" smooth="yes"/>
      <point x="33" y="551"/>
      <point x="39" y="516"/>
      <point x="46" y="496" type="curve" smooth="yes"/>
      <point x="132" y="291" type="line"/>
      <point x="138" y="271"/>
      <point x="143" y="250"/>
      <point x="143" y="226" type="curve" smooth="yes"/>
      <point x="143" y="66" type="line" smooth="yes"/>
      <point x="143" y="31"/>
      <point x="130" y="16"/>
      <point x="107" y="11" type="curve" smooth="yes"/>
      <point x="97" y="9"/>
      <point x="92" y="6"/>
      <point x="92" y="1" type="curve" smooth="yes"/>
      <point x="92" y="-3"/>
      <point x="100" y="-5"/>
    </contour>
  </outline>
</glyph>
<glyph name="Z" format="1">
  <advance width="323"/>
  <unicode hex="005A"/>
  <outline>
    <contour>
      <point x="287" y="-5" type="curve" smooth="yes"/>
      <point x="293" y="-5"/>
      <point x="295" y="4"/>
      <point x="297" y="12" type="curve" smooth="yes"/>
      <point x="303" y="36"/>
      <point x="316" y="129"/>
      <point x="316" y="150" type="curve" smooth="yes"/>
      <point x="316" y="159"/>
      <point x="313" y="163"/>
      <point x="306" y="163" type="curve" smooth="yes"/>
      <point x="296" y="163"/>
      <point x="293" y="150"/>
      <point x="291" y="141" type="curve" smooth="yes"/>
      <point x="275" y="62"/>
      <point x="259" y="29"/>
      <point x="228" y="24" type="curve" smooth="yes"/>
      <point x="206" y="21"/>
      <point x="184" y="19"/>
      <point x="167" y="19" type="curve" smooth="yes"/>
      <point x="147" y="19"/>
      <point x="128" y="22"/>
      <point x="120" y="24" type="curve"/>
      <point x="112" y="26"/>
      <point x="111" y="33"/>
      <point x="111" y="39" type="curve" smooth="yes"/>
      <point x="111" y="43"/>
      <point x="112" y="47"/>
      <point x="113" y="49" type="curve" smooth="yes"/>
      <point x="166" y="207"/>
      <point x="214" y="321"/>
      <point x="275" y="482" type="curve" smooth="yes"/>
      <point x="308" y="557" type="line" smooth="yes"/>
      <point x="310" y="562"/>
      <point x="305" y="575"/>
      <point x="302" y="575" type="curve" smooth="yes"/>
      <point x="261" y="574"/>
      <point x="220" y="572"/>
      <point x="175" y="572" type="curve" smooth="yes"/>
      <point x="150" y="572"/>
      <point x="124" y="572"/>
      <point x="105" y="572" type="curve" smooth="yes"/>
      <point x="86" y="572"/>
      <point x="65" y="582"/>
      <point x="58" y="588" type="curve" smooth="yes"/>
      <point x="52" y="593"/>
      <point x="44" y="602"/>
      <point x="41" y="602" type="curve" smooth="yes"/>
      <point x="38" y="602"/>
      <point x="33" y="600"/>
      <point x="32" y="585" type="curve" smooth="yes"/>
      <point x="31" y="543"/>
      <point x="23" y="490"/>
      <point x="20" y="469" type="curve"/>
      <point x="18" y="460"/>
      <point x="16" y="448"/>
      <point x="17" y="440" type="curve" smooth="yes"/>
      <point x="18" y="433"/>
      <point x="22" y="429"/>
      <point x="25" y="430" type="curve" smooth="yes"/>
      <point x="37" y="432"/>
      <point x="43" y="455"/>
      <point x="45" y="468" type="curve"/>
      <point x="52" y="513"/>
      <point x="58" y="538"/>
      <point x="91" y="545" type="curve" smooth="yes"/>
      <point x="100" y="549"/>
      <point x="121" y="551"/>
      <point x="129" y="551" type="curve" smooth="yes"/>
      <point x="150" y="551"/>
      <point x="183" y="550"/>
      <point x="196" y="549" type="curve"/>
      <point x="200" y="548"/>
      <point x="202" y="547"/>
      <point x="203" y="545" type="curve" smooth="yes"/>
      <point x="204" y="544"/>
      <point x="204" y="542"/>
      <point x="203" y="539" type="curve" smooth="yes"/>
      <point x="146" y="369"/>
      <point x="99" y="258"/>
      <point x="37" y="93" type="curve" smooth="yes"/>
      <point x="26" y="66"/>
      <point x="10" y="20"/>
      <point x="10" y="11" type="curve"/>
      <point x="10" y="11"/>
      <point x="10" y="-3"/>
      <point x="13" y="-3" type="curve" smooth="yes"/>
      <point x="56" y="-3" type="line" smooth="yes"/>
      <point x="77" y="-3"/>
      <point x="99" y="-2"/>
      <point x="121" y="-2" type="curve" smooth="yes"/>
      <point x="170" y="-2"/>
      <point x="224" y="-5"/>
    </contour>
  </outline>
</glyph>
<glyph name="backslash" format="1">
  <advance width="241"/>
  <unicode hex="005C"/>
  <outline>
    <contour>
      <point x="220" y="-62" type="curve" smooth="yes"/>
      <point x="227" y="-62"/>
      <point x="231" y="-61"/>
      <point x="231" y="-57" type="curve" smooth="yes"/>
      <point x="41" y="648" type="line" smooth="yes"/>
      <point x="40" y="657"/>
      <point x="33" y="664"/>
      <point x="24" y="664" type="curve" smooth="yes"/>
      <point x="17" y="664"/>
      <point x="13" y="663"/>
      <point x="14" y="658" type="curve" smooth="yes"/>
      <point x="205" y="-46" type="line" smooth="yes"/>
      <point x="205" y="-54"/>
      <point x="213" y="-62"/>
    </contour>
  </outline>
</glyph>
<glyph name="grave" format="1">
  <advance width="132"/>
  <unicode hex="0060"/>
  <outline>
    <contour>
      <point x="111" y="486" type="curve" smooth="yes"/>
      <point x="115" y="484"/>
      <point x="116" y="484"/>
      <point x="118" y="491" type="curve" smooth="yes"/>
      <point x="119" y="495"/>
      <point x="119" y="502"/>
      <point x="118" y="510" type="curve" smooth="yes"/>
      <point x="116" y="549"/>
      <point x="96" y="641"/>
      <point x="87" y="671" type="curve" smooth="yes"/>
      <point x="83" y="682"/>
      <point x="72" y="701"/>
      <point x="63" y="701" type="curve" smooth="yes"/>
      <point x="39" y="701"/>
      <point x="17" y="700"/>
      <point x="13" y="687" type="curve" smooth="yes"/>
      <point x="11" y="679"/>
      <point x="14" y="674"/>
      <point x="18" y="665" type="curve" smooth="yes"/>
      <point x="32" y="625"/>
      <point x="74" y="542"/>
      <point x="95" y="510" type="curve" smooth="yes"/>
      <point x="101" y="497"/>
      <point x="108" y="487"/>
    </contour>
  </outline>
</glyph>
<glyph name="a" format="1">
  <advance width="265"/>
  <unicode hex="0061"/>
  <outline>
    <contour>
      <point x="71" y="-14" type="curve" smooth="yes"/>
      <point x="98" y="-14"/>
      <point x="130" y="10"/>
      <point x="149" y="52" type="curve"/>
      <point x="151" y="52" type="line"/>
      <point x="158" y="9"/>
      <point x="183" y="-14"/>
      <point x="207" y="-14" type="curve" smooth="yes"/>
      <point x="221" y="-14"/>
      <point x="245" y="5"/>
      <point x="261" y="31" type="curve" smooth="yes"/>
      <point x="263" y="35"/>
      <point x="265" y="43"/>
      <point x="265" y="47" type="curve" smooth="yes"/>
      <point x="265" y="50"/>
      <point x="265" y="54"/>
      <point x="263" y="54" type="curve" smooth="yes"/>
      <point x="260" y="54"/>
      <point x="259" y="50"/>
      <point x="256" y="45" type="curve" smooth="yes"/>
      <point x="252" y="35"/>
      <point x="243" y="29"/>
      <point x="235" y="29" type="curve" smooth="yes"/>
      <point x="219" y="29"/>
      <point x="213" y="47"/>
      <point x="213" y="79" type="curve" smooth="yes"/>
      <point x="216" y="364" type="line" smooth="yes"/>
      <point x="217" y="414"/>
      <point x="193" y="454"/>
      <point x="161" y="454" type="curve" smooth="yes"/>
      <point x="133" y="454"/>
      <point x="86" y="418"/>
      <point x="57" y="378" type="curve" smooth="yes"/>
      <point x="41" y="356"/>
      <point x="32" y="329"/>
      <point x="32" y="308" type="curve" smooth="yes"/>
      <point x="32" y="303"/>
      <point x="34" y="299"/>
      <point x="38" y="299" type="curve" smooth="yes"/>
      <point x="51" y="299"/>
      <point x="83" y="318"/>
      <point x="90" y="334" type="curve" smooth="yes"/>
      <point x="91" y="339"/>
      <point x="90" y="347"/>
      <point x="90" y="352" type="curve" smooth="yes"/>
      <point x="90" y="372"/>
      <point x="91" y="386"/>
      <point x="95" y="395" type="curve" smooth="yes"/>
      <point x="99" y="407"/>
      <point x="108" y="416"/>
      <point x="120" y="416" type="curve" smooth="yes"/>
      <point x="138" y="416"/>
      <point x="149" y="385"/>
      <point x="148" y="347" type="curve" smooth="yes"/>
      <point x="147" y="260" type="line" smooth="yes"/>
      <point x="146" y="231"/>
      <point x="146" y="229"/>
      <point x="129" y="217" type="curve" smooth="yes"/>
      <point x="66" y="171" type="line" smooth="yes"/>
      <point x="36" y="150"/>
      <point x="22" y="127"/>
      <point x="22" y="81" type="curve" smooth="yes"/>
      <point x="22" y="37"/>
      <point x="48" y="-14"/>
    </contour>
    <contour>
      <point x="111" y="23" type="curve" smooth="yes"/>
      <point x="100" y="23"/>
      <point x="88" y="51"/>
      <point x="88" y="97" type="curve" smooth="yes"/>
      <point x="88" y="131"/>
      <point x="96" y="165"/>
      <point x="133" y="198" type="curve" smooth="yes"/>
      <point x="138" y="203"/>
      <point x="141" y="204"/>
      <point x="143" y="204" type="curve" smooth="yes"/>
      <point x="146" y="204"/>
      <point x="148" y="196"/>
      <point x="147" y="177" type="curve" smooth="yes"/>
      <point x="146" y="108" type="line" smooth="yes"/>
      <point x="145" y="75"/>
      <point x="144" y="62"/>
      <point x="140" y="53" type="curve" smooth="yes"/>
      <point x="133" y="34"/>
      <point x="123" y="23"/>
    </contour>
  </outline>
</glyph>
<glyph name="b" format="1">
  <advance width="323"/>
  <unicode hex="0062"/>
  <outline>
    <contour>
      <point x="174" y="-14" type="curve" smooth="yes"/>
      <point x="251" y="-14"/>
      <point x="305" y="89"/>
      <point x="305" y="239" type="curve" smooth="yes"/>
      <point x="305" y="360"/>
      <point x="258" y="454"/>
      <point x="198" y="454" type="curve" smooth="yes"/>
      <point x="173" y="454"/>
      <point x="137" y="429"/>
      <point x="112" y="392" type="curve"/>
      <point x="105" y="393"/>
      <point x="105" y="400"/>
      <point x="105" y="428" type="curve" smooth="yes"/>
      <point x="105" y="552" type="line" smooth="yes"/>
      <point x="105" y="608"/>
      <point x="108" y="650"/>
      <point x="108" y="655" type="curve" smooth="yes"/>
      <point x="108" y="661"/>
      <point x="105" y="664"/>
      <point x="103" y="664" type="curve" smooth="yes"/>
      <point x="98" y="664"/>
      <point x="92" y="661"/>
      <point x="86" y="655" type="curve" smooth="yes"/>
      <point x="74" y="645"/>
      <point x="36" y="632"/>
      <point x="12" y="627" type="curve" smooth="yes"/>
      <point x="9" y="626"/>
      <point x="6" y="624"/>
      <point x="6" y="620" type="curve" smooth="yes"/>
      <point x="6" y="616"/>
      <point x="9" y="613"/>
      <point x="12" y="612" type="curve" smooth="yes"/>
      <point x="32" y="602"/>
      <point x="35" y="593"/>
      <point x="35" y="558" type="curve" smooth="yes"/>
      <point x="35" y="81" type="line" smooth="yes"/>
      <point x="35" y="56"/>
      <point x="29" y="21"/>
      <point x="29" y="9" type="curve" smooth="yes"/>
      <point x="29" y="2"/>
      <point x="34" y="-3"/>
      <point x="36" y="-3" type="curve" smooth="yes"/>
      <point x="39" y="-3"/>
      <point x="40" y="-1"/>
      <point x="41" y="2" type="curve" smooth="yes"/>
      <point x="45" y="8"/>
      <point x="50" y="15"/>
      <point x="59" y="15" type="curve" smooth="yes"/>
      <point x="68" y="15"/>
      <point x="100" y="7"/>
      <point x="119" y="-1" type="curve" smooth="yes"/>
      <point x="136" y="-8"/>
      <point x="155" y="-14"/>
    </contour>
    <contour>
      <point x="169" y="3" type="curve" smooth="yes"/>
      <point x="130" y="3"/>
      <point x="105" y="45"/>
      <point x="105" y="127" type="curve" smooth="yes"/>
      <point x="105" y="355" type="line"/>
      <point x="119" y="386"/>
      <point x="137" y="408"/>
      <point x="161" y="408" type="curve" smooth="yes"/>
      <point x="207" y="408"/>
      <point x="226" y="293"/>
      <point x="226" y="205" type="curve" smooth="yes"/>
      <point x="226" y="90"/>
      <point x="204" y="3"/>
    </contour>
  </outline>
</glyph>
<glyph name="c" format="1">
  <advance width="248"/>
  <unicode hex="0063"/>
  <outline>
    <contour>
      <point x="125" y="-13" type="curve" smooth="yes"/>
      <point x="161" y="-13"/>
      <point x="191" y="8"/>
      <point x="210" y="53" type="curve" smooth="yes"/>
      <point x="216" y="67"/>
      <point x="221" y="82"/>
      <point x="221" y="92" type="curve" smooth="yes"/>
      <point x="221" y="98"/>
      <point x="222" y="103"/>
      <point x="220" y="103" type="curve" smooth="yes"/>
      <point x="217" y="103"/>
      <point x="216" y="100"/>
      <point x="215" y="96" type="curve" smooth="yes"/>
      <point x="199" y="59"/>
      <point x="183" y="44"/>
      <point x="162" y="44" type="curve" smooth="yes"/>
      <point x="114" y="44"/>
      <point x="87" y="117"/>
      <point x="87" y="233" type="curve" smooth="yes"/>
      <point x="87" y="349"/>
      <point x="109" y="432"/>
      <point x="142" y="432" type="curve" smooth="yes"/>
      <point x="157" y="432"/>
      <point x="172" y="402"/>
      <point x="185" y="371" type="curve" smooth="yes"/>
      <point x="189" y="361"/>
      <point x="195" y="357"/>
      <point x="200" y="357" type="curve" smooth="yes"/>
      <point x="211" y="357"/>
      <point x="229" y="376"/>
      <point x="229" y="392" type="curve" smooth="yes"/>
      <point x="229" y="405"/>
      <point x="222" y="418"/>
      <point x="212" y="429" type="curve" smooth="yes"/>
      <point x="196" y="444"/>
      <point x="175" y="454"/>
      <point x="155" y="454" type="curve" smooth="yes"/>
      <point x="81" y="454"/>
      <point x="19" y="348"/>
      <point x="19" y="198" type="curve" smooth="yes"/>
      <point x="19" y="78"/>
      <point x="64" y="-13"/>
    </contour>
  </outline>
</glyph>
<glyph name="d" format="1">
  <advance width="333"/>
  <unicode hex="0064"/>
  <outline>
    <contour>
      <point x="218" y="-19" type="curve" smooth="yes"/>
      <point x="222" y="-19"/>
      <point x="222" y="-19"/>
      <point x="231" y="-13" type="curve" smooth="yes"/>
      <point x="269" y="7"/>
      <point x="294" y="16"/>
      <point x="317" y="19" type="curve" smooth="yes"/>
      <point x="327" y="21"/>
      <point x="331" y="26"/>
      <point x="331" y="32" type="curve" smooth="yes"/>
      <point x="331" y="37"/>
      <point x="328" y="38"/>
      <point x="321" y="37" type="curve" smooth="yes"/>
      <point x="312" y="36"/>
      <point x="302" y="35"/>
      <point x="298" y="35" type="curve" smooth="yes"/>
      <point x="289" y="35"/>
      <point x="286" y="50"/>
      <point x="286" y="86" type="curve" smooth="yes"/>
      <point x="286" y="522" type="line" smooth="yes"/>
      <point x="286" y="612"/>
      <point x="290" y="646"/>
      <point x="290" y="658" type="curve"/>
      <point x="289" y="662"/>
      <point x="288" y="664"/>
      <point x="286" y="664" type="curve" smooth="yes"/>
      <point x="284" y="664"/>
      <point x="282" y="663"/>
      <point x="276" y="660" type="curve" smooth="yes"/>
      <point x="263" y="653"/>
      <point x="237" y="645"/>
      <point x="195" y="629" type="curve" smooth="yes"/>
      <point x="185" y="625"/>
      <point x="183" y="623"/>
      <point x="183" y="620" type="curve" smooth="yes"/>
      <point x="183" y="616"/>
      <point x="185" y="613"/>
      <point x="188" y="612" type="curve" smooth="yes"/>
      <point x="209" y="610"/>
      <point x="216" y="602"/>
      <point x="216" y="562" type="curve" smooth="yes"/>
      <point x="216" y="453" type="line" smooth="yes"/>
      <point x="216" y="443"/>
      <point x="213" y="439"/>
      <point x="211" y="439" type="curve" smooth="yes"/>
      <point x="209" y="439"/>
      <point x="207" y="440"/>
      <point x="203" y="442" type="curve" smooth="yes"/>
      <point x="194" y="448"/>
      <point x="175" y="454"/>
      <point x="158" y="454" type="curve" smooth="yes"/>
      <point x="67" y="454"/>
      <point x="19" y="341"/>
      <point x="19" y="209" type="curve" smooth="yes"/>
      <point x="19" y="77"/>
      <point x="65" y="-14"/>
      <point x="133" y="-14" type="curve" smooth="yes"/>
      <point x="175" y="-14"/>
      <point x="202" y="30"/>
      <point x="215" y="64" type="curve"/>
      <point x="215" y="51" type="line" smooth="yes"/>
      <point x="215" y="34"/>
      <point x="212" y="4"/>
      <point x="212" y="-9" type="curve" smooth="yes"/>
      <point x="212" y="-12"/>
      <point x="217" y="-19"/>
    </contour>
    <contour>
      <point x="169" y="26" type="curve" smooth="yes"/>
      <point x="148" y="26"/>
      <point x="98" y="52"/>
      <point x="98" y="234" type="curve" smooth="yes"/>
      <point x="98" y="393"/>
      <point x="135" y="435"/>
      <point x="157" y="435" type="curve" smooth="yes"/>
      <point x="198" y="435"/>
      <point x="216" y="392"/>
      <point x="216" y="325" type="curve" smooth="yes"/>
      <point x="215" y="82" type="line"/>
      <point x="202" y="48"/>
      <point x="186" y="26"/>
    </contour>
  </outline>
</glyph>
<glyph name="e" format="1">
  <advance width="251"/>
  <unicode hex="0065"/>
  <outline>
    <contour>
      <point x="136" y="-13" type="curve" smooth="yes"/>
      <point x="173" y="-13"/>
      <point x="207" y="17"/>
      <point x="228" y="66" type="curve" smooth="yes"/>
      <point x="232" y="78"/>
      <point x="234" y="89"/>
      <point x="234" y="98" type="curve" smooth="yes"/>
      <point x="234" y="103"/>
      <point x="233" y="106"/>
      <point x="231" y="106" type="curve" smooth="yes"/>
      <point x="231" y="106"/>
      <point x="230" y="105"/>
      <point x="227" y="98" type="curve" smooth="yes"/>
      <point x="211" y="65"/>
      <point x="187" y="48"/>
      <point x="160" y="48" type="curve" smooth="yes"/>
      <point x="117" y="48"/>
      <point x="82" y="134"/>
      <point x="82" y="241" type="curve" smooth="yes"/>
      <point x="82" y="275"/>
      <point x="86" y="283"/>
      <point x="95" y="283" type="curve" smooth="yes"/>
      <point x="217" y="283" type="line" smooth="yes"/>
      <point x="230" y="283"/>
      <point x="236" y="294"/>
      <point x="236" y="317" type="curve" smooth="yes"/>
      <point x="236" y="396"/>
      <point x="198" y="452"/>
      <point x="146" y="452" type="curve" smooth="yes"/>
      <point x="77" y="452"/>
      <point x="18" y="348"/>
      <point x="18" y="223" type="curve" smooth="yes"/>
      <point x="18" y="81"/>
      <point x="65" y="-13"/>
    </contour>
    <contour>
      <point x="95" y="302" type="line" smooth="yes"/>
      <point x="91" y="302"/>
      <point x="89" y="306"/>
      <point x="89" y="316" type="curve" smooth="yes"/>
      <point x="89" y="373"/>
      <point x="114" y="436"/>
      <point x="137" y="436" type="curve" smooth="yes"/>
      <point x="160" y="436"/>
      <point x="179" y="393"/>
      <point x="179" y="339" type="curve" smooth="yes"/>
      <point x="179" y="320"/>
      <point x="178" y="310"/>
      <point x="175" y="309" type="curve" smooth="yes"/>
      <point x="165" y="303"/>
      <point x="155" y="302"/>
      <point x="139" y="302" type="curve" smooth="yes"/>
    </contour>
  </outline>
</glyph>
<glyph name="f" format="1">
  <advance width="195"/>
  <unicode hex="0066"/>
  <outline>
    <contour>
      <point x="26" y="0" type="curve" smooth="yes"/>
      <point x="47" y="0"/>
      <point x="70" y="4"/>
      <point x="89" y="4" type="curve" smooth="yes"/>
      <point x="109" y="4"/>
      <point x="138" y="0"/>
      <point x="159" y="0" type="curve" smooth="yes"/>
      <point x="167" y="0"/>
      <point x="170" y="1"/>
      <point x="170" y="6" type="curve" smooth="yes"/>
      <point x="170" y="12"/>
      <point x="165" y="14"/>
      <point x="158" y="15" type="curve" smooth="yes"/>
      <point x="129" y="21"/>
      <point x="121" y="27"/>
      <point x="121" y="50" type="curve" smooth="yes"/>
      <point x="121" y="407" type="line" smooth="yes"/>
      <point x="121" y="410"/>
      <point x="122" y="414"/>
      <point x="132" y="414" type="curve" smooth="yes"/>
      <point x="182" y="414" type="line" smooth="yes"/>
      <point x="183" y="414"/>
      <point x="186" y="415"/>
      <point x="187" y="417" type="curve" smooth="yes"/>
      <point x="188" y="422"/>
      <point x="190" y="428"/>
      <point x="190" y="433" type="curve" smooth="yes"/>
      <point x="190" y="436"/>
      <point x="187" y="440"/>
      <point x="182" y="440" type="curve" smooth="yes"/>
      <point x="126" y="440" type="line" smooth="yes"/>
      <point x="123" y="440"/>
      <point x="121" y="441"/>
      <point x="121" y="448" type="curve" smooth="yes"/>
      <point x="121" y="530" type="line" smooth="yes"/>
      <point x="121" y="598"/>
      <point x="145" y="638"/>
      <point x="167" y="638" type="curve" smooth="yes"/>
      <point x="183" y="638"/>
      <point x="192" y="625"/>
      <point x="205" y="598" type="curve" smooth="yes"/>
      <point x="208" y="582"/>
      <point x="215" y="566"/>
      <point x="232" y="566" type="curve" smooth="yes"/>
      <point x="244" y="566"/>
      <point x="256" y="577"/>
      <point x="256" y="606" type="curve" smooth="yes"/>
      <point x="256" y="642"/>
      <point x="229" y="666"/>
      <point x="184" y="666" type="curve" smooth="yes"/>
      <point x="137" y="666"/>
      <point x="51" y="619"/>
      <point x="51" y="461" type="curve" smooth="yes"/>
      <point x="51" y="445" type="line"/>
      <point x="40" y="440"/>
      <point x="33" y="436"/>
      <point x="18" y="429" type="curve" smooth="yes"/>
      <point x="17" y="428"/>
      <point x="14" y="427"/>
      <point x="14" y="426" type="curve" smooth="yes"/>
      <point x="14" y="422"/>
      <point x="20" y="414"/>
      <point x="22" y="414" type="curve"/>
      <point x="34" y="413"/>
      <point x="43" y="413"/>
      <point x="51" y="413" type="curve"/>
      <point x="51" y="50" type="line" smooth="yes"/>
      <point x="51" y="27"/>
      <point x="44" y="21"/>
      <point x="27" y="15" type="curve" smooth="yes"/>
      <point x="19" y="13"/>
      <point x="14" y="12"/>
      <point x="14" y="6" type="curve" smooth="yes"/>
      <point x="14" y="1"/>
      <point x="18" y="0"/>
    </contour>
  </outline>
</glyph>
<glyph name="g" format="1">
  <advance width="291"/>
  <unicode hex="0067"/>
  <outline>
    <contour>
      <point x="138" y="-213" type="curve" smooth="yes"/>
      <point x="212" y="-213"/>
      <point x="283" y="-123"/>
      <point x="283" y="-38" type="curve" smooth="yes"/>
      <point x="283" y="14"/>
      <point x="257" y="34"/>
      <point x="155" y="47" type="curve" smooth="yes"/>
      <point x="105" y="53"/>
      <point x="79" y="64"/>
      <point x="79" y="86" type="curve" smooth="yes"/>
      <point x="79" y="98"/>
      <point x="88" y="112"/>
      <point x="93" y="123" type="curve"/>
      <point x="90" y="132" type="line"/>
      <point x="79" y="118"/>
      <point x="70" y="100"/>
      <point x="44" y="90" type="curve" smooth="yes"/>
      <point x="28" y="79"/>
      <point x="21" y="70"/>
      <point x="21" y="61" type="curve" smooth="yes"/>
      <point x="21" y="8"/>
      <point x="49" y="-1"/>
      <point x="132" y="-15" type="curve" smooth="yes"/>
      <point x="205" y="-27"/>
      <point x="222" y="-38"/>
      <point x="222" y="-73" type="curve" smooth="yes"/>
      <point x="222" y="-110"/>
      <point x="211" y="-143"/>
      <point x="196" y="-164" type="curve" smooth="yes"/>
      <point x="185" y="-178"/>
      <point x="169" y="-185"/>
      <point x="142" y="-185" type="curve" smooth="yes"/>
      <point x="110" y="-185"/>
      <point x="80" y="-151"/>
      <point x="80" y="-109" type="curve" smooth="yes"/>
      <point x="80" y="-65"/>
      <point x="87" y="-38"/>
      <point x="111" y="-5" type="curve"/>
      <point x="96" y="3" type="line"/>
      <point x="71" y="-19"/>
      <point x="46" y="-40"/>
      <point x="31" y="-53" type="curve" smooth="yes"/>
      <point x="12" y="-68"/>
      <point x="6" y="-86"/>
      <point x="6" y="-114" type="curve" smooth="yes"/>
      <point x="6" y="-175"/>
      <point x="61" y="-213"/>
    </contour>
    <contour>
      <point x="136" y="124" type="curve" smooth="yes"/>
      <point x="110" y="124"/>
      <point x="93" y="188"/>
      <point x="93" y="290" type="curve" smooth="yes"/>
      <point x="93" y="375"/>
      <point x="112" y="440"/>
      <point x="133" y="440" type="curve" smooth="yes"/>
      <point x="160" y="440"/>
      <point x="176" y="392"/>
      <point x="176" y="297" type="curve" smooth="yes"/>
      <point x="176" y="192"/>
      <point x="164" y="124"/>
    </contour>
    <contour>
      <point x="129" y="106" type="curve" smooth="yes"/>
      <point x="193" y="106"/>
      <point x="241" y="203"/>
      <point x="241" y="319" type="curve" smooth="yes"/>
      <point x="241" y="349"/>
      <point x="243" y="374"/>
      <point x="244" y="386" type="curve" smooth="yes"/>
      <point x="245" y="394"/>
      <point x="253" y="398"/>
      <point x="266" y="398" type="curve" smooth="yes"/>
      <point x="284" y="398" type="line"/>
      <point x="286" y="398"/>
      <point x="288" y="399"/>
      <point x="290" y="401" type="curve" smooth="yes"/>
      <point x="295" y="404"/>
      <point x="297" y="408"/>
      <point x="297" y="413" type="curve" smooth="yes"/>
      <point x="297" y="418"/>
      <point x="293" y="423"/>
      <point x="288" y="423" type="curve" smooth="yes"/>
      <point x="281" y="423"/>
      <point x="260" y="421"/>
      <point x="249" y="421" type="curve" smooth="yes"/>
      <point x="235" y="421"/>
      <point x="225" y="422"/>
      <point x="203" y="432" type="curve" smooth="yes"/>
      <point x="183" y="441"/>
      <point x="165" y="456"/>
      <point x="137" y="456" type="curve" smooth="yes"/>
      <point x="76" y="456"/>
      <point x="21" y="382"/>
      <point x="21" y="277" type="curve" smooth="yes"/>
      <point x="21" y="183"/>
      <point x="73" y="106"/>
    </contour>
  </outline>
</glyph>
<glyph name="h" format="1">
  <advance width="326"/>
  <unicode hex="0068"/>
  <outline>
    <contour>
      <point x="22" y="-3" type="curve" smooth="yes"/>
      <point x="50" y="-3"/>
      <point x="54" y="0"/>
      <point x="78" y="0" type="curve" smooth="yes"/>
      <point x="104" y="0"/>
      <point x="104" y="-3"/>
      <point x="132" y="-3" type="curve" smooth="yes"/>
      <point x="143" y="-3"/>
      <point x="146" y="-1"/>
      <point x="146" y="4" type="curve" smooth="yes"/>
      <point x="146" y="8"/>
      <point x="141" y="10"/>
      <point x="134" y="13" type="curve" smooth="yes"/>
      <point x="124" y="17"/>
      <point x="113" y="21"/>
      <point x="113" y="37" type="curve" smooth="yes"/>
      <point x="113" y="319" type="line" smooth="yes"/>
      <point x="113" y="360"/>
      <point x="119" y="374"/>
      <point x="130" y="391" type="curve" smooth="yes"/>
      <point x="140" y="406"/>
      <point x="153" y="413"/>
      <point x="165" y="413" type="curve" smooth="yes"/>
      <point x="185" y="413"/>
      <point x="208" y="373"/>
      <point x="208" y="323" type="curve" smooth="yes"/>
      <point x="208" y="39" type="line" smooth="yes"/>
      <point x="208" y="24"/>
      <point x="198" y="18"/>
      <point x="188" y="13" type="curve" smooth="yes"/>
      <point x="180" y="9"/>
      <point x="175" y="9"/>
      <point x="175" y="4" type="curve" smooth="yes"/>
      <point x="175" y="-1"/>
      <point x="179" y="-3"/>
      <point x="189" y="-3" type="curve" smooth="yes"/>
      <point x="217" y="-3"/>
      <point x="220" y="0"/>
      <point x="244" y="0" type="curve" smooth="yes"/>
      <point x="268" y="0"/>
      <point x="271" y="-3"/>
      <point x="299" y="-3" type="curve" smooth="yes"/>
      <point x="309" y="-3"/>
      <point x="313" y="-1"/>
      <point x="313" y="4" type="curve" smooth="yes"/>
      <point x="313" y="8"/>
      <point x="308" y="10"/>
      <point x="300" y="13" type="curve" smooth="yes"/>
      <point x="290" y="17"/>
      <point x="278" y="24"/>
      <point x="278" y="39" type="curve" smooth="yes"/>
      <point x="278" y="318" type="line" smooth="yes"/>
      <point x="278" y="396"/>
      <point x="246" y="454"/>
      <point x="205" y="454" type="curve" smooth="yes"/>
      <point x="154" y="454"/>
      <point x="121" y="414"/>
      <point x="94" y="378" type="curve"/>
      <point x="118" y="380" type="line"/>
      <point x="115" y="393"/>
      <point x="113" y="412"/>
      <point x="113" y="428" type="curve" smooth="yes"/>
      <point x="113" y="521" type="line" smooth="yes"/>
      <point x="113" y="628"/>
      <point x="118" y="645"/>
      <point x="118" y="657" type="curve" smooth="yes"/>
      <point x="118" y="661"/>
      <point x="115" y="664"/>
      <point x="113" y="664" type="curve" smooth="yes"/>
      <point x="111" y="664"/>
      <point x="109" y="663"/>
      <point x="108" y="662" type="curve" smooth="yes"/>
      <point x="82" y="647"/>
      <point x="43" y="632"/>
      <point x="21" y="627" type="curve" smooth="yes"/>
      <point x="16" y="626"/>
      <point x="15" y="623"/>
      <point x="15" y="619" type="curve" smooth="yes"/>
      <point x="15" y="615"/>
      <point x="17" y="612"/>
      <point x="19" y="611" type="curve" smooth="yes"/>
      <point x="38" y="608"/>
      <point x="43" y="590"/>
      <point x="43" y="569" type="curve" smooth="yes"/>
      <point x="43" y="37" type="line" smooth="yes"/>
      <point x="44" y="21"/>
      <point x="31" y="17"/>
      <point x="20" y="13" type="curve" smooth="yes"/>
      <point x="11" y="10"/>
      <point x="8" y="8"/>
      <point x="8" y="4" type="curve" smooth="yes"/>
      <point x="8" y="-1"/>
      <point x="13" y="-3"/>
    </contour>
  </outline>
</glyph>
<glyph name="i" format="1">
  <advance width="167"/>
  <unicode hex="0069"/>
  <outline>
    <contour>
      <point x="24" y="-3" type="curve" smooth="yes"/>
      <point x="53" y="-3"/>
      <point x="58" y="2"/>
      <point x="83" y="2" type="curve" smooth="yes"/>
      <point x="110" y="2"/>
      <point x="116" y="-3"/>
      <point x="144" y="-3" type="curve" smooth="yes"/>
      <point x="152" y="-3"/>
      <point x="155" y="0"/>
      <point x="155" y="4" type="curve" smooth="yes"/>
      <point x="155" y="9"/>
      <point x="148" y="12"/>
      <point x="143" y="14" type="curve" smooth="yes"/>
      <point x="129" y="19"/>
      <point x="119" y="23"/>
      <point x="119" y="42" type="curve" smooth="yes"/>
      <point x="119" y="329" type="line" smooth="yes"/>
      <point x="119" y="374"/>
      <point x="124" y="448"/>
      <point x="124" y="464" type="curve" smooth="yes"/>
      <point x="124" y="467"/>
      <point x="119" y="469"/>
      <point x="117" y="469" type="curve" smooth="yes"/>
      <point x="113" y="469"/>
      <point x="107" y="466"/>
      <point x="103" y="462" type="curve" smooth="yes"/>
      <point x="87" y="443"/>
      <point x="70" y="425"/>
      <point x="30" y="406" type="curve" smooth="yes"/>
      <point x="24" y="402"/>
      <point x="22" y="402"/>
      <point x="22" y="398" type="curve" smooth="yes"/>
      <point x="22" y="393"/>
      <point x="24" y="388"/>
      <point x="28" y="387" type="curve" smooth="yes"/>
      <point x="47" y="381"/>
      <point x="49" y="359"/>
      <point x="49" y="329" type="curve" smooth="yes"/>
      <point x="49" y="42" type="line" smooth="yes"/>
      <point x="49" y="23"/>
      <point x="41" y="18"/>
      <point x="25" y="14" type="curve" smooth="yes"/>
      <point x="19" y="12"/>
      <point x="13" y="9"/>
      <point x="13" y="4" type="curve" smooth="yes"/>
      <point x="13" y="0"/>
      <point x="18" y="-3"/>
    </contour>
    <contour>
      <point x="82" y="546" type="curve" smooth="yes"/>
      <point x="111" y="546"/>
      <point x="133" y="568"/>
      <point x="133" y="596" type="curve" smooth="yes"/>
      <point x="133" y="625"/>
      <point x="111" y="647"/>
      <point x="82" y="647" type="curve" smooth="yes"/>
      <point x="54" y="647"/>
      <point x="32" y="625"/>
      <point x="32" y="596" type="curve" smooth="yes"/>
      <point x="32" y="568"/>
      <point x="54" y="546"/>
    </contour>
  </outline>
</glyph>
<glyph name="j" format="1">
  <advance width="174"/>
  <unicode hex="006A"/>
  <outline>
    <contour>
      <point x="6" y="-206" type="curve" smooth="yes"/>
      <point x="40" y="-206"/>
      <point x="86" y="-139"/>
      <point x="105" y="-71" type="curve" smooth="yes"/>
      <point x="127" y="9"/>
      <point x="126" y="110"/>
      <point x="126" y="172" type="curve" smooth="yes"/>
      <point x="126" y="310" type="line" smooth="yes"/>
      <point x="126" y="355"/>
      <point x="128" y="423"/>
      <point x="131" y="452" type="curve"/>
      <point x="132" y="465"/>
      <point x="129" y="469"/>
      <point x="122" y="469" type="curve" smooth="yes"/>
      <point x="120" y="469"/>
      <point x="113" y="464"/>
      <point x="109" y="459" type="curve" smooth="yes"/>
      <point x="94" y="446"/>
      <point x="82" y="425"/>
      <point x="37" y="406" type="curve" smooth="yes"/>
      <point x="30" y="402"/>
      <point x="28" y="401"/>
      <point x="28" y="398" type="curve" smooth="yes"/>
      <point x="28" y="394"/>
      <point x="29" y="392"/>
      <point x="36" y="389" type="curve" smooth="yes"/>
      <point x="51" y="386"/>
      <point x="56" y="371"/>
      <point x="56" y="342" type="curve" smooth="yes"/>
      <point x="56" y="122" type="line" smooth="yes"/>
      <point x="56" y="53"/>
      <point x="56" y="-83"/>
      <point x="39" y="-144" type="curve" smooth="yes"/>
      <point x="28" y="-184"/>
      <point x="15" y="-159"/>
      <point x="-8" y="-168" type="curve"/>
      <point x="-10" y="-169"/>
      <point x="-19" y="-180"/>
      <point x="-19" y="-192" type="curve" smooth="yes"/>
      <point x="-19" y="-202"/>
      <point x="-2" y="-206"/>
    </contour>
    <contour>
      <point x="87" y="547" type="curve" smooth="yes"/>
      <point x="116" y="547"/>
      <point x="138" y="569"/>
      <point x="138" y="597" type="curve" smooth="yes"/>
      <point x="138" y="626"/>
      <point x="116" y="648"/>
      <point x="87" y="648" type="curve" smooth="yes"/>
      <point x="59" y="648"/>
      <point x="37" y="626"/>
      <point x="37" y="597" type="curve" smooth="yes"/>
      <point x="37" y="569"/>
      <point x="59" y="547"/>
    </contour>
  </outline>
</glyph>
<glyph name="k" format="1">
  <advance width="308"/>
  <unicode hex="006B"/>
  <outline>
    <contour>
      <point x="24" y="-3" type="curve" smooth="yes"/>
      <point x="52" y="-3"/>
      <point x="55" y="2"/>
      <point x="80" y="2" type="curve" smooth="yes"/>
      <point x="105" y="2"/>
      <point x="102" y="-3"/>
      <point x="130" y="-3" type="curve" smooth="yes"/>
      <point x="133" y="-3"/>
      <point x="146" y="-3"/>
      <point x="146" y="4" type="curve" smooth="yes"/>
      <point x="146" y="10"/>
      <point x="140" y="11"/>
      <point x="134" y="13" type="curve" smooth="yes"/>
      <point x="120" y="17"/>
      <point x="115" y="20"/>
      <point x="115" y="48" type="curve" smooth="yes"/>
      <point x="114" y="88"/>
      <point x="114" y="112"/>
      <point x="114" y="135" type="curve" smooth="yes"/>
      <point x="114" y="158"/>
      <point x="114" y="202"/>
      <point x="115" y="221" type="curve"/>
      <point x="115" y="226"/>
      <point x="116" y="228"/>
      <point x="118" y="228" type="curve" smooth="yes"/>
      <point x="120" y="228"/>
      <point x="121" y="226"/>
      <point x="123" y="221" type="curve" smooth="yes"/>
      <point x="207" y="46" type="line"/>
      <point x="209" y="40"/>
      <point x="210" y="35"/>
      <point x="210" y="31" type="curve" smooth="yes"/>
      <point x="210" y="21"/>
      <point x="202" y="16"/>
      <point x="178" y="14" type="curve" smooth="yes"/>
      <point x="173" y="13"/>
      <point x="169" y="9"/>
      <point x="169" y="5" type="curve" smooth="yes"/>
      <point x="169" y="2"/>
      <point x="171" y="0"/>
      <point x="179" y="0" type="curve" smooth="yes"/>
      <point x="224" y="0"/>
      <point x="272" y="-3"/>
      <point x="307" y="-3" type="curve" smooth="yes"/>
      <point x="313" y="-3"/>
      <point x="318" y="-2"/>
      <point x="318" y="4" type="curve" smooth="yes"/>
      <point x="318" y="8"/>
      <point x="316" y="11"/>
      <point x="311" y="13" type="curve" smooth="yes"/>
      <point x="302" y="16"/>
      <point x="294" y="28"/>
      <point x="277" y="54" type="curve" smooth="yes"/>
      <point x="266" y="74"/>
      <point x="199" y="206"/>
      <point x="165" y="264" type="curve" smooth="yes"/>
      <point x="165" y="266"/>
      <point x="164" y="269"/>
      <point x="164" y="271" type="curve" smooth="yes"/>
      <point x="164" y="274"/>
      <point x="165" y="277"/>
      <point x="168" y="281" type="curve" smooth="yes"/>
      <point x="191" y="327"/>
      <point x="231" y="380"/>
      <point x="247" y="397" type="curve" smooth="yes"/>
      <point x="260" y="412"/>
      <point x="271" y="422"/>
      <point x="285" y="428" type="curve" smooth="yes"/>
      <point x="292" y="432"/>
      <point x="298" y="435"/>
      <point x="298" y="440" type="curve" smooth="yes"/>
      <point x="298" y="445"/>
      <point x="296" y="447"/>
      <point x="291" y="447" type="curve" smooth="yes"/>
      <point x="278" y="447"/>
      <point x="257" y="440"/>
      <point x="241" y="440" type="curve" smooth="yes"/>
      <point x="202" y="440" type="line" smooth="yes"/>
      <point x="194" y="440"/>
      <point x="190" y="437"/>
      <point x="190" y="433" type="curve" smooth="yes"/>
      <point x="190" y="430"/>
      <point x="192" y="428"/>
      <point x="197" y="427" type="curve" smooth="yes"/>
      <point x="216" y="426"/>
      <point x="223" y="420"/>
      <point x="223" y="409" type="curve" smooth="yes"/>
      <point x="223" y="404"/>
      <point x="222" y="399"/>
      <point x="220" y="392" type="curve" smooth="yes"/>
      <point x="194" y="359"/>
      <point x="163" y="308"/>
      <point x="138" y="264" type="curve" smooth="yes"/>
      <point x="128" y="249"/>
      <point x="122" y="241"/>
      <point x="118" y="241" type="curve" smooth="yes"/>
      <point x="116" y="241"/>
      <point x="115" y="244"/>
      <point x="115" y="250" type="curve" smooth="yes"/>
      <point x="115" y="521" type="line" smooth="yes"/>
      <point x="115" y="606"/>
      <point x="120" y="641"/>
      <point x="120" y="655" type="curve" smooth="yes"/>
      <point x="120" y="661"/>
      <point x="119" y="664"/>
      <point x="117" y="664" type="curve" smooth="yes"/>
      <point x="115" y="664"/>
      <point x="109" y="662"/>
      <point x="104" y="659" type="curve" smooth="yes"/>
      <point x="83" y="644"/>
      <point x="47" y="635"/>
      <point x="22" y="627" type="curve" smooth="yes"/>
      <point x="16" y="626"/>
      <point x="13" y="624"/>
      <point x="13" y="619" type="curve" smooth="yes"/>
      <point x="13" y="615"/>
      <point x="15" y="612"/>
      <point x="22" y="609" type="curve" smooth="yes"/>
      <point x="47" y="607"/>
      <point x="44" y="594"/>
      <point x="44" y="552" type="curve" smooth="yes"/>
      <point x="44" y="45" type="line" smooth="yes"/>
      <point x="44" y="22"/>
      <point x="40" y="18"/>
      <point x="20" y="13" type="curve" smooth="yes"/>
      <point x="14" y="11"/>
      <point x="8" y="10"/>
      <point x="8" y="4" type="curve" smooth="yes"/>
      <point x="8" y="-1"/>
      <point x="14" y="-3"/>
    </contour>
  </outline>
</glyph>
<glyph name="l" format="1">
  <advance width="165"/>
  <unicode hex="006C"/>
  <outline>
    <contour>
      <point x="26" y="-3" type="curve" smooth="yes"/>
      <point x="55" y="-3"/>
      <point x="59" y="2"/>
      <point x="83" y="2" type="curve" smooth="yes"/>
      <point x="107" y="2"/>
      <point x="112" y="-3"/>
      <point x="140" y="-3" type="curve" smooth="yes"/>
      <point x="145" y="-3"/>
      <point x="153" y="-3"/>
      <point x="153" y="3" type="curve" smooth="yes"/>
      <point x="153" y="9"/>
      <point x="146" y="12"/>
      <point x="141" y="14" type="curve"/>
      <point x="130" y="19"/>
      <point x="118" y="21"/>
      <point x="118" y="43" type="curve" smooth="yes"/>
      <point x="118" y="521" type="line" smooth="yes"/>
      <point x="118" y="611"/>
      <point x="125" y="645"/>
      <point x="125" y="657" type="curve" smooth="yes"/>
      <point x="125" y="661"/>
      <point x="122" y="664"/>
      <point x="118" y="664" type="curve" smooth="yes"/>
      <point x="116" y="664"/>
      <point x="111" y="663"/>
      <point x="109" y="662" type="curve" smooth="yes"/>
      <point x="78" y="638"/>
      <point x="55" y="629"/>
      <point x="35" y="624" type="curve" smooth="yes"/>
      <point x="22" y="619"/>
      <point x="20" y="617"/>
      <point x="20" y="611" type="curve" smooth="yes"/>
      <point x="20" y="605"/>
      <point x="24" y="604"/>
      <point x="33" y="600" type="curve" smooth="yes"/>
      <point x="50" y="595"/>
      <point x="48" y="580"/>
      <point x="48" y="545" type="curve" smooth="yes"/>
      <point x="48" y="43" type="line" smooth="yes"/>
      <point x="48" y="21"/>
      <point x="36" y="18"/>
      <point x="25" y="14" type="curve"/>
      <point x="20" y="12"/>
      <point x="13" y="9"/>
      <point x="13" y="3" type="curve" smooth="yes"/>
      <point x="13" y="-3"/>
      <point x="22" y="-3"/>
    </contour>
  </outline>
</glyph>
<glyph name="m" format="1">
  <advance width="508"/>
  <unicode hex="006D"/>
  <outline>
    <contour>
      <point x="27" y="-3" type="curve" smooth="yes"/>
      <point x="54" y="-3"/>
      <point x="60" y="2"/>
      <point x="83" y="2" type="curve" smooth="yes"/>
      <point x="109" y="2"/>
      <point x="112" y="-3"/>
      <point x="141" y="-3" type="curve" smooth="yes"/>
      <point x="149" y="-3"/>
      <point x="155" y="-1"/>
      <point x="155" y="3" type="curve" smooth="yes"/>
      <point x="155" y="9"/>
      <point x="148" y="10"/>
      <point x="143" y="13" type="curve" smooth="yes"/>
      <point x="132" y="16"/>
      <point x="119" y="18"/>
      <point x="119" y="36" type="curve" smooth="yes"/>
      <point x="119" y="308" type="line" smooth="yes"/>
      <point x="119" y="346"/>
      <point x="123" y="370"/>
      <point x="133" y="385" type="curve" smooth="yes"/>
      <point x="146" y="407"/>
      <point x="160" y="417"/>
      <point x="177" y="417" type="curve" smooth="yes"/>
      <point x="199" y="417"/>
      <point x="219" y="365"/>
      <point x="219" y="313" type="curve" smooth="yes"/>
      <point x="219" y="36" type="line" smooth="yes"/>
      <point x="219" y="18"/>
      <point x="205" y="16"/>
      <point x="194" y="13" type="curve" smooth="yes"/>
      <point x="188" y="11"/>
      <point x="181" y="9"/>
      <point x="181" y="3" type="curve" smooth="yes"/>
      <point x="181" y="-1"/>
      <point x="187" y="-3"/>
      <point x="196" y="-3" type="curve" smooth="yes"/>
      <point x="224" y="-3"/>
      <point x="229" y="2"/>
      <point x="255" y="2" type="curve" smooth="yes"/>
      <point x="279" y="2"/>
      <point x="284" y="-3"/>
      <point x="312" y="-3" type="curve" smooth="yes"/>
      <point x="322" y="-3"/>
      <point x="326" y="-1"/>
      <point x="326" y="3" type="curve" smooth="yes"/>
      <point x="326" y="9"/>
      <point x="321" y="11"/>
      <point x="314" y="13" type="curve" smooth="yes"/>
      <point x="302" y="15"/>
      <point x="289" y="18"/>
      <point x="289" y="36" type="curve" smooth="yes"/>
      <point x="289" y="308" type="line" smooth="yes"/>
      <point x="289" y="347"/>
      <point x="295" y="370"/>
      <point x="304" y="386" type="curve" smooth="yes"/>
      <point x="316" y="407"/>
      <point x="330" y="417"/>
      <point x="347" y="417" type="curve" smooth="yes"/>
      <point x="370" y="417"/>
      <point x="388" y="365"/>
      <point x="388" y="313" type="curve" smooth="yes"/>
      <point x="388" y="36" type="line" smooth="yes"/>
      <point x="388" y="18"/>
      <point x="376" y="15"/>
      <point x="364" y="13" type="curve" smooth="yes"/>
      <point x="357" y="11"/>
      <point x="352" y="9"/>
      <point x="352" y="3" type="curve" smooth="yes"/>
      <point x="352" y="-1"/>
      <point x="358" y="-3"/>
      <point x="366" y="-3" type="curve" smooth="yes"/>
      <point x="393" y="-3"/>
      <point x="400" y="2"/>
      <point x="424" y="2" type="curve" smooth="yes"/>
      <point x="450" y="2"/>
      <point x="451" y="-3"/>
      <point x="480" y="-3" type="curve" smooth="yes"/>
      <point x="490" y="-3"/>
      <point x="495" y="-1"/>
      <point x="495" y="3" type="curve" smooth="yes"/>
      <point x="495" y="9"/>
      <point x="489" y="10"/>
      <point x="482" y="13" type="curve" smooth="yes"/>
      <point x="472" y="17"/>
      <point x="458" y="18"/>
      <point x="458" y="36" type="curve" smooth="yes"/>
      <point x="458" y="315" type="line" smooth="yes"/>
      <point x="458" y="385"/>
      <point x="432" y="454"/>
      <point x="390" y="454" type="curve" smooth="yes"/>
      <point x="349" y="454"/>
      <point x="314" y="429"/>
      <point x="287" y="391" type="curve"/>
      <point x="285" y="391" type="line"/>
      <point x="272" y="442"/>
      <point x="253" y="454"/>
      <point x="223" y="454" type="curve" smooth="yes"/>
      <point x="173" y="454"/>
      <point x="142" y="426"/>
      <point x="123" y="397" type="curve"/>
      <point x="122" y="397" type="line"/>
      <point x="121" y="398"/>
      <point x="121" y="403"/>
      <point x="121" y="409" type="curve" smooth="yes"/>
      <point x="121" y="428"/>
      <point x="123" y="454"/>
      <point x="123" y="463" type="curve" smooth="yes"/>
      <point x="123" y="469"/>
      <point x="120" y="470"/>
      <point x="117" y="470" type="curve" smooth="yes"/>
      <point x="111" y="470"/>
      <point x="109" y="467"/>
      <point x="101" y="458" type="curve" smooth="yes"/>
      <point x="85" y="436"/>
      <point x="63" y="419"/>
      <point x="35" y="410" type="curve" smooth="yes"/>
      <point x="26" y="405"/>
      <point x="23" y="406"/>
      <point x="23" y="402" type="curve" smooth="yes"/>
      <point x="23" y="396"/>
      <point x="26" y="394"/>
      <point x="29" y="393" type="curve" smooth="yes"/>
      <point x="44" y="388"/>
      <point x="49" y="368"/>
      <point x="49" y="332" type="curve" smooth="yes"/>
      <point x="49" y="36" type="line" smooth="yes"/>
      <point x="49" y="18"/>
      <point x="36" y="16"/>
      <point x="25" y="13" type="curve" smooth="yes"/>
      <point x="18" y="10"/>
      <point x="13" y="9"/>
      <point x="13" y="3" type="curve" smooth="yes"/>
      <point x="13" y="-2"/>
      <point x="19" y="-3"/>
    </contour>
  </outline>
</glyph>
<glyph name="n" format="1">
  <advance width="336"/>
  <unicode hex="006E"/>
  <outline>
    <contour>
      <point x="27" y="-3" type="curve" smooth="yes"/>
      <point x="55" y="-3"/>
      <point x="60" y="0"/>
      <point x="84" y="0" type="curve" smooth="yes"/>
      <point x="110" y="0"/>
      <point x="112" y="-3"/>
      <point x="141" y="-3" type="curve" smooth="yes"/>
      <point x="150" y="-3"/>
      <point x="155" y="-1"/>
      <point x="155" y="3" type="curve" smooth="yes"/>
      <point x="155" y="7"/>
      <point x="152" y="9"/>
      <point x="143" y="11" type="curve" smooth="yes"/>
      <point x="132" y="14"/>
      <point x="119" y="18"/>
      <point x="119" y="32" type="curve" smooth="yes"/>
      <point x="119" y="353" type="line" smooth="yes"/>
      <point x="119" y="359"/>
      <point x="121" y="370"/>
      <point x="122" y="375" type="curve" smooth="yes"/>
      <point x="129" y="404"/>
      <point x="152" y="418"/>
      <point x="174" y="418" type="curve" smooth="yes"/>
      <point x="200" y="418"/>
      <point x="216" y="383"/>
      <point x="216" y="320" type="curve" smooth="yes"/>
      <point x="216" y="32" type="line" smooth="yes"/>
      <point x="216" y="18"/>
      <point x="203" y="15"/>
      <point x="192" y="11" type="curve" smooth="yes"/>
      <point x="186" y="10"/>
      <point x="180" y="7"/>
      <point x="180" y="2" type="curve" smooth="yes"/>
      <point x="180" y="-3"/>
      <point x="189" y="-3"/>
      <point x="194" y="-3" type="curve" smooth="yes"/>
      <point x="223" y="-3"/>
      <point x="227" y="0"/>
      <point x="252" y="0" type="curve" smooth="yes"/>
      <point x="276" y="0"/>
      <point x="281" y="-3"/>
      <point x="308" y="-3" type="curve" smooth="yes"/>
      <point x="314" y="-3"/>
      <point x="322" y="-3"/>
      <point x="322" y="2" type="curve" smooth="yes"/>
      <point x="322" y="7"/>
      <point x="316" y="9"/>
      <point x="310" y="11" type="curve"/>
      <point x="299" y="15"/>
      <point x="286" y="18"/>
      <point x="286" y="32" type="curve" smooth="yes"/>
      <point x="286" y="323" type="line" smooth="yes"/>
      <point x="286" y="396"/>
      <point x="257" y="453"/>
      <point x="218" y="453" type="curve" smooth="yes"/>
      <point x="180" y="453"/>
      <point x="149" y="436"/>
      <point x="122" y="400" type="curve"/>
      <point x="121" y="406"/>
      <point x="121" y="410"/>
      <point x="121" y="415" type="curve" smooth="yes"/>
      <point x="121" y="426"/>
      <point x="123" y="450"/>
      <point x="123" y="459" type="curve" smooth="yes"/>
      <point x="123" y="465"/>
      <point x="122" y="470"/>
      <point x="115" y="470" type="curve" smooth="yes"/>
      <point x="109" y="470"/>
      <point x="106" y="467"/>
      <point x="102" y="463" type="curve" smooth="yes"/>
      <point x="80" y="444"/>
      <point x="58" y="427"/>
      <point x="32" y="412" type="curve" smooth="yes"/>
      <point x="25" y="408"/>
      <point x="23" y="405"/>
      <point x="23" y="402" type="curve" smooth="yes"/>
      <point x="23" y="398"/>
      <point x="24" y="396"/>
      <point x="30" y="393" type="curve" smooth="yes"/>
      <point x="49" y="386"/>
      <point x="49" y="356"/>
      <point x="49" y="317" type="curve" smooth="yes"/>
      <point x="49" y="32" type="line" smooth="yes"/>
      <point x="49" y="18"/>
      <point x="37" y="15"/>
      <point x="25" y="11" type="curve" smooth="yes"/>
      <point x="18" y="9"/>
      <point x="13" y="8"/>
      <point x="13" y="3" type="curve" smooth="yes"/>
      <point x="13" y="-1"/>
      <point x="19" y="-3"/>
    </contour>
  </outline>
</glyph>
<glyph name="o" format="1">
  <advance width="305"/>
  <unicode hex="006F"/>
  <outline>
    <contour>
      <point x="143" y="-14" type="curve" smooth="yes"/>
      <point x="235" y="-14"/>
      <point x="286" y="75"/>
      <point x="286" y="234" type="curve" smooth="yes"/>
      <point x="286" y="367"/>
      <point x="235" y="454"/>
      <point x="157" y="454" type="curve" smooth="yes"/>
      <point x="77" y="454"/>
      <point x="19" y="350"/>
      <point x="19" y="206" type="curve" smooth="yes"/>
      <point x="19" y="67"/>
      <point x="66" y="-14"/>
    </contour>
    <contour>
      <point x="156" y="3" type="curve" smooth="yes"/>
      <point x="120" y="3"/>
      <point x="101" y="81"/>
      <point x="101" y="232" type="curve" smooth="yes"/>
      <point x="101" y="363"/>
      <point x="117" y="436"/>
      <point x="149" y="436" type="curve" smooth="yes"/>
      <point x="185" y="436"/>
      <point x="204" y="361"/>
      <point x="204" y="207" type="curve" smooth="yes"/>
      <point x="204" y="66"/>
      <point x="189" y="3"/>
    </contour>
  </outline>
</glyph>
<glyph name="p" format="1">
  <advance width="345"/>
  <unicode hex="0070"/>
  <outline>
    <contour>
      <point x="23" y="-205" type="curve" smooth="yes"/>
      <point x="50" y="-205"/>
      <point x="55" y="-202"/>
      <point x="78" y="-202" type="curve" smooth="yes"/>
      <point x="104" y="-202"/>
      <point x="117" y="-205"/>
      <point x="145" y="-205" type="curve" smooth="yes"/>
      <point x="150" y="-205"/>
      <point x="160" y="-205"/>
      <point x="160" y="-200" type="curve" smooth="yes"/>
      <point x="160" y="-194"/>
      <point x="153" y="-191"/>
      <point x="147" y="-188" type="curve"/>
      <point x="136" y="-185"/>
      <point x="116" y="-183"/>
      <point x="116" y="-166" type="curve" smooth="yes"/>
      <point x="116" y="-35" type="line" smooth="yes"/>
      <point x="116" y="-28"/>
      <point x="116" y="21"/>
      <point x="117" y="21" type="curve"/>
      <point x="131" y="1"/>
      <point x="164" y="-14"/>
      <point x="182" y="-14" type="curve" smooth="yes"/>
      <point x="263" y="-14"/>
      <point x="326" y="117"/>
      <point x="326" y="248" type="curve" smooth="yes"/>
      <point x="326" y="350"/>
      <point x="287" y="453"/>
      <point x="221" y="454" type="curve" smooth="yes"/>
      <point x="179" y="454"/>
      <point x="131" y="415"/>
      <point x="117" y="387" type="curve"/>
      <point x="117" y="393"/>
      <point x="117" y="397"/>
      <point x="117" y="402" type="curve" smooth="yes"/>
      <point x="117" y="416"/>
      <point x="121" y="447"/>
      <point x="121" y="459" type="curve" smooth="yes"/>
      <point x="121" y="464"/>
      <point x="120" y="469"/>
      <point x="113" y="469" type="curve" smooth="yes"/>
      <point x="108" y="469"/>
      <point x="105" y="467"/>
      <point x="102" y="464" type="curve"/>
      <point x="78" y="449"/>
      <point x="55" y="433"/>
      <point x="27" y="419" type="curve" smooth="yes"/>
      <point x="20" y="415"/>
      <point x="17" y="414"/>
      <point x="17" y="408" type="curve" smooth="yes"/>
      <point x="17" y="403"/>
      <point x="20" y="402"/>
      <point x="26" y="399" type="curve" smooth="yes"/>
      <point x="45" y="394"/>
      <point x="45" y="382"/>
      <point x="45" y="341" type="curve" smooth="yes"/>
      <point x="45" y="-166" type="line" smooth="yes"/>
      <point x="45" y="-183"/>
      <point x="32" y="-185"/>
      <point x="21" y="-188" type="curve"/>
      <point x="15" y="-191"/>
      <point x="9" y="-194"/>
      <point x="9" y="-200" type="curve" smooth="yes"/>
      <point x="9" y="-205"/>
      <point x="19" y="-205"/>
    </contour>
    <contour>
      <point x="179" y="7" type="curve" smooth="yes"/>
      <point x="139" y="7"/>
      <point x="117" y="57"/>
      <point x="117" y="181" type="curve" smooth="yes"/>
      <point x="117" y="208"/>
      <point x="118" y="289"/>
      <point x="118" y="356" type="curve" smooth="yes"/>
      <point x="118" y="369"/>
      <point x="151" y="406"/>
      <point x="176" y="406" type="curve" smooth="yes"/>
      <point x="213" y="406"/>
      <point x="246" y="360"/>
      <point x="246" y="212" type="curve" smooth="yes"/>
      <point x="246" y="62"/>
      <point x="224" y="7"/>
    </contour>
  </outline>
</glyph>
<glyph name="q" format="1">
  <advance width="330"/>
  <unicode hex="0071"/>
  <outline>
    <contour>
      <point x="195" y="-205" type="curve" smooth="yes"/>
      <point x="224" y="-205"/>
      <point x="229" y="-200"/>
      <point x="254" y="-200" type="curve" smooth="yes"/>
      <point x="281" y="-200"/>
      <point x="288" y="-205"/>
      <point x="317" y="-205" type="curve" smooth="yes"/>
      <point x="323" y="-205"/>
      <point x="328" y="-203"/>
      <point x="328" y="-199" type="curve" smooth="yes"/>
      <point x="328" y="-193"/>
      <point x="321" y="-191"/>
      <point x="315" y="-190" type="curve"/>
      <point x="303" y="-185"/>
      <point x="290" y="-181"/>
      <point x="290" y="-166" type="curve" smooth="yes"/>
      <point x="290" y="354" type="line" smooth="yes"/>
      <point x="290" y="390"/>
      <point x="297" y="433"/>
      <point x="297" y="446" type="curve" smooth="yes"/>
      <point x="297" y="453"/>
      <point x="293" y="458"/>
      <point x="289" y="458" type="curve" smooth="yes"/>
      <point x="285" y="458"/>
      <point x="282" y="455"/>
      <point x="279" y="450" type="curve"/>
      <point x="275" y="443"/>
      <point x="266" y="432"/>
      <point x="250" y="432" type="curve" smooth="yes"/>
      <point x="217" y="432"/>
      <point x="199" y="453"/>
      <point x="155" y="453" type="curve" smooth="yes"/>
      <point x="75" y="453"/>
      <point x="19" y="351"/>
      <point x="19" y="200" type="curve" smooth="yes"/>
      <point x="19" y="75"/>
      <point x="69" y="-14"/>
      <point x="129" y="-14" type="curve" smooth="yes"/>
      <point x="157" y="-14"/>
      <point x="192" y="18"/>
      <point x="211" y="49" type="curve" smooth="yes"/>
      <point x="214" y="50"/>
      <point x="215" y="49"/>
      <point x="216" y="48" type="curve" smooth="yes"/>
      <point x="220" y="46"/>
      <point x="220" y="38"/>
      <point x="220" y="15" type="curve" smooth="yes"/>
      <point x="220" y="-168" type="line" smooth="yes"/>
      <point x="220" y="-182"/>
      <point x="210" y="-186"/>
      <point x="196" y="-190" type="curve"/>
      <point x="190" y="-191"/>
      <point x="184" y="-193"/>
      <point x="184" y="-199" type="curve" smooth="yes"/>
      <point x="184" y="-203"/>
      <point x="189" y="-205"/>
    </contour>
    <contour>
      <point x="167" y="30" type="curve" smooth="yes"/>
      <point x="119" y="30"/>
      <point x="99" y="129"/>
      <point x="99" y="232" type="curve" smooth="yes"/>
      <point x="99" y="355"/>
      <point x="125" y="438"/>
      <point x="159" y="438" type="curve" smooth="yes"/>
      <point x="202" y="438"/>
      <point x="219" y="402"/>
      <point x="220" y="309" type="curve" smooth="yes"/>
      <point x="220" y="248"/>
      <point x="220" y="146"/>
      <point x="220" y="81" type="curve"/>
      <point x="209" y="53"/>
      <point x="189" y="30"/>
    </contour>
  </outline>
</glyph>
<glyph name="r" format="1">
  <advance width="230"/>
  <unicode hex="0072"/>
  <outline>
    <contour>
      <point x="31" y="-3" type="curve" smooth="yes"/>
      <point x="59" y="-3"/>
      <point x="62" y="2"/>
      <point x="88" y="2" type="curve" smooth="yes"/>
      <point x="113" y="2"/>
      <point x="120" y="-3"/>
      <point x="148" y="-3" type="curve" smooth="yes"/>
      <point x="159" y="-3"/>
      <point x="162" y="-1"/>
      <point x="162" y="3" type="curve" smooth="yes"/>
      <point x="162" y="8"/>
      <point x="157" y="10"/>
      <point x="150" y="12" type="curve" smooth="yes"/>
      <point x="132" y="17"/>
      <point x="121" y="22"/>
      <point x="121" y="37" type="curve" smooth="yes"/>
      <point x="121" y="322" type="line" smooth="yes"/>
      <point x="121" y="383"/>
      <point x="143" y="402"/>
      <point x="159" y="402" type="curve" smooth="yes"/>
      <point x="164" y="402"/>
      <point x="170" y="392"/>
      <point x="176" y="384" type="curve" smooth="yes"/>
      <point x="184" y="375"/>
      <point x="188" y="366"/>
      <point x="193" y="366" type="curve" smooth="yes"/>
      <point x="209" y="366"/>
      <point x="225" y="398"/>
      <point x="225" y="418" type="curve" smooth="yes"/>
      <point x="225" y="436"/>
      <point x="209" y="450"/>
      <point x="187" y="450" type="curve" smooth="yes"/>
      <point x="165" y="450"/>
      <point x="141" y="421"/>
      <point x="124" y="382" type="curve"/>
      <point x="123" y="382"/>
      <point x="122" y="383"/>
      <point x="122" y="384" type="curve"/>
      <point x="124" y="416"/>
      <point x="125" y="449"/>
      <point x="125" y="456" type="curve"/>
      <point x="125" y="462"/>
      <point x="123" y="466"/>
      <point x="116" y="466" type="curve" smooth="yes"/>
      <point x="110" y="466"/>
      <point x="103" y="460"/>
      <point x="98" y="454" type="curve" smooth="yes"/>
      <point x="80" y="434"/>
      <point x="55" y="420"/>
      <point x="30" y="406" type="curve" smooth="yes"/>
      <point x="28" y="405"/>
      <point x="23" y="402"/>
      <point x="23" y="399" type="curve" smooth="yes"/>
      <point x="23" y="395"/>
      <point x="27" y="392"/>
      <point x="29" y="392" type="curve" smooth="yes"/>
      <point x="47" y="385"/>
      <point x="50" y="357"/>
      <point x="50" y="327" type="curve" smooth="yes"/>
      <point x="50" y="37" type="line" smooth="yes"/>
      <point x="50" y="21"/>
      <point x="43" y="15"/>
      <point x="29" y="12" type="curve" smooth="yes"/>
      <point x="21" y="10"/>
      <point x="16" y="8"/>
      <point x="16" y="3" type="curve" smooth="yes"/>
      <point x="16" y="-1"/>
      <point x="21" y="-3"/>
    </contour>
  </outline>
</glyph>
